<?xml version="1.0" encoding="UTF-8" standalone="no"?>
<!DOCTYPE svg PUBLIC "-//W3C//DTD SVG 1.1//EN" "http://www.w3.org/Graphics/SVG/1.1/DTD/svg11.dtd">
<svg width="100%" height="100%" viewBox="0 0 1500 1500" version="1.1" xmlns="http://www.w3.org/2000/svg" xmlns:xlink="http://www.w3.org/1999/xlink" xml:space="preserve" xmlns:serif="http://www.serif.com/" style="fill-rule:evenodd;clip-rule:evenodd;stroke-linejoin:round;stroke-miterlimit:2;">
    <g transform="matrix(1.39967,0,0,1.39967,-1096.04,-97.8581)">
        <circle cx="939.479" cy="1127.75" r="11.724" style="fill:rgb(255,118,0);"/>
    </g>
    <g transform="matrix(469.761,0,0,-469.761,1445.64,65452.8)">
        <path d="M-1.011,139.324L-1.006,139.323L-1.004,139.32L-1.006,139.313L-1.019,139.298L-1.033,139.286L-1.047,139.262L-1.054,139.248L-1.063,139.235L-1.069,139.225L-1.074,139.223L-1.085,139.223L-1.094,139.218L-1.098,139.211L-1.1,139.206L-1.107,139.201L-1.113,139.199L-1.118,139.195L-1.123,139.191L-1.125,139.186L-1.125,139.181L-1.122,139.179L-1.117,139.178L-1.114,139.173L-1.115,139.167L-1.126,139.14L-1.136,139.122L-1.139,139.106L-1.143,139.086L-1.146,139.06L-1.147,139.044L-1.141,139.034L-1.14,139.025L-1.14,139.019L-1.155,138.979L-1.158,138.967L-1.153,138.95L-1.15,138.92L-1.15,138.912L-1.152,138.901L-1.154,138.894L-1.158,138.885L-1.157,138.875L-1.166,138.86L-1.171,138.844L-1.17,138.827L-1.171,138.806L-1.172,138.789L-1.175,138.774L-1.172,138.75L-1.166,138.722L-1.168,138.698L-1.173,138.679L-1.179,138.663L-1.189,138.639L-1.188,138.615L-1.181,138.595L-1.166,138.563L-1.162,138.546L-1.163,138.536L-1.166,138.526L-1.174,138.511L-1.184,138.494L-1.199,138.475L-1.208,138.454L-1.215,138.432L-1.216,138.415L-1.219,138.401L-1.223,138.39L-1.225,138.373L-1.225,138.364L-1.234,138.35L-1.233,138.341L-1.236,138.336L-1.242,138.329L-1.25,138.328L-1.256,138.329L-1.261,138.33L-1.264,138.328L-1.267,138.319L-1.266,138.307L-1.267,138.29L-1.265,138.288L-1.252,138.286L-1.247,138.29L-1.239,138.28L-1.236,138.264L-1.235,138.247L-1.234,138.23L-1.228,138.211L-1.218,138.183L-1.216,138.173L-1.215,138.157L-1.215,138.152L-1.223,138.144L-1.234,138.135L-1.243,138.129L-1.253,138.119L-1.262,138.103L-1.265,138.089L-1.274,138.072L-1.274,138.046L-1.276,138.041L-1.281,138.037L-1.289,138.032L-1.293,138.032L-1.3,138.034L-1.302,138.039L-1.303,138.044L-1.304,138.05L-1.308,138.056L-1.306,138.071L-1.303,138.084L-1.3,138.092L-1.3,138.1L-1.3,138.107L-1.309,138.108L-1.315,138.108L-1.328,138.096L-1.339,138.09L-1.342,138.087L-1.356,138.081L-1.359,138.077L-1.36,138.073L-1.365,138.068L-1.369,138.058L-1.373,138.049L-1.382,138.039L-1.383,138.029L-1.389,138.007L-1.392,137.989L-1.395,137.979L-1.404,137.968L-1.41,137.955L-1.416,137.93L-1.423,137.916L-1.426,137.908L-1.426,137.901L-1.422,137.891L-1.423,137.883L-1.429,137.854L-1.438,137.816L-1.444,137.797L-1.454,137.783L-1.465,137.766L-1.472,137.755L-1.48,137.743L-1.484,137.733L-1.481,137.726L-1.481,137.716L-1.483,137.707L-1.485,137.702L-1.49,137.694L-1.491,137.688L-1.492,137.682L-1.49,137.673L-1.487,137.667L-1.483,137.66L-1.48,137.655L-1.479,137.647L-1.483,137.636L-1.488,137.618L-1.496,137.611L-1.496,137.604L-1.495,137.59L-1.492,137.577L-1.487,137.57L-1.489,137.566L-1.495,137.564L-1.51,137.564L-1.52,137.558L-1.525,137.549L-1.527,137.543L-1.53,137.532L-1.533,137.518L-1.532,137.508L-1.524,137.5L-1.515,137.5L-1.506,137.505L-1.493,137.505L-1.472,137.505L-1.465,137.502L-1.459,137.492L-1.454,137.49L-1.447,137.493L-1.44,137.491L-1.432,137.49L-1.42,137.494L-1.415,137.495L-1.403,137.493L-1.394,137.491L-1.384,137.496L-1.378,137.505L-1.377,137.51L-1.378,137.518L-1.381,137.526L-1.387,137.536L-1.385,137.539L-1.383,137.546L-1.378,137.551L-1.37,137.557L-1.358,137.562L-1.349,137.573L-1.339,137.587L-1.327,137.602L-1.32,137.609L-1.317,137.62L-1.318,137.629L-1.316,137.645L-1.317,137.653L-1.32,137.672L-1.321,137.677L-1.32,137.686L-1.316,137.691L-1.308,137.691L-1.302,137.688L-1.297,137.681L-1.293,137.672L-1.29,137.661L-1.287,137.651L-1.287,137.646L-1.289,137.637L-1.289,137.63L-1.284,137.611L-1.279,137.602L-1.279,137.593L-1.283,137.582L-1.284,137.573L-1.284,137.565L-1.279,137.551L-1.262,137.524L-1.255,137.51L-1.252,137.497L-1.25,137.485L-1.249,137.473L-1.25,137.469L-1.254,137.465L-1.265,137.458L-1.276,137.45L-1.282,137.441L-1.288,137.431L-1.292,137.425L-1.3,137.419L-1.311,137.405L-1.331,137.383L-1.339,137.376L-1.343,137.367L-1.348,137.35L-1.351,137.345L-1.359,137.337L-1.363,137.334L-1.366,137.31L-1.364,137.303L-1.362,137.298L-1.356,137.295L-1.354,137.29L-1.351,137.287L-1.343,137.287L-1.338,137.289L-1.333,137.29L-1.328,137.288L-1.328,137.284L-1.331,137.273L-1.339,137.259L-1.349,137.245L-1.359,137.225L-1.365,137.214L-1.37,137.208L-1.372,137.196L-1.374,137.191L-1.385,137.185L-1.401,137.176L-1.405,137.171L-1.41,137.163L-1.413,137.156L-1.417,137.153L-1.426,137.149L-1.434,137.147L-1.444,137.146L-1.453,137.145L-1.454,137.134L-1.459,137.127L-1.465,137.128L-1.471,137.139L-1.483,137.136L-1.493,137.123L-1.504,137.104L-1.51,137.084L-1.515,137.06L-1.51,137.037L-1.504,137.031L-1.505,137.024L-1.505,137.013L-1.504,137.011L-1.497,137.009L-1.494,137.009L-1.488,137.014L-1.485,137.016L-1.481,137.019L-1.477,137.02L-1.472,137.02L-1.471,137.017L-1.469,137.011L-1.459,137.007L-1.447,137.005L-1.431,137.008L-1.419,137.01L-1.398,137.012L-1.386,137.009L-1.381,137.01L-1.382,137.005L-1.384,137.001L-1.387,136.997L-1.4,136.986L-1.407,136.982L-1.419,136.978L-1.428,136.973L-1.432,136.97L-1.455,136.956L-1.464,136.946L-1.472,136.939L-1.477,136.934L-1.485,136.93L-1.494,136.922L-1.496,136.919L-1.497,136.914L-1.505,136.903L-1.508,136.889L-1.51,136.886L-1.514,136.885L-1.518,136.887L-1.524,136.89L-1.532,136.892L-1.538,136.891L-1.546,136.888L-1.553,136.883L-1.553,136.87L-1.536,136.863L-1.53,136.86L-1.523,136.853L-1.526,136.835L-1.542,136.796L-1.553,136.766L-1.555,136.757L-1.559,136.748L-1.564,136.743L-1.571,136.739L-1.582,136.732L-1.592,136.729L-1.6,136.718L-1.612,136.703L-1.624,136.684L-1.629,136.676L-1.631,136.669L-1.633,136.667L-1.636,136.665L-1.64,136.662L-1.647,136.653L-1.646,136.648L-1.645,136.643L-1.647,136.634L-1.647,136.627L-1.647,136.622L-1.649,136.612L-1.646,136.611L-1.637,136.612L-1.632,136.611L-1.631,136.607L-1.631,136.602L-1.631,136.599L-1.628,136.596L-1.617,136.596L-1.612,136.595L-1.608,136.594L-1.605,136.588L-1.609,136.579L-1.614,136.576L-1.62,136.575L-1.626,136.573L-1.628,136.568L-1.628,136.56L-1.63,136.557L-1.637,136.556L-1.646,136.557L-1.652,136.559L-1.663,136.557L-1.674,136.554L-1.683,136.55L-1.69,136.548L-1.696,136.541L-1.706,136.532L-1.71,136.526L-1.714,136.517L-1.72,136.51L-1.733,136.501L-1.741,136.495L-1.757,136.49L-1.767,136.49L-1.78,136.492L-1.801,136.502L-1.821,136.516L-1.839,136.538L-1.849,136.556L-1.852,136.57L-1.851,136.58L-1.851,136.59L-1.853,136.595L-1.859,136.594L-1.864,136.594L-1.889,136.604L-1.887,136.604L-1.877,136.604L-1.871,136.602L-1.861,136.602L-1.851,136.606L-1.844,136.607L-1.839,136.609L-1.83,136.615L-1.823,136.616L-1.819,136.619L-1.805,136.62L-1.801,136.625L-1.796,136.633L-1.792,136.641L-1.789,136.648L-1.791,136.666L-1.791,136.674L-1.789,136.678L-1.779,136.691L-1.777,136.694L-1.776,136.701L-1.773,136.705L-1.77,136.714L-1.77,136.72L-1.767,136.726L-1.766,136.734L-1.763,136.739L-1.758,136.747L-1.753,136.752L-1.75,136.764L-1.735,136.788L-1.726,136.807L-1.721,136.821L-1.718,136.826L-1.714,136.829L-1.708,136.838L-1.705,136.845L-1.704,136.85L-1.703,136.854L-1.701,136.857L-1.695,136.859L-1.689,136.862L-1.685,136.866L-1.683,136.872L-1.678,136.883L-1.677,136.889L-1.676,136.898L-1.675,136.905L-1.671,136.911L-1.666,136.916L-1.663,136.922L-1.659,136.939L-1.654,136.95L-1.654,136.956L-1.647,136.966L-1.65,136.972L-1.649,136.978L-1.644,136.982L-1.643,136.988L-1.634,137.002L-1.632,137.012L-1.629,137.028L-1.63,137.044L-1.628,137.058L-1.625,137.071L-1.621,137.081L-1.617,137.088L-1.613,137.098L-1.606,137.108L-1.598,137.118L-1.592,137.123L-1.588,137.133L-1.59,137.141L-1.585,137.149L-1.58,137.166L-1.578,137.179L-1.579,137.186L-1.583,137.195L-1.583,137.203L-1.579,137.215L-1.58,137.227L-1.581,137.237L-1.58,137.245L-1.577,137.256L-1.579,137.266L-1.581,137.275L-1.586,137.283L-1.591,137.292L-1.593,137.296L-1.592,137.306L-1.594,137.328L-1.597,137.352L-1.598,137.372L-1.6,137.387L-1.604,137.396L-1.606,137.403L-1.607,137.416L-1.607,137.434L-1.608,137.471L-1.611,137.481L-1.616,137.488L-1.615,137.496L-1.617,137.518L-1.617,137.526L-1.622,137.542L-1.621,137.548L-1.624,137.558L-1.63,137.569L-1.635,137.583L-1.635,137.599L-1.634,137.602L-1.628,137.616L-1.62,137.631L-1.616,137.638L-1.619,137.643L-1.62,137.65L-1.616,137.665L-1.612,137.672L-1.603,137.685L-1.592,137.695L-1.584,137.714L-1.57,137.745L-1.563,137.765L-1.558,137.776L-1.554,137.789L-1.555,137.807L-1.559,137.816L-1.559,137.82L-1.555,137.826L-1.555,137.834L-1.557,137.841L-1.559,137.849L-1.559,137.863L-1.558,137.868L-1.556,137.873L-1.553,137.883L-1.553,137.894L-1.555,137.897L-1.555,137.909L-1.555,137.917L-1.56,137.926L-1.565,137.929L-1.575,137.929L-1.579,137.932L-1.577,137.938L-1.574,137.946L-1.569,137.952L-1.563,137.96L-1.559,137.975L-1.555,137.979L-1.549,137.983L-1.538,137.988L-1.533,137.988L-1.526,137.986L-1.522,137.979L-1.519,137.967L-1.514,137.957L-1.511,137.949L-1.51,137.943L-1.51,137.935L-1.511,137.93L-1.511,137.923L-1.51,137.919L-1.506,137.925L-1.501,137.927L-1.499,137.93L-1.495,137.936L-1.494,137.941L-1.488,137.945L-1.483,137.949L-1.48,137.955L-1.473,137.96L-1.472,137.963L-1.477,137.968L-1.48,137.97L-1.484,137.971L-1.493,137.972L-1.497,137.974L-1.497,137.974L-1.5,137.98L-1.498,137.984L-1.491,137.993L-1.486,137.996L-1.483,137.995L-1.479,137.994L-1.472,138L-1.464,138.002L-1.456,138.008L-1.458,138.012L-1.455,138.015L-1.454,138.02L-1.451,138.022L-1.438,138.028L-1.427,138.036L-1.424,138.041L-1.424,138.046L-1.419,138.055L-1.415,138.06L-1.41,138.065L-1.404,138.074L-1.401,138.09L-1.394,138.112L-1.39,138.122L-1.385,138.126L-1.379,138.138L-1.379,138.142L-1.372,138.153L-1.368,138.158L-1.366,138.164L-1.368,138.171L-1.368,138.174L-1.365,138.178L-1.361,138.185L-1.361,138.2L-1.362,138.21L-1.363,138.213L-1.369,138.218L-1.375,138.226L-1.374,138.231L-1.372,138.241L-1.372,138.245L-1.378,138.252L-1.383,138.258L-1.386,138.265L-1.386,138.277L-1.384,138.282L-1.38,138.287L-1.377,138.29L-1.371,138.286L-1.361,138.289L-1.355,138.296L-1.347,138.302L-1.345,138.311L-1.34,138.318L-1.337,138.325L-1.337,138.332L-1.336,138.336L-1.334,138.339L-1.329,138.346L-1.32,138.361L-1.316,138.369L-1.3,138.389L-1.29,138.407L-1.279,138.425L-1.271,138.443L-1.269,138.453L-1.266,138.458L-1.262,138.477L-1.259,138.491L-1.256,138.501L-1.248,138.517L-1.242,138.529L-1.239,138.548L-1.234,138.562L-1.228,138.571L-1.223,138.584L-1.221,138.601L-1.22,138.611L-1.218,138.617L-1.219,138.623L-1.218,138.631L-1.217,138.639L-1.215,138.647L-1.213,138.661L-1.212,138.679L-1.209,138.693L-1.208,138.702L-1.208,138.707L-1.214,138.718L-1.214,138.725L-1.216,138.732L-1.221,138.742L-1.222,138.747L-1.221,138.765L-1.221,138.78L-1.222,138.794L-1.221,138.8L-1.218,138.805L-1.222,138.814L-1.223,138.825L-1.225,138.838L-1.225,138.844L-1.223,138.85L-1.221,138.865L-1.22,138.87L-1.22,138.875L-1.216,138.88L-1.214,138.891L-1.214,138.898L-1.211,138.916L-1.205,138.926L-1.202,138.944L-1.204,138.951L-1.2,138.964L-1.199,138.973L-1.196,138.98L-1.193,138.996L-1.192,139.013L-1.193,139.035L-1.197,139.049L-1.199,139.057L-1.214,139.07L-1.218,139.084L-1.222,139.092L-1.227,139.101L-1.23,139.109L-1.228,139.114L-1.226,139.118L-1.224,139.124L-1.219,139.131L-1.216,139.14L-1.217,139.146L-1.219,139.153L-1.221,139.158L-1.221,139.161L-1.211,139.168L-1.204,139.173L-1.195,139.175L-1.183,139.186L-1.174,139.195L-1.159,139.199L-1.149,139.21L-1.142,139.218L-1.13,139.219L-1.127,139.228L-1.114,139.236L-1.1,139.251L-1.09,139.257L-1.077,139.271L-1.068,139.286L-1.061,139.293L-1.045,139.306L-1.026,139.319L-1.019,139.322L-1.011,139.324ZM-1.472,137.413L-1.47,137.412L-1.466,137.413L-1.461,137.419L-1.457,137.42L-1.454,137.418L-1.454,137.414L-1.45,137.412L-1.443,137.412L-1.44,137.414L-1.438,137.418L-1.435,137.426L-1.435,137.431L-1.437,137.443L-1.439,137.447L-1.447,137.453L-1.452,137.453L-1.457,137.451L-1.466,137.451L-1.475,137.447L-1.476,137.442L-1.479,137.432L-1.481,137.426L-1.478,137.421L-1.475,137.416L-1.472,137.413ZM-1.52,137.409L-1.517,137.408L-1.511,137.41L-1.508,137.413L-1.504,137.418L-1.5,137.427L-1.499,137.437L-1.507,137.461L-1.514,137.461L-1.519,137.459L-1.525,137.449L-1.527,137.442L-1.529,137.426L-1.529,137.415L-1.523,137.41L-1.52,137.409ZM-1.711,136.608L-1.707,136.608L-1.704,136.609L-1.701,136.61L-1.699,136.613L-1.699,136.616L-1.697,136.619L-1.697,136.625L-1.698,136.63L-1.7,136.632L-1.703,136.632L-1.706,136.629L-1.709,136.627L-1.709,136.621L-1.712,136.617L-1.714,136.614L-1.717,136.613L-1.714,136.61L-1.711,136.608ZM-1.333,138.293L-1.332,138.289L-1.33,138.289L-1.329,138.291L-1.329,138.295L-1.332,138.294L-1.333,138.293Z" style="fill:rgb(36,121,200);"/>
    </g>
</svg>
