<?xml version="1.0" encoding="UTF-8" standalone="no"?>
<!DOCTYPE svg PUBLIC "-//W3C//DTD SVG 1.1//EN" "http://www.w3.org/Graphics/SVG/1.1/DTD/svg11.dtd">
<svg width="100%" height="100%" viewBox="0 0 1500 1500" version="1.1" xmlns="http://www.w3.org/2000/svg" xmlns:xlink="http://www.w3.org/1999/xlink" xml:space="preserve" xmlns:serif="http://www.serif.com/" style="fill-rule:evenodd;clip-rule:evenodd;stroke-linejoin:round;stroke-miterlimit:2;">
    <g transform="matrix(500.587,0,0,-500.587,7167.99,67540.4)">
        <path d="M-12.906,134.901L-12.899,134.901L-12.893,134.903L-12.884,134.909L-12.88,134.909L-12.876,134.907L-12.875,134.903L-12.874,134.9L-12.876,134.893L-12.88,134.887L-12.881,134.882L-12.878,134.875L-12.877,134.869L-12.877,134.864L-12.881,134.859L-12.886,134.858L-12.89,134.854L-12.893,134.848L-12.897,134.837L-12.897,134.831L-12.896,134.827L-12.891,134.824L-12.884,134.822L-12.881,134.82L-12.879,134.815L-12.876,134.807L-12.873,134.799L-12.869,134.786L-12.867,134.782L-12.86,134.776L-12.853,134.768L-12.839,134.749L-12.832,134.743L-12.823,134.741L-12.811,134.745L-12.802,134.747L-12.799,134.747L-12.791,134.743L-12.785,134.74L-12.785,134.737L-12.788,134.729L-12.789,134.72L-12.791,134.713L-12.793,134.708L-12.795,134.706L-12.799,134.705L-12.802,134.704L-12.809,134.694L-12.812,134.687L-12.814,134.682L-12.814,134.678L-12.813,134.672L-12.805,134.662L-12.797,134.653L-12.792,134.641L-12.788,134.625L-12.788,134.618L-12.792,134.608L-12.794,134.6L-12.799,134.59L-12.801,134.584L-12.812,134.573L-12.814,134.568L-12.815,134.555L-12.819,134.545L-12.821,134.531L-12.818,134.51L-12.822,134.495L-12.83,134.472L-12.836,134.453L-12.836,134.444L-12.834,134.435L-12.828,134.425L-12.827,134.415L-12.827,134.407L-12.829,134.394L-12.831,134.381L-12.833,134.375L-12.833,134.368L-12.831,134.361L-12.829,134.356L-12.818,134.349L-12.812,134.348L-12.809,134.347L-12.807,134.346L-12.804,134.347L-12.802,134.349L-12.794,134.35L-12.784,134.355L-12.778,134.353L-12.767,134.346L-12.765,134.342L-12.763,134.338L-12.762,134.333L-12.76,134.33L-12.746,134.323L-12.74,134.322L-12.735,134.322L-12.729,134.324L-12.723,134.329L-12.719,134.334L-12.717,134.344L-12.708,134.352L-12.69,134.365L-12.684,134.369L-12.673,134.375L-12.658,134.381L-12.641,134.386L-12.634,134.386L-12.63,134.393L-12.627,134.399L-12.625,134.403L-12.622,134.404L-12.608,134.406L-12.595,134.407L-12.589,134.41L-12.579,134.421L-12.575,134.423L-12.565,134.422L-12.554,134.422L-12.552,134.421L-12.54,134.41L-12.536,134.406L-12.534,134.401L-12.532,134.397L-12.531,134.394L-12.531,134.392L-12.53,134.389L-12.527,134.387L-12.511,134.387L-12.507,134.386L-12.501,134.38L-12.494,134.372L-12.491,134.366L-12.485,134.358L-12.469,134.351L-12.462,134.347L-12.452,134.347L-12.438,134.345L-12.424,134.342L-12.411,134.333L-12.399,134.323L-12.393,134.309L-12.39,134.299L-12.391,134.287L-12.397,134.272L-12.4,134.262L-12.407,134.259L-12.408,134.254L-12.407,134.249L-12.406,134.246L-12.406,134.24L-12.403,134.236L-12.387,134.225L-12.378,134.219L-12.375,134.216L-12.373,134.212L-12.37,134.204L-12.368,134.2L-12.367,134.191L-12.364,134.186L-12.359,134.182L-12.353,134.18L-12.345,134.18L-12.347,134.185L-12.347,134.189L-12.343,134.195L-12.337,134.197L-12.322,134.198L-12.317,134.197L-12.312,134.193L-12.31,134.189L-12.31,134.184L-12.31,134.179L-12.311,134.174L-12.313,134.17L-12.314,134.165L-12.32,134.162L-12.326,134.16L-12.331,134.16L-12.335,134.162L-12.342,134.169L-12.343,134.155L-12.348,134.155L-12.353,134.15L-12.355,134.143L-12.355,134.137L-12.352,134.136L-12.344,134.139L-12.328,134.145L-12.32,134.146L-12.313,134.144L-12.302,134.137L-12.292,134.13L-12.284,134.127L-12.275,134.126L-12.267,134.128L-12.263,134.133L-12.249,134.136L-12.234,134.14L-12.227,134.147L-12.214,134.156L-12.194,134.168L-12.18,134.179L-12.174,134.185L-12.163,134.197L-12.154,134.202L-12.136,134.214L-12.125,134.218L-12.116,134.22L-12.111,134.217L-12.088,134.204L-12.066,134.189L-12.047,134.172L-12.028,134.151L-12.02,134.139L-12.017,134.134L-12.019,134.127L-12.023,134.12L-12.029,134.113L-12.035,134.109L-12.039,134.105L-12.047,134.099L-12.05,134.094L-12.057,134.084L-12.063,134.079L-12.065,134.074L-12.065,134.069L-12.061,134.065L-12.055,134.056L-12.055,134.045L-12.058,134.026L-12.067,134.008L-12.08,133.987L-12.09,133.974L-12.095,133.959L-12.101,133.946L-12.105,133.938L-12.112,133.93L-12.112,133.922L-12.117,133.909L-12.123,133.887L-12.123,133.873L-12.12,133.865L-12.122,133.86L-12.132,133.841L-12.136,133.828L-12.14,133.82L-12.144,133.811L-12.149,133.806L-12.151,133.801L-12.152,133.795L-12.151,133.788L-12.148,133.782L-12.141,133.774L-12.138,133.765L-12.137,133.756L-12.137,133.749L-12.14,133.741L-12.143,133.736L-12.148,133.73L-12.15,133.726L-12.147,133.716L-12.149,133.709L-12.145,133.696L-12.14,133.694L-12.138,133.694L-12.125,133.702L-12.122,133.71L-12.118,133.715L-12.115,133.72L-12.116,133.725L-12.116,133.73L-12.114,133.732L-12.112,133.728L-12.108,133.725L-12.104,133.723L-12.1,133.721L-12.097,133.717L-12.096,133.714L-12.096,133.707L-12.099,133.7L-12.1,133.692L-12.101,133.686L-12.098,133.678L-12.093,133.671L-12.086,133.663L-12.081,133.658L-12.075,133.655L-12.07,133.654L-12.07,133.651L-12.073,133.644L-12.072,133.633L-12.071,133.627L-12.073,133.62L-12.082,133.616L-12.094,133.616L-12.128,133.618L-12.137,133.619L-12.148,133.62L-12.151,133.615L-12.152,133.608L-12.157,133.599L-12.163,133.577L-12.169,133.562L-12.172,133.549L-12.17,133.542L-12.172,133.536L-12.174,133.531L-12.179,133.525L-12.187,133.52L-12.196,133.512L-12.208,133.505L-12.213,133.501L-12.216,133.49L-12.22,133.485L-12.223,133.477L-12.228,133.468L-12.234,133.458L-12.241,133.448L-12.253,133.436L-12.27,133.421L-12.289,133.399L-12.291,133.389L-12.293,133.378L-12.295,133.368L-12.302,133.357L-12.307,133.351L-12.312,133.346L-12.313,133.343L-12.311,133.338L-12.318,133.329L-12.326,133.314L-12.338,133.301L-12.341,133.291L-12.346,133.284L-12.352,133.28L-12.354,133.275L-12.356,133.268L-12.359,133.262L-12.365,133.256L-12.375,133.248L-12.392,133.233L-12.418,133.219L-12.429,133.21L-12.437,133.2L-12.444,133.2L-12.453,133.202L-12.457,133.2L-12.459,133.192L-12.463,133.169L-12.464,133.156L-12.466,133.142L-12.469,133.133L-12.471,133.127L-12.472,133.12L-12.467,133.111L-12.469,133.094L-12.468,133.087L-12.467,133.081L-12.465,133.078L-12.463,133.076L-12.457,133.073L-12.451,133.069L-12.449,133.068L-12.449,133.07L-12.451,133.073L-12.453,133.075L-12.453,133.078L-12.451,133.081L-12.448,133.081L-12.444,133.08L-12.439,133.073L-12.438,133.067L-12.433,133.062L-12.433,133.058L-12.432,133.054L-12.431,133.052L-12.429,133.05L-12.428,133.047L-12.427,133.041L-12.425,133.035L-12.424,133.031L-12.423,133.027L-12.423,133.022L-12.425,133.011L-12.426,132.997L-12.428,132.987L-12.432,132.983L-12.433,132.977L-12.432,132.971L-12.431,132.968L-12.43,132.96L-12.426,132.95L-12.423,132.946L-12.423,132.942L-12.426,132.933L-12.429,132.926L-12.426,132.924L-12.424,132.92L-12.424,132.914L-12.427,132.908L-12.429,132.898L-12.428,132.882L-12.429,132.873L-12.431,132.867L-12.434,132.861L-12.437,132.851L-12.44,132.835L-12.441,132.829L-12.443,132.825L-12.45,132.82L-12.457,132.813L-12.461,132.807L-12.471,132.799L-12.475,132.785L-12.479,132.777L-12.481,132.771L-12.484,132.764L-12.485,132.756L-12.483,132.746L-12.477,132.732L-12.471,132.719L-12.465,132.702L-12.462,132.687L-12.466,132.676L-12.469,132.674L-12.471,132.67L-12.473,132.664L-12.477,132.66L-12.483,132.658L-12.489,132.658L-12.493,132.658L-12.495,132.655L-12.498,132.654L-12.502,132.653L-12.503,132.649L-12.503,132.641L-12.505,132.637L-12.505,132.633L-12.504,132.63L-12.506,132.629L-12.509,132.629L-12.512,132.627L-12.512,132.623L-12.51,132.621L-12.511,132.62L-12.52,132.617L-12.513,132.616L-12.503,132.611L-12.486,132.608L-12.481,132.607L-12.474,132.611L-12.459,132.61L-12.453,132.604L-12.442,132.604L-12.431,132.606L-12.419,132.616L-12.415,132.617L-12.408,132.618L-12.391,132.612L-12.378,132.607L-12.37,132.608L-12.366,132.611L-12.355,132.622L-12.35,132.623L-12.346,132.622L-12.351,132.615L-12.359,132.605L-12.365,132.596L-12.369,132.593L-12.376,132.589L-12.387,132.58L-12.398,132.574L-12.406,132.568L-12.415,132.557L-12.425,132.549L-12.433,132.535L-12.437,132.527L-12.442,132.522L-12.443,132.52L-12.444,132.517L-12.443,132.514L-12.439,132.509L-12.44,132.5L-12.442,132.497L-12.443,132.488L-12.444,132.476L-12.446,132.465L-12.451,132.45L-12.457,132.437L-12.46,132.433L-12.464,132.43L-12.47,132.423L-12.474,132.422L-12.479,132.415L-12.479,132.407L-12.48,132.403L-12.483,132.398L-12.486,132.396L-12.486,132.389L-12.485,132.381L-12.489,132.378L-12.491,132.37L-12.491,132.367L-12.493,132.365L-12.494,132.361L-12.494,132.353L-12.493,132.348L-12.493,132.341L-12.492,132.335L-12.497,132.332L-12.51,132.324L-12.515,132.322L-12.518,132.316L-12.523,132.314L-12.531,132.311L-12.535,132.307L-12.529,132.297L-12.529,132.293L-12.531,132.289L-12.534,132.288L-12.534,132.284L-12.537,132.278L-12.537,132.274L-12.535,132.269L-12.532,132.265L-12.528,132.265L-12.525,132.264L-12.524,132.26L-12.521,132.249L-12.515,132.245L-12.507,132.243L-12.497,132.242L-12.486,132.24L-12.477,132.236L-12.471,132.231L-12.468,132.226L-12.466,132.222L-12.465,132.217L-12.458,132.215L-12.454,132.213L-12.449,132.209L-12.446,132.202L-12.442,132.196L-12.438,132.192L-12.437,132.186L-12.437,132.181L-12.432,132.175L-12.43,132.172L-12.427,132.164L-12.424,132.158L-12.42,132.154L-12.417,132.151L-12.416,132.146L-12.417,132.141L-12.417,132.135L-12.429,132.134L-12.436,132.135L-12.436,132.129L-12.443,132.129L-12.447,132.14L-12.451,132.145L-12.454,132.147L-12.465,132.152L-12.474,132.158L-12.478,132.161L-12.488,132.177L-12.493,132.181L-12.497,132.183L-12.502,132.183L-12.507,132.18L-12.512,132.174L-12.521,132.161L-12.528,132.154L-12.538,132.151L-12.547,132.151L-12.557,132.15L-12.566,132.146L-12.576,132.139L-12.584,132.132L-12.592,132.128L-12.6,132.121L-12.618,132.109L-12.63,132.102L-12.635,132.098L-12.637,132.089L-12.636,132.081L-12.635,132.071L-12.638,132.061L-12.64,132.051L-12.642,132.045L-12.648,132.038L-12.653,132.031L-12.661,132.023L-12.667,132.011L-12.677,132.001L-12.689,131.978L-12.699,131.968L-12.711,131.955L-12.718,131.948L-12.724,131.946L-12.735,131.944L-12.746,131.939L-12.75,131.932L-12.753,131.933L-12.758,131.938L-12.763,131.94L-12.778,131.94L-12.797,131.94L-12.807,131.936L-12.814,131.936L-12.817,131.938L-12.819,131.941L-12.82,131.948L-12.82,131.967L-12.813,131.987L-12.812,131.995L-12.809,132.003L-12.802,132.013L-12.793,132.024L-12.784,132.034L-12.781,132.041L-12.78,132.054L-12.778,132.066L-12.776,132.078L-12.774,132.086L-12.775,132.092L-12.774,132.119L-12.776,132.121L-12.785,132.123L-12.794,132.125L-12.815,132.122L-12.822,132.117L-12.827,132.114L-12.832,132.116L-12.833,132.122L-12.837,132.129L-12.845,132.139L-12.851,132.146L-12.857,132.151L-12.866,132.153L-12.874,132.154L-12.898,132.157L-12.92,132.157L-12.93,132.158L-12.938,132.153L-12.942,132.145L-12.945,132.138L-12.951,132.12L-12.957,132.099L-12.961,132.089L-12.965,132.085L-12.97,132.082L-12.971,132.08L-12.971,132.073L-12.973,132.064L-12.971,132.057L-12.964,132.049L-12.964,132.042L-12.966,132.034L-12.969,132.028L-12.978,132.024L-12.994,132.021L-13.008,132.022L-13.02,132.024L-13.02,132.02L-13.024,132.02L-13.028,132.027L-13.031,132.029L-13.038,132.03L-13.043,132.033L-13.059,132.044L-13.065,132.053L-13.066,132.058L-13.065,132.066L-13.055,132.076L-13.054,132.083L-13.056,132.088L-13.059,132.095L-13.062,132.097L-13.061,132.091L-13.069,132.091L-13.073,132.09L-13.076,132.087L-13.079,132.086L-13.081,132.089L-13.086,132.095L-13.089,132.101L-13.095,132.123L-13.095,132.13L-13.092,132.134L-13.078,132.144L-13.055,132.157L-13.051,132.16L-13.048,132.166L-13.047,132.174L-13.047,132.179L-13.048,132.183L-13.048,132.199L-13.05,132.206L-13.054,132.21L-13.06,132.209L-13.065,132.21L-13.068,132.206L-13.083,132.203L-13.089,132.201L-13.094,132.199L-13.095,132.196L-13.094,132.191L-13.101,132.181L-13.107,132.177L-13.114,132.176L-13.124,132.177L-13.13,132.18L-13.133,132.184L-13.136,132.189L-13.139,132.196L-13.142,132.202L-13.149,132.213L-13.152,132.217L-13.153,132.221L-13.154,132.226L-13.154,132.231L-13.156,132.233L-13.159,132.234L-13.149,132.242L-13.144,132.245L-13.137,132.247L-13.132,132.252L-13.129,132.259L-13.126,132.269L-13.125,132.275L-13.119,132.293L-13.114,132.306L-13.107,132.322L-13.106,132.329L-13.103,132.336L-13.102,132.344L-13.104,132.349L-13.113,132.356L-13.115,132.359L-13.117,132.361L-13.123,132.36L-13.125,132.361L-13.127,132.367L-13.132,132.37L-13.137,132.371L-13.143,132.37L-13.151,132.369L-13.161,132.368L-13.165,132.364L-13.17,132.36L-13.177,132.357L-13.181,132.357L-13.187,132.359L-13.193,132.364L-13.202,132.369L-13.206,132.367L-13.209,132.367L-13.212,132.37L-13.211,132.377L-13.212,132.382L-13.218,132.391L-13.221,132.398L-13.222,132.413L-13.223,132.439L-13.225,132.442L-13.229,132.445L-13.232,132.45L-13.23,132.453L-13.23,132.457L-13.227,132.459L-13.218,132.462L-13.215,132.464L-13.212,132.469L-13.206,132.474L-13.204,132.486L-13.202,132.487L-13.196,132.5L-13.191,132.507L-13.187,132.509L-13.174,132.513L-13.152,132.52L-13.136,132.528L-13.134,132.526L-13.129,132.523L-13.125,132.52L-13.122,132.522L-13.121,132.525L-13.119,132.527L-13.109,132.53L-13.106,132.538L-13.093,132.543L-13.084,132.546L-13.074,132.549L-13.069,132.549L-13.064,132.55L-13.055,132.549L-13.049,132.547L-13.045,132.543L-13.039,132.54L-13.033,132.538L-13.03,132.538L-13.027,132.54L-13.025,132.543L-13.022,132.548L-13.02,132.553L-13.02,132.555L-13.024,132.561L-13.024,132.565L-13.027,132.571L-13.03,132.576L-13.032,132.581L-13.039,132.588L-13.039,132.594L-13.044,132.599L-13.044,132.607L-13.046,132.611L-13.049,132.613L-13.053,132.613L-13.058,132.62L-13.066,132.627L-13.071,132.628L-13.075,132.631L-13.077,132.63L-13.08,132.628L-13.083,132.627L-13.085,132.63L-13.095,132.63L-13.101,132.629L-13.115,132.631L-13.122,132.631L-13.128,132.629L-13.13,132.623L-13.131,132.606L-13.132,132.6L-13.135,132.595L-13.149,132.582L-13.162,132.576L-13.172,132.576L-13.174,132.578L-13.175,132.584L-13.179,132.593L-13.187,132.608L-13.19,132.614L-13.195,132.628L-13.206,132.643L-13.216,132.649L-13.219,132.653L-13.226,132.661L-13.227,132.668L-13.231,132.679L-13.231,132.681L-13.229,132.685L-13.22,132.69L-13.21,132.695L-13.208,132.695L-13.205,132.693L-13.203,132.693L-13.2,132.694L-13.196,132.696L-13.186,132.702L-13.177,132.714L-13.175,132.72L-13.172,132.722L-13.169,132.728L-13.17,132.737L-13.173,132.752L-13.178,132.749L-13.185,132.747L-13.189,132.741L-13.196,132.736L-13.201,132.735L-13.206,132.737L-13.211,132.746L-13.214,132.753L-13.216,132.758L-13.221,132.762L-13.219,132.767L-13.222,132.776L-13.226,132.782L-13.227,132.786L-13.227,132.792L-13.231,132.796L-13.232,132.799L-13.231,132.803L-13.228,132.809L-13.22,132.821L-13.219,132.826L-13.218,132.836L-13.22,132.843L-13.22,132.852L-13.217,132.861L-13.215,132.866L-13.214,132.874L-13.212,132.883L-13.209,132.886L-13.204,132.886L-13.201,132.891L-13.198,132.893L-13.185,132.887L-13.179,132.882L-13.172,132.88L-13.164,132.876L-13.164,132.881L-13.171,132.886L-13.178,132.893L-13.179,132.898L-13.185,132.901L-13.194,132.907L-13.196,132.91L-13.195,132.919L-13.193,132.925L-13.19,132.926L-13.188,132.929L-13.187,132.935L-13.191,132.937L-13.195,132.942L-13.196,132.944L-13.193,132.946L-13.194,132.951L-13.198,132.957L-13.199,132.966L-13.202,132.98L-13.201,132.984L-13.199,132.988L-13.193,132.996L-13.193,133.001L-13.193,133.005L-13.197,133.01L-13.202,133.012L-13.206,133.011L-13.208,133.008L-13.212,133.006L-13.213,133.008L-13.218,133.008L-13.222,133.007L-13.224,133.004L-13.227,133.002L-13.24,133.006L-13.257,133.011L-13.272,133.016L-13.282,133.016L-13.287,133.012L-13.291,133.011L-13.295,133.012L-13.299,133.015L-13.304,133.023L-13.306,133.034L-13.304,133.042L-13.297,133.059L-13.304,133.071L-13.305,133.081L-13.306,133.087L-13.305,133.092L-13.307,133.096L-13.308,133.1L-13.307,133.108L-13.309,133.112L-13.31,133.116L-13.308,133.126L-13.306,133.13L-13.303,133.132L-13.296,133.133L-13.292,133.138L-13.29,133.138L-13.287,133.136L-13.277,133.13L-13.268,133.129L-13.263,133.141L-13.26,133.151L-13.26,133.156L-13.26,133.162L-13.259,133.169L-13.26,133.176L-13.259,133.186L-13.258,133.191L-13.258,133.196L-13.258,133.2L-13.26,133.205L-13.262,133.22L-13.264,133.231L-13.274,133.24L-13.277,133.246L-13.281,133.248L-13.284,133.248L-13.288,133.244L-13.293,133.241L-13.297,133.24L-13.302,133.239L-13.306,133.24L-13.309,133.247L-13.312,133.263L-13.315,133.265L-13.318,133.264L-13.319,133.262L-13.319,133.26L-13.316,133.251L-13.316,133.244L-13.317,133.238L-13.318,133.235L-13.323,133.235L-13.326,133.236L-13.329,133.235L-13.331,133.231L-13.334,133.231L-13.336,133.234L-13.346,133.236L-13.352,133.241L-13.357,133.244L-13.369,133.25L-13.378,133.255L-13.385,133.262L-13.388,133.267L-13.391,133.274L-13.392,133.285L-13.392,133.298L-13.389,133.304L-13.389,133.325L-13.388,133.329L-13.391,133.335L-13.392,133.343L-13.392,133.355L-13.393,133.361L-13.397,133.366L-13.403,133.379L-13.406,133.389L-13.405,133.423L-13.402,133.441L-13.396,133.454L-13.393,133.472L-13.389,133.478L-13.387,133.482L-13.388,133.488L-13.384,133.496L-13.379,133.512L-13.377,133.528L-13.374,133.539L-13.374,133.548L-13.375,133.557L-13.375,133.562L-13.37,133.574L-13.365,133.585L-13.363,133.59L-13.363,133.595L-13.362,133.6L-13.36,133.606L-13.36,133.61L-13.355,133.626L-13.355,133.634L-13.355,133.649L-13.357,133.657L-13.364,133.664L-13.369,133.673L-13.374,133.676L-13.376,133.685L-13.385,133.697L-13.393,133.704L-13.395,133.708L-13.396,133.715L-13.395,133.722L-13.402,133.735L-13.409,133.745L-13.418,133.75L-13.427,133.756L-13.427,133.764L-13.424,133.77L-13.418,133.776L-13.418,133.779L-13.409,133.789L-13.405,133.796L-13.4,133.802L-13.395,133.815L-13.393,133.833L-13.393,133.858L-13.393,133.869L-13.391,133.873L-13.391,133.88L-13.394,133.886L-13.399,133.888L-13.407,133.894L-13.406,133.903L-13.404,133.909L-13.405,133.914L-13.41,133.915L-13.413,133.922L-13.417,133.926L-13.428,133.927L-13.432,133.934L-13.435,133.935L-13.438,133.933L-13.437,133.93L-13.437,133.928L-13.442,133.926L-13.447,133.922L-13.448,133.927L-13.45,133.927L-13.454,133.92L-13.456,133.92L-13.46,133.923L-13.462,133.918L-13.461,133.914L-13.462,133.912L-13.462,133.908L-13.464,133.907L-13.465,133.893L-13.47,133.889L-13.473,133.889L-13.496,133.896L-13.504,133.906L-13.513,133.919L-13.507,133.923L-13.504,133.926L-13.512,133.929L-13.516,133.929L-13.516,133.925L-13.516,133.922L-13.518,133.922L-13.52,133.924L-13.522,133.923L-13.522,133.92L-13.52,133.918L-13.522,133.914L-13.528,133.914L-13.532,133.907L-13.539,133.901L-13.546,133.898L-13.554,133.897L-13.573,133.896L-13.587,133.896L-13.594,133.894L-13.606,133.887L-13.621,133.881L-13.627,133.878L-13.635,133.871L-13.647,133.859L-13.654,133.854L-13.658,133.854L-13.659,133.859L-13.662,133.861L-13.667,133.862L-13.668,133.863L-13.668,133.865L-13.676,133.876L-13.683,133.878L-13.686,133.877L-13.688,133.875L-13.692,133.869L-13.696,133.867L-13.705,133.866L-13.707,133.864L-13.707,133.86L-13.705,133.859L-13.705,133.854L-13.708,133.853L-13.707,133.846L-13.707,133.842L-13.71,133.84L-13.716,133.843L-13.724,133.845L-13.729,133.85L-13.727,133.855L-13.726,133.862L-13.725,133.868L-13.724,133.877L-13.727,133.884L-13.726,133.889L-13.723,133.901L-13.719,133.912L-13.716,133.92L-13.716,133.928L-13.714,133.933L-13.715,133.936L-13.721,133.942L-13.721,133.945L-13.719,133.949L-13.716,133.951L-13.711,133.972L-13.706,133.988L-13.699,133.989L-13.696,133.993L-13.697,133.999L-13.701,134.007L-13.699,134.01L-13.692,134.011L-13.689,134.027L-13.688,134.042L-13.686,134.045L-13.688,134.053L-13.688,134.057L-13.686,134.062L-13.685,134.072L-13.683,134.077L-13.682,134.083L-13.683,134.088L-13.682,134.094L-13.685,134.097L-13.687,134.101L-13.691,134.109L-13.691,134.112L-13.688,134.115L-13.686,134.122L-13.683,134.13L-13.681,134.14L-13.681,134.147L-13.682,134.152L-13.682,134.157L-13.68,134.162L-13.675,134.164L-13.67,134.166L-13.665,134.165L-13.662,134.167L-13.661,134.172L-13.662,134.176L-13.655,134.183L-13.653,134.188L-13.653,134.196L-13.653,134.203L-13.65,134.209L-13.65,134.213L-13.649,134.221L-13.65,134.237L-13.644,134.251L-13.643,134.26L-13.643,134.268L-13.64,134.275L-13.636,134.286L-13.633,134.292L-13.631,134.29L-13.623,134.298L-13.619,134.304L-13.613,134.311L-13.609,134.316L-13.61,134.322L-13.615,134.322L-13.615,134.344L-13.609,134.349L-13.604,134.351L-13.595,134.351L-13.59,134.346L-13.584,134.343L-13.586,134.341L-13.586,134.339L-13.587,134.337L-13.587,134.333L-13.586,134.332L-13.583,134.332L-13.58,134.332L-13.58,134.338L-13.583,134.339L-13.582,134.342L-13.579,134.342L-13.578,134.344L-13.576,134.348L-13.575,134.353L-13.573,134.354L-13.572,134.357L-13.573,134.362L-13.578,134.368L-13.581,134.369L-13.586,134.364L-13.589,134.364L-13.592,134.364L-13.596,134.365L-13.597,134.366L-13.597,134.373L-13.596,134.38L-13.594,134.383L-13.592,134.386L-13.587,134.39L-13.582,134.395L-13.58,134.4L-13.577,134.405L-13.568,134.413L-13.56,134.421L-13.554,134.425L-13.548,134.429L-13.54,134.431L-13.533,134.436L-13.531,134.44L-13.512,134.453L-13.502,134.456L-13.495,134.46L-13.482,134.466L-13.479,134.467L-13.476,134.461L-13.472,134.459L-13.47,134.462L-13.468,134.466L-13.469,134.471L-13.464,134.473L-13.464,134.481L-13.469,134.482L-13.471,134.484L-13.474,134.484L-13.471,134.493L-13.468,134.501L-13.464,134.509L-13.462,134.519L-13.459,134.532L-13.458,134.546L-13.456,134.552L-13.453,134.557L-13.444,134.567L-13.441,134.569L-13.437,134.57L-13.434,134.577L-13.429,134.582L-13.415,134.592L-13.404,134.598L-13.396,134.601L-13.377,134.603L-13.363,134.601L-13.358,134.599L-13.354,134.599L-13.345,134.605L-13.334,134.613L-13.327,134.617L-13.309,134.617L-13.303,134.618L-13.3,134.621L-13.295,134.633L-13.284,134.646L-13.28,134.648L-13.27,134.65L-13.262,134.651L-13.26,134.652L-13.258,134.655L-13.253,134.663L-13.248,134.667L-13.247,134.671L-13.248,134.677L-13.246,134.68L-13.241,134.686L-13.24,134.691L-13.238,134.708L-13.241,134.716L-13.237,134.727L-13.226,134.737L-13.215,134.745L-13.207,134.754L-13.191,134.776L-13.178,134.789L-13.161,134.8L-13.141,134.809L-13.125,134.821L-13.113,134.837L-13.101,134.854L-13.095,134.863L-13.089,134.872L-13.082,134.877L-13.073,134.881L-13.064,134.884L-13.051,134.884L-13.038,134.881L-13.029,134.878L-13.025,134.869L-13.023,134.864L-13.021,134.861L-13.015,134.86L-13.002,134.865L-12.993,134.873L-12.986,134.876L-12.977,134.879L-12.967,134.884L-12.959,134.896L-12.957,134.905L-12.95,134.915L-12.942,134.918L-12.93,134.916L-12.913,134.908L-12.906,134.901ZM-13.372,134.216L-13.374,134.208L-13.377,134.206L-13.387,134.208L-13.387,134.21L-13.389,134.21L-13.393,134.207L-13.395,134.207L-13.398,134.21L-13.401,134.213L-13.408,134.212L-13.409,134.215L-13.419,134.213L-13.423,134.208L-13.423,134.205L-13.425,134.204L-13.425,134.202L-13.422,134.195L-13.42,134.192L-13.42,134.189L-13.422,134.189L-13.423,134.186L-13.42,134.184L-13.418,134.184L-13.417,134.186L-13.402,134.183L-13.397,134.181L-13.395,134.175L-13.392,134.172L-13.386,134.165L-13.384,134.16L-13.383,134.156L-13.385,134.15L-13.385,134.145L-13.383,134.138L-13.381,134.13L-13.377,134.119L-13.374,134.113L-13.374,134.106L-13.375,134.1L-13.376,134.096L-13.377,134.092L-13.377,134.088L-13.374,134.086L-13.37,134.086L-13.371,134.083L-13.37,134.077L-13.367,134.074L-13.362,134.073L-13.358,134.074L-13.355,134.081L-13.349,134.099L-13.346,134.109L-13.346,134.118L-13.348,134.122L-13.349,134.129L-13.351,134.134L-13.35,134.137L-13.352,134.142L-13.352,134.146L-13.352,134.15L-13.35,134.156L-13.35,134.164L-13.35,134.168L-13.345,134.183L-13.346,134.185L-13.346,134.191L-13.347,134.194L-13.353,134.196L-13.358,134.2L-13.359,134.203L-13.362,134.208L-13.365,134.21L-13.369,134.216L-13.372,134.216ZM-13.364,134.369L-13.366,134.361L-13.366,134.355L-13.368,134.353L-13.369,134.349L-13.37,134.341L-13.366,134.341L-13.363,134.342L-13.358,134.346L-13.352,134.352L-13.347,134.354L-13.344,134.357L-13.34,134.364L-13.335,134.369L-13.331,134.374L-13.329,134.376L-13.33,134.38L-13.326,134.384L-13.32,134.391L-13.316,134.394L-13.314,134.398L-13.309,134.404L-13.303,134.412L-13.301,134.423L-13.303,134.428L-13.306,134.427L-13.314,134.422L-13.319,134.419L-13.327,134.417L-13.332,134.411L-13.336,134.408L-13.339,134.403L-13.342,134.4L-13.349,134.39L-13.354,134.386L-13.36,134.379L-13.364,134.369ZM-13.548,134.292L-13.553,134.29L-13.555,134.287L-13.552,134.282L-13.544,134.282L-13.541,134.28L-13.533,134.282L-13.527,134.282L-13.526,134.285L-13.527,134.289L-13.526,134.29L-13.522,134.291L-13.521,134.293L-13.529,134.294L-13.531,134.296L-13.535,134.29L-13.538,134.291L-13.538,134.294L-13.539,134.297L-13.542,134.3L-13.543,134.301L-13.547,134.301L-13.547,134.298L-13.545,134.296L-13.545,134.294L-13.548,134.292ZM-13.082,132.524L-13.084,132.521L-13.089,132.518L-13.094,132.515L-13.095,132.513L-13.095,132.509L-13.092,132.506L-13.089,132.505L-13.091,132.504L-13.093,132.502L-13.089,132.498L-13.085,132.496L-13.079,132.503L-13.082,132.507L-13.083,132.511L-13.085,132.512L-13.085,132.514L-13.079,132.519L-13.077,132.524L-13.082,132.524ZM-13.181,132.763L-13.18,132.76L-13.172,132.761L-13.167,132.761L-13.165,132.763L-13.165,132.767L-13.161,132.771L-13.157,132.775L-13.163,132.775L-13.169,132.775L-13.173,132.776L-13.177,132.77L-13.177,132.767L-13.179,132.765L-13.181,132.763ZM-13.363,134.027L-13.359,134.025L-13.357,134.027L-13.355,134.03L-13.353,134.039L-13.353,134.047L-13.353,134.05L-13.356,134.051L-13.36,134.043L-13.363,134.039L-13.364,134.031L-13.363,134.027ZM-13.414,133.945L-13.412,133.944L-13.41,133.949L-13.407,133.95L-13.407,133.951L-13.404,133.953L-13.405,133.959L-13.411,133.959L-13.413,133.962L-13.415,133.962L-13.416,133.959L-13.419,133.957L-13.421,133.952L-13.422,133.951L-13.419,133.949L-13.414,133.948L-13.414,133.945ZM-12.469,133.25L-12.467,133.246L-12.468,133.242L-12.466,133.239L-12.464,133.239L-12.464,133.243L-12.461,133.245L-12.458,133.246L-12.459,133.25L-12.463,133.248L-12.466,133.248L-12.467,133.252L-12.469,133.25ZM-13.1,132.53L-13.103,132.528L-13.104,132.523L-13.099,132.526L-13.098,132.523L-13.095,132.522L-13.094,132.526L-13.095,132.528L-13.094,132.53L-13.093,132.534L-13.1,132.53ZM-13.143,132.727L-13.139,132.723L-13.137,132.725L-13.132,132.726L-13.132,132.728L-13.133,132.73L-13.138,132.73L-13.141,132.729L-13.143,132.727ZM-13.152,132.71L-13.148,132.709L-13.147,132.71L-13.147,132.714L-13.152,132.71Z" style="fill:rgb(36,121,200);"/>
    </g>
    <g transform="matrix(1.39967,0,0,1.39967,-1157.66,-1561.27)">
        <circle cx="939.479" cy="1127.75" r="11.724" style="fill:rgb(255,118,0);"/>
    </g>
</svg>
