<?xml version="1.0" encoding="UTF-8" standalone="no"?>
<!DOCTYPE svg PUBLIC "-//W3C//DTD SVG 1.1//EN" "http://www.w3.org/Graphics/SVG/1.1/DTD/svg11.dtd">
<svg width="100%" height="100%" viewBox="0 0 1500 1500" version="1.1" xmlns="http://www.w3.org/2000/svg" xmlns:xlink="http://www.w3.org/1999/xlink" xml:space="preserve" xmlns:serif="http://www.serif.com/" style="fill-rule:evenodd;clip-rule:evenodd;stroke-linejoin:round;stroke-miterlimit:2;">
    <g transform="matrix(385.911,0,0,-385.911,3782.8,53121.2)">
        <path d="M-7.306,137.508L-7.288,137.49L-7.28,137.484L-7.269,137.481L-7.259,137.477L-7.25,137.471L-7.243,137.469L-7.238,137.462L-7.233,137.453L-7.228,137.443L-7.225,137.433L-7.222,137.424L-7.219,137.423L-7.205,137.422L-7.197,137.421L-7.191,137.418L-7.172,137.416L-7.166,137.406L-7.165,137.397L-7.16,137.391L-7.154,137.385L-7.15,137.377L-7.143,137.372L-7.138,137.362L-7.132,137.355L-7.124,137.347L-7.115,137.344L-7.105,137.346L-7.099,137.349L-7.081,137.347L-7.066,137.341L-7.057,137.339L-7.042,137.339L-7.029,137.345L-7.023,137.344L-7.012,137.335L-7.003,137.328L-6.992,137.318L-6.985,137.309L-6.978,137.304L-6.965,137.302L-6.957,137.299L-6.948,137.295L-6.935,137.296L-6.932,137.298L-6.919,137.296L-6.911,137.295L-6.902,137.297L-6.897,137.299L-6.883,137.301L-6.878,137.303L-6.876,137.309L-6.855,137.33L-6.852,137.339L-6.848,137.346L-6.847,137.355L-6.844,137.36L-6.843,137.369L-6.841,137.379L-6.833,137.387L-6.822,137.398L-6.81,137.4L-6.796,137.401L-6.784,137.397L-6.777,137.388L-6.769,137.38L-6.768,137.373L-6.764,137.369L-6.756,137.362L-6.753,137.355L-6.744,137.342L-6.743,137.329L-6.743,137.312L-6.738,137.304L-6.728,137.296L-6.724,137.289L-6.719,137.283L-6.711,137.281L-6.703,137.279L-6.699,137.274L-6.688,137.276L-6.682,137.274L-6.666,137.276L-6.649,137.277L-6.636,137.281L-6.619,137.282L-6.604,137.28L-6.594,137.28L-6.592,137.274L-6.584,137.268L-6.581,137.26L-6.574,137.254L-6.57,137.239L-6.566,137.234L-6.563,137.228L-6.559,137.219L-6.558,137.211L-6.559,137.202L-6.565,137.197L-6.57,137.188L-6.575,137.171L-6.583,137.162L-6.593,137.154L-6.597,137.142L-6.618,137.127L-6.627,137.115L-6.645,137.098L-6.66,137.084L-6.693,137.055L-6.708,137.045L-6.723,137.032L-6.737,137.009L-6.74,136.997L-6.75,136.99L-6.764,136.978L-6.776,136.962L-6.786,136.947L-6.807,136.908L-6.81,136.89L-6.81,136.876L-6.813,136.868L-6.813,136.855L-6.812,136.811L-6.813,136.795L-6.815,136.786L-6.814,136.765L-6.812,136.744L-6.816,136.729L-6.822,136.713L-6.832,136.701L-6.845,136.689L-6.861,136.686L-6.877,136.684L-6.89,136.679L-6.899,136.67L-6.901,136.66L-6.898,136.648L-6.895,136.636L-6.896,136.619L-6.895,136.605L-6.886,136.593L-6.884,136.582L-6.877,136.58L-6.869,136.576L-6.861,136.566L-6.855,136.55L-6.848,136.539L-6.838,136.527L-6.824,136.519L-6.811,136.514L-6.8,136.513L-6.786,136.516L-6.774,136.521L-6.762,136.526L-6.75,136.525L-6.728,136.516L-6.702,136.5L-6.682,136.488L-6.66,136.469L-6.642,136.45L-6.628,136.427L-6.626,136.412L-6.624,136.398L-6.616,136.385L-6.612,136.375L-6.612,136.364L-6.615,136.346L-6.623,136.323L-6.636,136.305L-6.666,136.283L-6.681,136.278L-6.693,136.278L-6.7,136.275L-6.714,136.269L-6.73,136.268L-6.747,136.271L-6.763,136.276L-6.775,136.283L-6.797,136.296L-6.821,136.307L-6.827,136.311L-6.831,136.316L-6.837,136.321L-6.842,136.325L-6.848,136.333L-6.851,136.355L-6.849,136.374L-6.849,136.383L-6.852,136.401L-6.862,136.429L-6.864,136.445L-6.865,136.454L-6.861,136.463L-6.861,136.467L-6.863,136.47L-6.866,136.47L-6.871,136.465L-6.876,136.458L-6.881,136.454L-6.885,136.456L-6.886,136.453L-6.889,136.439L-6.895,136.418L-6.897,136.407L-6.899,136.397L-6.903,136.391L-6.909,136.387L-6.914,136.382L-6.918,136.375L-6.928,136.373L-6.95,136.372L-6.96,136.377L-6.963,136.383L-6.964,136.386L-6.966,136.387L-6.97,136.386L-6.973,136.38L-7.003,136.358L-7.01,136.345L-7.013,136.328L-7.021,136.316L-7.032,136.299L-7.035,136.296L-7.037,136.29L-7.035,136.284L-7.029,136.276L-7.027,136.266L-7.027,136.257L-7.029,136.247L-7.028,136.239L-7.032,136.225L-7.049,136.194L-7.068,136.164L-7.075,136.143L-7.09,136.115L-7.09,136.11L-7.088,136.105L-7.092,136.093L-7.099,136.073L-7.109,136.06L-7.119,136.045L-7.126,136.031L-7.135,136.011L-7.144,135.997L-7.154,135.989L-7.166,135.979L-7.172,135.967L-7.174,135.955L-7.172,135.937L-7.175,135.926L-7.178,135.917L-7.178,135.903L-7.175,135.893L-7.171,135.875L-7.177,135.833L-7.18,135.822L-7.184,135.82L-7.19,135.821L-7.195,135.814L-7.2,135.8L-7.204,135.794L-7.216,135.782L-7.226,135.777L-7.237,135.776L-7.243,135.779L-7.254,135.779L-7.261,135.778L-7.267,135.783L-7.269,135.786L-7.273,135.79L-7.276,135.786L-7.283,135.764L-7.286,135.753L-7.284,135.751L-7.279,135.752L-7.273,135.748L-7.271,135.742L-7.269,135.737L-7.262,135.738L-7.256,135.737L-7.251,135.729L-7.25,135.723L-7.249,135.716L-7.243,135.714L-7.242,135.705L-7.246,135.691L-7.249,135.667L-7.249,135.654L-7.245,135.652L-7.241,135.647L-7.243,135.638L-7.241,135.632L-7.235,135.631L-7.224,135.631L-7.209,135.63L-7.204,135.633L-7.2,135.638L-7.193,135.637L-7.18,135.636L-7.161,135.644L-7.152,135.655L-7.143,135.658L-7.133,135.666L-7.124,135.68L-7.119,135.692L-7.117,135.702L-7.111,135.705L-7.103,135.708L-7.091,135.707L-7.078,135.7L-7.074,135.692L-7.071,135.687L-7.068,135.686L-7.063,135.687L-7.058,135.684L-7.055,135.682L-7.043,135.67L-7.033,135.653L-7.031,135.639L-7.029,135.618L-7.03,135.593L-7.029,135.574L-7.027,135.566L-7.02,135.562L-7.01,135.554L-6.999,135.544L-6.982,135.533L-6.968,135.519L-6.96,135.507L-6.952,135.491L-6.945,135.476L-6.932,135.46L-6.918,135.445L-6.907,135.433L-6.904,135.419L-6.897,135.405L-6.889,135.388L-6.886,135.368L-6.889,135.344L-6.896,135.317L-6.904,135.291L-6.914,135.289L-6.916,135.287L-6.926,135.239L-6.93,135.215L-6.928,135.193L-6.922,135.174L-6.914,135.161L-6.903,135.153L-6.886,135.143L-6.877,135.131L-6.872,135.117L-6.87,135.105L-6.865,135.101L-6.858,135.099L-6.854,135.094L-6.858,135.088L-6.867,135.078L-6.875,135.058L-6.881,135.032L-6.888,135.019L-6.907,134.997L-6.923,134.977L-6.938,134.959L-6.949,134.941L-6.953,134.937L-6.957,134.94L-6.964,134.939L-6.966,134.932L-6.964,134.921L-6.962,134.903L-6.974,134.877L-6.979,134.86L-6.979,134.845L-6.977,134.819L-6.978,134.797L-6.974,134.776L-6.972,134.766L-6.967,134.762L-6.946,134.764L-6.939,134.765L-6.934,134.767L-6.928,134.773L-6.92,134.775L-6.911,134.775L-6.912,134.778L-6.907,134.781L-6.897,134.783L-6.886,134.784L-6.864,134.791L-6.855,134.795L-6.844,134.804L-6.833,134.811L-6.828,134.812L-6.824,134.814L-6.816,134.814L-6.804,134.808L-6.788,134.795L-6.776,134.778L-6.772,134.765L-6.768,134.748L-6.766,134.731L-6.769,134.708L-6.77,134.69L-6.768,134.681L-6.762,134.673L-6.754,134.662L-6.74,134.652L-6.731,134.648L-6.724,134.649L-6.718,134.65L-6.714,134.652L-6.712,134.655L-6.698,134.655L-6.678,134.653L-6.668,134.655L-6.658,134.655L-6.644,134.652L-6.635,134.644L-6.623,134.631L-6.614,134.626L-6.603,134.622L-6.597,134.615L-6.594,134.606L-6.594,134.591L-6.592,134.587L-6.585,134.583L-6.578,134.575L-6.574,134.57L-6.568,134.568L-6.559,134.565L-6.553,134.562L-6.546,134.56L-6.541,134.558L-6.54,134.562L-6.54,134.564L-6.537,134.565L-6.532,134.563L-6.534,134.559L-6.535,134.555L-6.531,134.551L-6.519,134.546L-6.511,134.541L-6.509,134.533L-6.509,134.516L-6.51,134.506L-6.513,134.503L-6.513,134.498L-6.504,134.494L-6.5,134.488L-6.494,134.482L-6.483,134.478L-6.478,134.474L-6.469,134.472L-6.459,134.474L-6.448,134.472L-6.444,134.473L-6.439,134.468L-6.435,134.46L-6.435,134.444L-6.44,134.426L-6.45,134.417L-6.456,134.415L-6.468,134.414L-6.478,134.417L-6.492,134.423L-6.503,134.424L-6.52,134.421L-6.541,134.416L-6.555,134.415L-6.568,134.41L-6.583,134.409L-6.589,134.41L-6.592,134.41L-6.593,134.414L-6.593,134.416L-6.596,134.417L-6.599,134.419L-6.603,134.418L-6.603,134.414L-6.602,134.411L-6.597,134.411L-6.596,134.404L-6.598,134.4L-6.596,134.39L-6.589,134.379L-6.58,134.368L-6.574,134.362L-6.575,134.356L-6.581,134.341L-6.587,134.334L-6.597,134.312L-6.604,134.286L-6.612,134.265L-6.62,134.252L-6.627,134.248L-6.631,134.244L-6.633,134.234L-6.637,134.23L-6.641,134.23L-6.646,134.234L-6.655,134.239L-6.662,134.24L-6.668,134.238L-6.669,134.235L-6.661,134.228L-6.658,134.215L-6.658,134.207L-6.66,134.204L-6.659,134.202L-6.655,134.199L-6.652,134.195L-6.653,134.189L-6.656,134.183L-6.674,134.178L-6.683,134.175L-6.687,134.169L-6.688,134.159L-6.688,134.154L-6.692,134.145L-6.696,134.141L-6.694,134.138L-6.689,134.139L-6.689,134.134L-6.693,134.131L-6.7,134.131L-6.702,134.132L-6.704,134.134L-6.701,134.139L-6.701,134.145L-6.702,134.151L-6.709,134.162L-6.71,134.168L-6.713,134.173L-6.712,134.181L-6.71,134.186L-6.712,134.192L-6.712,134.196L-6.71,134.203L-6.709,134.209L-6.711,134.215L-6.716,134.22L-6.724,134.221L-6.733,134.22L-6.745,134.208L-6.749,134.207L-6.752,134.209L-6.751,134.215L-6.752,134.219L-6.759,134.225L-6.771,134.232L-6.774,134.232L-6.776,134.232L-6.775,134.235L-6.769,134.242L-6.766,134.25L-6.765,134.264L-6.764,134.281L-6.767,134.299L-6.769,134.319L-6.772,134.331L-6.775,134.34L-6.784,134.347L-6.804,134.358L-6.81,134.361L-6.817,134.362L-6.825,134.361L-6.839,134.356L-6.85,134.35L-6.864,134.332L-6.875,134.313L-6.886,134.292L-6.887,134.289L-6.893,134.291L-6.9,134.297L-6.909,134.298L-6.912,134.301L-6.911,134.311L-6.911,134.325L-6.91,134.335L-6.912,134.338L-6.922,134.339L-6.933,134.34L-6.945,134.34L-6.945,134.345L-6.946,134.347L-6.951,134.348L-6.958,134.346L-6.965,134.342L-6.968,134.336L-6.968,134.326L-6.966,134.315L-6.965,134.301L-6.972,134.269L-6.975,134.243L-6.973,134.222L-6.972,134.205L-6.973,134.196L-6.978,134.19L-6.981,134.185L-6.987,134.189L-6.992,134.186L-6.994,134.175L-7.005,134.157L-7.008,134.148L-7.007,134.142L-6.999,134.137L-6.982,134.132L-6.969,134.122L-6.954,134.106L-6.945,134.096L-6.933,134.075L-6.929,134.059L-6.925,134.043L-6.923,134.023L-6.924,134.001L-6.927,133.99L-6.937,133.976L-6.943,133.968L-6.95,133.964L-6.957,133.962L-6.963,133.959L-6.973,133.961L-6.982,133.967L-6.985,133.97L-6.993,133.973L-7.002,133.973L-7.018,133.961L-7.024,133.955L-7.026,133.948L-7.033,133.945L-7.041,133.943L-7.048,133.943L-7.052,133.946L-7.051,133.948L-7.051,133.95L-7.052,133.951L-7.061,133.951L-7.067,133.948L-7.076,133.923L-7.077,133.908L-7.076,133.889L-7.077,133.866L-7.083,133.855L-7.088,133.844L-7.093,133.837L-7.098,133.832L-7.1,133.834L-7.098,133.841L-7.094,133.845L-7.094,133.848L-7.099,133.848L-7.112,133.847L-7.117,133.848L-7.119,133.844L-7.115,133.837L-7.114,133.833L-7.119,133.833L-7.123,133.839L-7.124,133.849L-7.131,133.858L-7.14,133.867L-7.15,133.873L-7.161,133.874L-7.166,133.869L-7.175,133.868L-7.183,133.873L-7.193,133.876L-7.202,133.874L-7.211,133.869L-7.22,133.858L-7.225,133.844L-7.228,133.828L-7.234,133.814L-7.237,133.811L-7.244,133.811L-7.251,133.817L-7.255,133.822L-7.255,133.827L-7.257,133.826L-7.259,133.823L-7.262,133.822L-7.262,133.819L-7.259,133.816L-7.255,133.808L-7.254,133.802L-7.256,133.795L-7.26,133.788L-7.262,133.775L-7.263,133.772L-7.264,133.775L-7.266,133.786L-7.265,133.791L-7.261,133.794L-7.259,133.796L-7.258,133.802L-7.258,133.807L-7.262,133.811L-7.268,133.819L-7.267,133.825L-7.264,133.831L-7.265,133.838L-7.272,133.85L-7.27,133.854L-7.269,133.859L-7.265,133.867L-7.256,133.875L-7.256,133.881L-7.257,133.887L-7.257,133.892L-7.256,133.895L-7.258,133.9L-7.264,133.906L-7.268,133.908L-7.274,133.906L-7.279,133.9L-7.288,133.897L-7.298,133.897L-7.314,133.901L-7.323,133.905L-7.33,133.909L-7.335,133.915L-7.342,133.939L-7.346,133.963L-7.349,133.981L-7.354,133.996L-7.355,134.01L-7.348,134.027L-7.342,134.041L-7.337,134.044L-7.331,134.05L-7.328,134.058L-7.33,134.062L-7.332,134.07L-7.339,134.075L-7.347,134.075L-7.36,134.068L-7.367,134.062L-7.376,134.05L-7.385,134.047L-7.404,134.047L-7.413,134.044L-7.421,134.04L-7.425,134.031L-7.428,134.021L-7.431,134.019L-7.458,134.032L-7.463,134.036L-7.472,134.04L-7.485,134.042L-7.488,134.044L-7.494,134.046L-7.497,134.043L-7.498,134.044L-7.497,134.049L-7.498,134.055L-7.498,134.062L-7.497,134.071L-7.499,134.078L-7.503,134.085L-7.512,134.09L-7.524,134.095L-7.539,134.105L-7.544,134.11L-7.548,134.124L-7.551,134.134L-7.55,134.141L-7.548,134.145L-7.546,134.148L-7.546,134.157L-7.543,134.163L-7.536,134.175L-7.534,134.182L-7.531,134.184L-7.529,134.188L-7.529,134.195L-7.526,134.197L-7.528,134.202L-7.535,134.207L-7.541,134.208L-7.543,134.212L-7.549,134.219L-7.558,134.222L-7.566,134.221L-7.578,134.22L-7.588,134.218L-7.597,134.214L-7.602,134.213L-7.607,134.211L-7.614,134.204L-7.624,134.191L-7.633,134.177L-7.641,134.164L-7.646,134.16L-7.652,134.16L-7.655,134.156L-7.656,134.149L-7.661,134.148L-7.67,134.148L-7.674,134.145L-7.686,134.143L-7.694,134.137L-7.701,134.128L-7.707,134.131L-7.709,134.136L-7.71,134.145L-7.706,134.16L-7.702,134.168L-7.694,134.173L-7.685,134.176L-7.681,134.179L-7.678,134.185L-7.675,134.191L-7.671,134.198L-7.669,134.203L-7.668,134.212L-7.665,134.22L-7.661,134.224L-7.658,134.232L-7.654,134.242L-7.647,134.263L-7.646,134.267L-7.647,134.272L-7.651,134.277L-7.662,134.29L-7.674,134.303L-7.68,134.308L-7.687,134.313L-7.692,134.315L-7.705,134.312L-7.709,134.315L-7.709,134.322L-7.707,134.327L-7.706,134.331L-7.71,134.335L-7.72,134.339L-7.736,134.34L-7.77,134.339L-7.79,134.333L-7.8,134.323L-7.804,134.314L-7.808,134.306L-7.817,134.3L-7.824,134.292L-7.829,134.277L-7.832,134.252L-7.837,134.223L-7.843,134.209L-7.849,134.203L-7.861,134.202L-7.885,134.206L-7.901,134.21L-7.908,134.215L-7.918,134.223L-7.931,134.229L-7.941,134.235L-7.951,134.249L-7.957,134.256L-7.961,134.264L-7.961,134.275L-7.961,134.283L-7.967,134.289L-7.975,134.299L-7.984,134.32L-7.984,134.334L-7.985,134.336L-7.989,134.334L-8.003,134.331L-8.019,134.329L-8.047,134.335L-8.069,134.342L-8.081,134.349L-8.096,134.357L-8.103,134.36L-8.108,134.369L-8.115,134.381L-8.12,134.397L-8.125,134.404L-8.13,134.408L-8.131,134.417L-8.131,134.428L-8.132,134.439L-8.128,134.453L-8.119,134.462L-8.111,134.472L-8.107,134.478L-8.101,134.482L-8.087,134.484L-8.075,134.486L-8.064,134.497L-8.055,134.507L-8.051,134.514L-8.035,134.52L-8.028,134.528L-8.027,134.533L-8.032,134.537L-8.036,134.539L-8.038,134.548L-8.04,134.564L-8.038,134.574L-8.039,134.581L-8.033,134.599L-8.027,134.611L-8.021,134.617L-8.016,134.629L-8.013,134.636L-8.008,134.645L-8.003,134.65L-7.996,134.653L-7.988,134.652L-7.985,134.648L-7.988,134.644L-7.991,134.642L-7.99,134.637L-7.983,134.634L-7.974,134.629L-7.966,134.617L-7.961,134.604L-7.957,134.595L-7.957,134.586L-7.953,134.587L-7.948,134.591L-7.941,134.603L-7.94,134.612L-7.937,134.616L-7.929,134.617L-7.92,134.619L-7.917,134.622L-7.917,134.629L-7.923,134.635L-7.929,134.64L-7.929,134.648L-7.934,134.65L-7.943,134.653L-7.943,134.657L-7.934,134.677L-7.933,134.681L-7.938,134.686L-7.942,134.693L-7.941,134.7L-7.94,134.712L-7.938,134.72L-7.931,134.741L-7.926,134.745L-7.924,134.754L-7.923,134.767L-7.919,134.781L-7.912,134.793L-7.902,134.802L-7.891,134.806L-7.882,134.807L-7.876,134.81L-7.869,134.81L-7.861,134.804L-7.854,134.791L-7.852,134.781L-7.854,134.773L-7.857,134.771L-7.862,134.769L-7.862,134.765L-7.859,134.763L-7.856,134.763L-7.85,134.759L-7.847,134.759L-7.845,134.762L-7.844,134.768L-7.84,134.771L-7.834,134.78L-7.83,134.795L-7.826,134.798L-7.818,134.799L-7.812,134.803L-7.806,134.807L-7.801,134.807L-7.796,134.804L-7.79,134.795L-7.783,134.785L-7.778,134.781L-7.771,134.782L-7.763,134.785L-7.758,134.784L-7.752,134.786L-7.747,134.796L-7.743,134.808L-7.741,134.826L-7.741,134.828L-7.736,134.83L-7.727,134.828L-7.712,134.828L-7.704,134.824L-7.693,134.813L-7.681,134.806L-7.66,134.802L-7.64,134.8L-7.623,134.8L-7.609,134.797L-7.604,134.79L-7.603,134.786L-7.598,134.78L-7.594,134.775L-7.594,134.77L-7.596,134.765L-7.595,134.763L-7.587,134.765L-7.578,134.767L-7.568,134.764L-7.561,134.759L-7.554,134.759L-7.548,134.758L-7.536,134.75L-7.53,134.746L-7.522,134.744L-7.52,134.741L-7.517,134.74L-7.514,134.745L-7.513,134.747L-7.506,134.749L-7.504,134.752L-7.502,134.754L-7.498,134.755L-7.493,134.752L-7.478,134.753L-7.463,134.756L-7.461,134.76L-7.454,134.762L-7.45,134.77L-7.444,134.775L-7.437,134.775L-7.422,134.781L-7.413,134.783L-7.404,134.783L-7.401,134.785L-7.395,134.795L-7.39,134.796L-7.387,134.794L-7.382,134.797L-7.378,134.802L-7.369,134.812L-7.362,134.816L-7.345,134.821L-7.334,134.827L-7.321,134.836L-7.316,134.845L-7.312,134.851L-7.308,134.867L-7.305,134.879L-7.303,134.885L-7.304,134.89L-7.306,134.896L-7.311,134.901L-7.318,134.911L-7.326,134.928L-7.333,134.932L-7.337,134.934L-7.339,134.945L-7.341,134.967L-7.344,135.001L-7.344,135.02L-7.347,135.029L-7.347,135.036L-7.337,135.063L-7.337,135.068L-7.339,135.078L-7.341,135.091L-7.345,135.095L-7.352,135.097L-7.357,135.102L-7.368,135.116L-7.373,135.119L-7.376,135.116L-7.378,135.114L-7.382,135.117L-7.382,135.132L-7.385,135.152L-7.388,135.163L-7.386,135.168L-7.378,135.17L-7.368,135.166L-7.361,135.162L-7.352,135.163L-7.338,135.158L-7.327,135.154L-7.322,135.153L-7.32,135.156L-7.317,135.167L-7.313,135.174L-7.311,135.183L-7.308,135.185L-7.306,135.188L-7.306,135.19L-7.312,135.19L-7.313,135.185L-7.317,135.177L-7.324,135.173L-7.332,135.175L-7.34,135.179L-7.342,135.181L-7.347,135.183L-7.36,135.183L-7.374,135.182L-7.387,135.183L-7.397,135.185L-7.407,135.19L-7.415,135.199L-7.427,135.212L-7.433,135.224L-7.434,135.231L-7.433,135.237L-7.428,135.242L-7.419,135.247L-7.403,135.261L-7.393,135.272L-7.391,135.277L-7.388,135.278L-7.383,135.284L-7.378,135.296L-7.376,135.302L-7.372,135.307L-7.365,135.322L-7.36,135.323L-7.358,135.318L-7.359,135.314L-7.353,135.312L-7.349,135.314L-7.348,135.318L-7.35,135.327L-7.349,135.336L-7.346,135.342L-7.341,135.344L-7.338,135.348L-7.334,135.356L-7.325,135.362L-7.325,135.364L-7.32,135.362L-7.317,135.362L-7.316,135.365L-7.317,135.37L-7.321,135.373L-7.323,135.385L-7.324,135.403L-7.322,135.407L-7.322,135.411L-7.325,135.415L-7.335,135.418L-7.34,135.426L-7.343,135.435L-7.345,135.443L-7.344,135.449L-7.348,135.454L-7.352,135.457L-7.364,135.456L-7.37,135.453L-7.378,135.442L-7.383,135.437L-7.39,135.426L-7.393,135.412L-7.413,135.38L-7.424,135.362L-7.429,135.345L-7.432,135.325L-7.441,135.299L-7.448,135.286L-7.45,135.273L-7.45,135.257L-7.453,135.228L-7.45,135.222L-7.451,135.213L-7.455,135.205L-7.459,135.203L-7.463,135.205L-7.467,135.214L-7.468,135.213L-7.472,135.209L-7.474,135.202L-7.479,135.198L-7.484,135.195L-7.487,135.194L-7.499,135.197L-7.508,135.195L-7.518,135.192L-7.529,135.183L-7.534,135.172L-7.54,135.161L-7.552,135.151L-7.565,135.145L-7.569,135.144L-7.572,135.147L-7.576,135.147L-7.579,135.144L-7.577,135.138L-7.577,135.135L-7.582,135.13L-7.593,135.133L-7.598,135.136L-7.604,135.145L-7.606,135.166L-7.605,135.178L-7.601,135.183L-7.596,135.182L-7.594,135.183L-7.595,135.189L-7.597,135.194L-7.606,135.195L-7.616,135.19L-7.625,135.185L-7.642,135.183L-7.657,135.192L-7.672,135.202L-7.677,135.201L-7.682,135.195L-7.692,135.18L-7.698,135.171L-7.699,135.156L-7.705,135.141L-7.706,135.124L-7.709,135.088L-7.711,135.077L-7.716,135.068L-7.723,135.062L-7.73,135.054L-7.735,135.043L-7.738,135.042L-7.743,135.045L-7.746,135.054L-7.75,135.06L-7.754,135.065L-7.755,135.07L-7.75,135.073L-7.736,135.071L-7.734,135.077L-7.738,135.082L-7.744,135.101L-7.747,135.108L-7.753,135.112L-7.763,135.116L-7.775,135.121L-7.784,135.131L-7.795,135.139L-7.801,135.144L-7.807,135.144L-7.812,135.142L-7.816,135.135L-7.816,135.129L-7.816,135.122L-7.82,135.114L-7.821,135.106L-7.818,135.093L-7.816,135.082L-7.815,135.075L-7.817,135.069L-7.826,135.061L-7.835,135.054L-7.844,135.051L-7.854,135.053L-7.863,135.059L-7.87,135.068L-7.879,135.067L-7.884,135.062L-7.889,135.059L-7.892,135.058L-7.893,135.066L-7.893,135.071L-7.897,135.081L-7.899,135.09L-7.904,135.091L-7.905,135.095L-7.904,135.099L-7.9,135.097L-7.898,135.096L-7.893,135.097L-7.891,135.104L-7.892,135.117L-7.889,135.123L-7.888,135.129L-7.89,135.138L-7.893,135.153L-7.897,135.166L-7.903,135.175L-7.912,135.184L-7.92,135.188L-7.93,135.188L-7.934,135.184L-7.936,135.181L-7.936,135.176L-7.942,135.169L-7.943,135.158L-7.941,135.151L-7.942,135.147L-7.949,135.133L-7.952,135.129L-7.958,135.129L-7.961,135.132L-7.966,135.13L-7.97,135.124L-7.976,135.12L-7.987,135.118L-8.001,135.112L-8.01,135.106L-8.013,135.103L-8.018,135.104L-8.016,135.115L-8.012,135.127L-8.012,135.131L-8.018,135.138L-8.017,135.144L-8.012,135.146L-8.009,135.143L-7.999,135.149L-7.997,135.159L-7.99,135.174L-7.987,135.183L-7.989,135.191L-7.985,135.197L-7.982,135.203L-7.979,135.219L-7.979,135.224L-7.984,135.234L-7.988,135.242L-7.995,135.247L-8,135.25L-8.004,135.257L-8.002,135.26L-7.998,135.26L-7.992,135.262L-7.985,135.266L-7.985,135.275L-7.985,135.284L-7.984,135.289L-7.981,135.287L-7.977,135.282L-7.971,135.275L-7.965,135.273L-7.961,135.277L-7.961,135.282L-7.966,135.29L-7.969,135.303L-7.965,135.311L-7.962,135.316L-7.962,135.324L-7.957,135.33L-7.951,135.335L-7.948,135.342L-7.948,135.351L-7.952,135.361L-7.955,135.371L-7.956,135.381L-7.954,135.392L-7.947,135.401L-7.937,135.407L-7.925,135.407L-7.918,135.408L-7.912,135.411L-7.908,135.416L-7.901,135.418L-7.897,135.417L-7.895,135.42L-7.895,135.425L-7.888,135.428L-7.877,135.45L-7.867,135.464L-7.862,135.478L-7.859,135.491L-7.86,135.512L-7.865,135.521L-7.87,135.528L-7.873,135.533L-7.884,135.538L-7.892,135.536L-7.898,135.532L-7.902,135.531L-7.915,135.534L-7.919,135.532L-7.922,135.531L-7.925,135.521L-7.93,135.505L-7.935,135.5L-7.946,135.497L-7.953,135.493L-7.957,135.485L-7.964,135.479L-7.972,135.472L-7.977,135.464L-7.981,135.458L-7.997,135.447L-8.012,135.434L-8.017,135.428L-8.022,135.422L-8.027,135.419L-8.029,135.412L-8.032,135.411L-8.034,135.415L-8.041,135.416L-8.046,135.411L-8.054,135.4L-8.057,135.392L-8.059,135.384L-8.067,135.381L-8.077,135.388L-8.101,135.389L-8.113,135.395L-8.119,135.396L-8.131,135.393L-8.138,135.389L-8.145,135.382L-8.146,135.374L-8.143,135.369L-8.137,135.36L-8.129,135.35L-8.125,135.338L-8.122,135.333L-8.119,135.33L-8.118,135.325L-8.121,135.321L-8.123,135.314L-8.122,135.304L-8.123,135.296L-8.121,135.289L-8.124,135.273L-8.133,135.264L-8.135,135.254L-8.157,135.246L-8.169,135.246L-8.183,135.249L-8.192,135.251L-8.207,135.249L-8.217,135.249L-8.224,135.252L-8.24,135.261L-8.253,135.268L-8.259,135.274L-8.261,135.281L-8.259,135.297L-8.256,135.33L-8.256,135.336L-8.249,135.347L-8.249,135.351L-8.25,135.354L-8.248,135.358L-8.242,135.359L-8.239,135.358L-8.237,135.36L-8.239,135.365L-8.244,135.371L-8.249,135.378L-8.253,135.376L-8.255,135.37L-8.264,135.37L-8.264,135.378L-8.26,135.383L-8.261,135.387L-8.267,135.389L-8.272,135.393L-8.276,135.403L-8.282,135.409L-8.285,135.415L-8.282,135.426L-8.281,135.437L-8.281,135.445L-8.28,135.459L-8.279,135.465L-8.272,135.471L-8.264,135.488L-8.255,135.503L-8.249,135.517L-8.246,135.529L-8.242,135.534L-8.235,135.536L-8.228,135.534L-8.223,135.537L-8.221,135.541L-8.221,135.546L-8.225,135.552L-8.225,135.556L-8.222,135.561L-8.218,135.57L-8.219,135.58L-8.225,135.588L-8.232,135.595L-8.236,135.6L-8.244,135.601L-8.248,135.606L-8.253,135.617L-8.254,135.628L-8.257,135.641L-8.263,135.649L-8.27,135.657L-8.28,135.664L-8.287,135.668L-8.291,135.677L-8.291,135.69L-8.293,135.696L-8.294,135.712L-8.292,135.743L-8.292,135.756L-8.296,135.761L-8.307,135.765L-8.316,135.767L-8.324,135.766L-8.335,135.761L-8.334,135.758L-8.331,135.757L-8.327,135.756L-8.325,135.751L-8.33,135.75L-8.342,135.755L-8.357,135.759L-8.372,135.765L-8.396,135.769L-8.406,135.771L-8.417,135.776L-8.438,135.783L-8.452,135.786L-8.461,135.791L-8.473,135.797L-8.479,135.806L-8.482,135.812L-8.487,135.814L-8.493,135.814L-8.5,135.811L-8.505,135.809L-8.509,135.809L-8.513,135.813L-8.516,135.82L-8.514,135.828L-8.514,135.835L-8.513,135.841L-8.507,135.849L-8.498,135.85L-8.484,135.847L-8.476,135.845L-8.474,135.847L-8.475,135.853L-8.47,135.859L-8.466,135.862L-8.472,135.883L-8.472,135.893L-8.475,135.9L-8.479,135.902L-8.484,135.902L-8.489,135.896L-8.491,135.888L-8.495,135.88L-8.497,135.878L-8.495,135.875L-8.493,135.871L-8.499,135.869L-8.503,135.871L-8.513,135.873L-8.524,135.877L-8.538,135.882L-8.542,135.884L-8.549,135.882L-8.554,135.879L-8.565,135.871L-8.571,135.866L-8.574,135.863L-8.574,135.859L-8.571,135.853L-8.572,135.844L-8.577,135.833L-8.586,135.821L-8.59,135.815L-8.595,135.81L-8.601,135.81L-8.611,135.814L-8.616,135.82L-8.62,135.825L-8.617,135.831L-8.614,135.841L-8.614,135.849L-8.62,135.851L-8.623,135.848L-8.625,135.853L-8.628,135.863L-8.626,135.869L-8.618,135.871L-8.612,135.874L-8.611,135.885L-8.613,135.891L-8.616,135.893L-8.619,135.89L-8.619,135.885L-8.62,135.88L-8.627,135.88L-8.633,135.886L-8.637,135.899L-8.635,135.903L-8.633,135.908L-8.638,135.909L-8.641,135.908L-8.644,135.902L-8.642,135.896L-8.644,135.888L-8.647,135.883L-8.648,135.876L-8.65,135.866L-8.647,135.857L-8.644,135.84L-8.641,135.836L-8.639,135.835L-8.64,135.832L-8.641,135.826L-8.638,135.818L-8.634,135.807L-8.635,135.803L-8.642,135.795L-8.648,135.787L-8.649,135.782L-8.647,135.774L-8.639,135.77L-8.632,135.758L-8.624,135.751L-8.611,135.741L-8.61,135.733L-8.612,135.73L-8.622,135.733L-8.631,135.737L-8.641,135.747L-8.656,135.773L-8.664,135.785L-8.673,135.799L-8.676,135.801L-8.679,135.797L-8.682,135.792L-8.686,135.79L-8.69,135.79L-8.69,135.793L-8.687,135.797L-8.685,135.805L-8.687,135.814L-8.691,135.823L-8.699,135.829L-8.714,135.84L-8.719,135.843L-8.724,135.842L-8.728,135.838L-8.732,135.837L-8.735,135.83L-8.738,135.814L-8.738,135.796L-8.735,135.783L-8.735,135.772L-8.743,135.764L-8.749,135.755L-8.752,135.748L-8.751,135.74L-8.75,135.731L-8.752,135.722L-8.751,135.707L-8.747,135.69L-8.745,135.673L-8.746,135.66L-8.748,135.649L-8.752,135.627L-8.765,135.601L-8.771,135.598L-8.785,135.595L-8.793,135.592L-8.799,135.582L-8.803,135.572L-8.802,135.564L-8.799,135.559L-8.794,135.549L-8.79,135.543L-8.783,135.538L-8.78,135.527L-8.778,135.515L-8.772,135.501L-8.765,135.482L-8.761,135.476L-8.757,135.473L-8.755,135.466L-8.753,135.459L-8.752,135.454L-8.758,135.448L-8.764,135.445L-8.769,135.445L-8.772,135.441L-8.779,135.427L-8.783,135.421L-8.787,135.411L-8.79,135.406L-8.803,135.402L-8.814,135.4L-8.819,135.396L-8.826,135.392L-8.835,135.394L-8.84,135.407L-8.851,135.415L-8.856,135.424L-8.857,135.434L-8.862,135.437L-8.873,135.436L-8.888,135.429L-8.901,135.424L-8.915,135.424L-8.925,135.427L-8.932,135.434L-8.94,135.437L-8.951,135.433L-8.956,135.416L-8.958,135.404L-8.963,135.4L-8.969,135.401L-8.971,135.408L-8.972,135.42L-8.979,135.431L-8.983,135.433L-8.987,135.433L-8.993,135.429L-8.997,135.421L-9,135.399L-9.002,135.382L-9.003,135.37L-9.011,135.36L-9.021,135.354L-9.026,135.35L-9.028,135.344L-9.026,135.338L-9.023,135.33L-9.022,135.319L-9.024,135.31L-9.03,135.301L-9.046,135.289L-9.061,135.28L-9.072,135.277L-9.079,135.277L-9.09,135.281L-9.107,135.285L-9.129,135.291L-9.158,135.305L-9.174,135.314L-9.18,135.318L-9.187,135.335L-9.181,135.34L-9.174,135.344L-9.172,135.347L-9.17,135.354L-9.174,135.361L-9.176,135.371L-9.175,135.395L-9.173,135.417L-9.174,135.435L-9.174,135.449L-9.168,135.463L-9.154,135.509L-9.142,135.554L-9.135,135.582L-9.135,135.592L-9.137,135.603L-9.152,135.617L-9.163,135.63L-9.181,135.658L-9.197,135.685L-9.201,135.699L-9.2,135.716L-9.194,135.734L-9.19,135.745L-9.185,135.754L-9.175,135.762L-9.17,135.766L-9.161,135.766L-9.154,135.764L-9.151,135.766L-9.151,135.773L-9.152,135.78L-9.149,135.788L-9.144,135.795L-9.139,135.798L-9.133,135.793L-9.129,135.783L-9.127,135.785L-9.128,135.796L-9.123,135.81L-9.114,135.82L-9.106,135.825L-9.102,135.825L-9.1,135.825L-9.099,135.83L-9.101,135.838L-9.098,135.848L-9.09,135.86L-9.085,135.868L-9.077,135.874L-9.07,135.88L-9.064,135.881L-9.056,135.876L-9.049,135.871L-9.041,135.867L-9.039,135.86L-9.036,135.856L-9.027,135.851L-9.019,135.854L-9.012,135.861L-9.002,135.867L-8.994,135.872L-8.988,135.871L-8.982,135.876L-8.978,135.888L-8.979,135.898L-8.976,135.908L-8.971,135.914L-8.967,135.932L-8.963,135.961L-8.961,135.971L-8.951,135.986L-8.936,136.001L-8.918,136.02L-8.902,136.042L-8.893,136.061L-8.889,136.081L-8.879,136.108L-8.873,136.122L-8.87,136.13L-8.87,136.143L-8.873,136.149L-8.875,136.152L-8.874,136.154L-8.863,136.155L-8.851,136.153L-8.843,136.147L-8.834,136.139L-8.825,136.134L-8.817,136.136L-8.813,136.144L-8.815,136.153L-8.815,136.16L-8.811,136.16L-8.808,136.158L-8.804,136.161L-8.806,136.167L-8.813,136.182L-8.822,136.19L-8.827,136.194L-8.829,136.197L-8.831,136.197L-8.837,136.195L-8.837,136.191L-8.839,136.182L-8.841,136.178L-8.847,136.175L-8.853,136.17L-8.867,136.167L-8.88,136.162L-8.887,136.156L-8.89,136.148L-8.892,136.14L-8.897,136.137L-8.909,136.14L-8.922,136.16L-8.929,136.17L-8.929,136.178L-8.922,136.196L-8.923,136.22L-8.927,136.228L-8.933,136.236L-8.934,136.242L-8.93,136.247L-8.918,136.252L-8.908,136.264L-8.9,136.272L-8.883,136.277L-8.866,136.28L-8.845,136.28L-8.828,136.283L-8.811,136.284L-8.797,136.291L-8.784,136.303L-8.779,136.316L-8.768,136.338L-8.754,136.361L-8.747,136.379L-8.739,136.392L-8.732,136.402L-8.726,136.409L-8.719,136.427L-8.718,136.442L-8.713,136.446L-8.706,136.449L-8.705,136.458L-8.707,136.478L-8.708,136.489L-8.712,136.499L-8.717,136.501L-8.723,136.512L-8.732,136.527L-8.737,136.536L-8.744,136.54L-8.747,136.547L-8.747,136.565L-8.749,136.592L-8.75,136.605L-8.746,136.618L-8.74,136.631L-8.734,136.646L-8.721,136.657L-8.717,136.662L-8.719,136.667L-8.725,136.676L-8.739,136.69L-8.75,136.705L-8.757,136.71L-8.762,136.708L-8.763,136.712L-8.765,136.719L-8.762,136.727L-8.757,136.732L-8.756,136.737L-8.761,136.741L-8.771,136.739L-8.782,136.731L-8.793,136.722L-8.801,136.714L-8.807,136.706L-8.815,136.701L-8.828,136.694L-8.839,136.688L-8.855,136.688L-8.867,136.692L-8.878,136.699L-8.887,136.706L-8.89,136.71L-8.897,136.71L-8.904,136.708L-8.906,136.71L-8.905,136.72L-8.901,136.732L-8.895,136.735L-8.889,136.733L-8.882,136.737L-8.878,136.742L-8.878,136.76L-8.88,136.775L-8.882,136.782L-8.882,136.786L-8.878,136.788L-8.877,136.792L-8.881,136.797L-8.885,136.805L-8.886,136.812L-8.89,136.817L-8.897,136.821L-8.905,136.817L-8.916,136.809L-8.92,136.808L-8.921,136.812L-8.916,136.816L-8.915,136.819L-8.916,136.821L-8.922,136.819L-8.929,136.813L-8.935,136.804L-8.938,136.795L-8.942,136.797L-8.949,136.798L-8.956,136.797L-8.959,136.792L-8.956,136.786L-8.948,136.778L-8.946,136.764L-8.951,136.761L-8.957,136.763L-8.965,136.772L-8.978,136.791L-8.989,136.801L-8.987,136.808L-8.978,136.821L-8.964,136.835L-8.953,136.849L-8.945,136.86L-8.927,136.877L-8.925,136.898L-8.919,136.933L-8.917,136.957L-8.917,136.981L-8.912,137L-8.905,137.015L-8.892,137.033L-8.879,137.049L-8.862,137.061L-8.846,137.077L-8.835,137.089L-8.831,137.1L-8.826,137.118L-8.821,137.128L-8.815,137.13L-8.809,137.131L-8.803,137.132L-8.795,137.131L-8.782,137.12L-8.771,137.106L-8.767,137.104L-8.761,137.103L-8.758,137.097L-8.751,137.094L-8.746,137.094L-8.742,137.099L-8.741,137.103L-8.735,137.103L-8.727,137.094L-8.714,137.088L-8.702,137.081L-8.692,137.077L-8.682,137.074L-8.668,137.072L-8.652,137.071L-8.639,137.072L-8.631,137.066L-8.623,137.055L-8.613,137.041L-8.605,137.024L-8.6,137.016L-8.601,137.01L-8.597,137.003L-8.591,136.988L-8.579,136.98L-8.572,136.978L-8.563,136.979L-8.546,136.98L-8.531,136.986L-8.524,136.994L-8.523,137L-8.514,137.004L-8.511,137.012L-8.515,137.018L-8.514,137.024L-8.503,137.031L-8.474,137.048L-8.452,137.057L-8.446,137.062L-8.444,137.068L-8.428,137.079L-8.403,137.1L-8.385,137.114L-8.361,137.136L-8.355,137.145L-8.353,137.162L-8.353,137.178L-8.355,137.183L-8.36,137.188L-8.363,137.197L-8.364,137.215L-8.363,137.248L-8.366,137.267L-8.361,137.276L-8.358,137.284L-8.356,137.294L-8.349,137.303L-8.334,137.317L-8.318,137.325L-8.305,137.326L-8.284,137.331L-8.261,137.344L-8.233,137.357L-8.215,137.368L-8.205,137.368L-8.194,137.365L-8.19,137.361L-8.189,137.357L-8.186,137.356L-8.178,137.359L-8.174,137.363L-8.173,137.37L-8.164,137.376L-8.154,137.375L-8.146,137.371L-8.134,137.372L-8.122,137.38L-8.112,137.384L-8.111,137.382L-8.109,137.379L-8.1,137.378L-8.09,137.379L-8.074,137.391L-8.071,137.4L-8.064,137.401L-8.058,137.398L-8.052,137.405L-8.049,137.409L-8.036,137.418L-8.029,137.418L-8.015,137.405L-8.008,137.392L-8.007,137.379L-8.009,137.363L-8.012,137.359L-8.011,137.355L-8.008,137.349L-8.005,137.34L-7.999,137.336L-7.99,137.338L-7.98,137.342L-7.973,137.346L-7.973,137.354L-7.97,137.36L-7.964,137.366L-7.963,137.373L-7.954,137.381L-7.95,137.381L-7.949,137.376L-7.953,137.358L-7.954,137.349L-7.95,137.339L-7.943,137.332L-7.935,137.327L-7.925,137.327L-7.917,137.332L-7.904,137.335L-7.896,137.331L-7.89,137.331L-7.885,137.327L-7.875,137.33L-7.864,137.335L-7.852,137.342L-7.838,137.344L-7.817,137.344L-7.814,137.345L-7.812,137.348L-7.813,137.355L-7.81,137.357L-7.803,137.36L-7.793,137.36L-7.787,137.358L-7.782,137.355L-7.778,137.347L-7.775,137.345L-7.755,137.33L-7.746,137.325L-7.737,137.318L-7.728,137.315L-7.718,137.313L-7.706,137.3L-7.698,137.293L-7.694,137.281L-7.691,137.263L-7.689,137.25L-7.685,137.239L-7.681,137.234L-7.676,137.231L-7.671,137.23L-7.652,137.223L-7.635,137.217L-7.626,137.212L-7.615,137.199L-7.607,137.186L-7.603,137.183L-7.601,137.183L-7.599,137.186L-7.591,137.187L-7.579,137.183L-7.566,137.179L-7.558,137.179L-7.551,137.181L-7.545,137.188L-7.543,137.201L-7.54,137.209L-7.532,137.218L-7.526,137.22L-7.52,137.22L-7.517,137.223L-7.516,137.233L-7.519,137.238L-7.513,137.253L-7.516,137.263L-7.52,137.268L-7.528,137.27L-7.53,137.277L-7.522,137.297L-7.52,137.305L-7.52,137.311L-7.525,137.314L-7.538,137.325L-7.552,137.346L-7.552,137.356L-7.551,137.364L-7.552,137.372L-7.557,137.378L-7.564,137.388L-7.563,137.405L-7.564,137.408L-7.57,137.409L-7.571,137.415L-7.571,137.428L-7.573,137.434L-7.573,137.443L-7.567,137.455L-7.566,137.463L-7.562,137.469L-7.561,137.474L-7.563,137.477L-7.563,137.484L-7.562,137.49L-7.564,137.494L-7.571,137.492L-7.576,137.489L-7.583,137.492L-7.591,137.488L-7.598,137.484L-7.612,137.485L-7.62,137.489L-7.625,137.488L-7.634,137.487L-7.637,137.49L-7.637,137.495L-7.629,137.496L-7.623,137.496L-7.623,137.501L-7.625,137.51L-7.628,137.52L-7.627,137.524L-7.617,137.528L-7.602,137.538L-7.591,137.549L-7.588,137.557L-7.58,137.567L-7.569,137.578L-7.559,137.588L-7.556,137.596L-7.546,137.608L-7.537,137.614L-7.528,137.618L-7.516,137.625L-7.495,137.64L-7.488,137.642L-7.475,137.642L-7.462,137.64L-7.444,137.637L-7.423,137.635L-7.412,137.635L-7.399,137.631L-7.389,137.623L-7.374,137.609L-7.366,137.603L-7.365,137.598L-7.365,137.593L-7.367,137.59L-7.366,137.585L-7.361,137.577L-7.349,137.565L-7.34,137.554L-7.33,137.545L-7.322,137.534L-7.319,137.526L-7.315,137.518L-7.306,137.508ZM-7.3,136.963L-7.303,136.958L-7.308,136.952L-7.316,136.949L-7.318,136.952L-7.325,136.952L-7.325,136.95L-7.325,136.946L-7.323,136.942L-7.323,136.937L-7.331,136.93L-7.339,136.924L-7.344,136.923L-7.345,136.925L-7.347,136.932L-7.35,136.938L-7.352,136.942L-7.35,136.947L-7.352,136.951L-7.356,136.956L-7.363,136.961L-7.367,136.961L-7.371,136.96L-7.372,136.958L-7.373,136.954L-7.376,136.953L-7.381,136.949L-7.391,136.939L-7.404,136.924L-7.414,136.922L-7.416,136.916L-7.419,136.905L-7.427,136.887L-7.429,136.871L-7.434,136.852L-7.441,136.827L-7.446,136.819L-7.452,136.817L-7.458,136.818L-7.461,136.823L-7.467,136.827L-7.476,136.828L-7.481,136.827L-7.489,136.826L-7.503,136.828L-7.516,136.833L-7.533,136.833L-7.541,136.83L-7.542,136.824L-7.549,136.821L-7.555,136.82L-7.559,136.815L-7.569,136.812L-7.576,136.813L-7.586,136.821L-7.591,136.825L-7.591,136.832L-7.593,136.837L-7.595,136.839L-7.598,136.836L-7.606,136.828L-7.606,136.823L-7.605,136.817L-7.603,136.803L-7.605,136.788L-7.61,136.778L-7.615,136.77L-7.619,136.757L-7.619,136.737L-7.624,136.722L-7.633,136.713L-7.637,136.712L-7.641,136.707L-7.642,136.702L-7.648,136.694L-7.657,136.691L-7.665,136.691L-7.67,136.69L-7.673,136.687L-7.677,136.667L-7.681,136.654L-7.683,136.645L-7.69,136.626L-7.693,136.61L-7.69,136.599L-7.692,136.59L-7.692,136.584L-7.689,136.578L-7.687,136.571L-7.69,136.567L-7.69,136.561L-7.689,136.556L-7.686,136.55L-7.686,136.541L-7.691,136.54L-7.694,136.542L-7.696,136.541L-7.696,136.538L-7.695,136.536L-7.692,136.532L-7.686,136.526L-7.686,136.521L-7.686,136.505L-7.688,136.494L-7.685,136.491L-7.682,136.49L-7.679,136.492L-7.675,136.499L-7.673,136.505L-7.657,136.512L-7.653,136.515L-7.647,136.522L-7.638,136.525L-7.633,136.522L-7.63,136.516L-7.625,136.517L-7.618,136.521L-7.612,136.527L-7.606,136.538L-7.6,136.549L-7.594,136.551L-7.589,136.555L-7.587,136.564L-7.581,136.573L-7.576,136.589L-7.569,136.615L-7.558,136.63L-7.548,136.643L-7.539,136.649L-7.536,136.654L-7.529,136.659L-7.524,136.662L-7.514,136.663L-7.503,136.662L-7.491,136.66L-7.483,136.659L-7.481,136.654L-7.481,136.65L-7.484,136.649L-7.484,136.645L-7.482,136.645L-7.474,136.65L-7.469,136.656L-7.466,136.665L-7.46,136.671L-7.458,136.669L-7.457,136.672L-7.458,136.677L-7.458,136.683L-7.452,136.693L-7.445,136.705L-7.444,136.72L-7.444,136.73L-7.447,136.741L-7.45,136.75L-7.45,136.756L-7.447,136.763L-7.443,136.766L-7.44,136.773L-7.44,136.776L-7.44,136.779L-7.431,136.782L-7.418,136.788L-7.409,136.79L-7.405,136.792L-7.402,136.798L-7.398,136.803L-7.39,136.81L-7.384,136.813L-7.375,136.817L-7.363,136.823L-7.355,136.83L-7.345,136.842L-7.338,136.847L-7.332,136.856L-7.327,136.858L-7.312,136.866L-7.296,136.868L-7.28,136.87L-7.274,136.868L-7.272,136.862L-7.27,136.86L-7.268,136.862L-7.267,136.867L-7.263,136.871L-7.236,136.879L-7.222,136.881L-7.219,136.883L-7.215,136.892L-7.214,136.896L-7.216,136.901L-7.218,136.909L-7.218,136.921L-7.215,136.931L-7.215,136.939L-7.219,136.942L-7.224,136.944L-7.227,136.95L-7.23,136.953L-7.238,136.954L-7.251,136.956L-7.27,136.96L-7.283,136.963L-7.295,136.964L-7.3,136.963ZM-7.395,136.158L-7.397,136.168L-7.398,136.169L-7.399,136.169L-7.4,136.168L-7.403,136.162L-7.41,136.154L-7.414,136.15L-7.418,136.149L-7.425,136.15L-7.431,136.153L-7.435,136.156L-7.439,136.159L-7.442,136.16L-7.443,136.163L-7.441,136.164L-7.44,136.164L-7.438,136.166L-7.441,136.169L-7.442,136.172L-7.444,136.173L-7.446,136.172L-7.446,136.169L-7.448,136.167L-7.453,136.165L-7.454,136.167L-7.455,136.165L-7.455,136.164L-7.453,136.163L-7.451,136.161L-7.448,136.152L-7.443,136.144L-7.438,136.142L-7.433,136.141L-7.426,136.139L-7.416,136.134L-7.408,136.131L-7.401,136.126L-7.398,136.121L-7.397,136.114L-7.397,136.105L-7.402,136.098L-7.408,136.091L-7.413,136.085L-7.416,136.073L-7.42,136.065L-7.421,136.059L-7.421,136.054L-7.42,136.051L-7.411,136.045L-7.405,136.043L-7.398,136.042L-7.394,136.04L-7.387,136.038L-7.369,136.043L-7.35,136.049L-7.342,136.047L-7.34,136.045L-7.34,136.041L-7.34,136.037L-7.341,136.03L-7.344,136.021L-7.348,136.013L-7.352,136.005L-7.354,135.994L-7.36,135.979L-7.36,135.969L-7.359,135.955L-7.357,135.95L-7.352,135.942L-7.35,135.936L-7.351,135.926L-7.35,135.909L-7.35,135.9L-7.348,135.897L-7.347,135.891L-7.345,135.885L-7.342,135.882L-7.339,135.882L-7.336,135.881L-7.335,135.878L-7.334,135.875L-7.331,135.876L-7.327,135.877L-7.32,135.877L-7.306,135.875L-7.29,135.873L-7.278,135.873L-7.27,135.877L-7.263,135.879L-7.257,135.886L-7.254,135.893L-7.252,135.9L-7.246,135.904L-7.237,135.911L-7.227,135.921L-7.214,135.933L-7.202,135.947L-7.19,135.959L-7.185,135.967L-7.171,135.982L-7.165,135.994L-7.157,136.002L-7.156,136.006L-7.156,136.015L-7.157,136.024L-7.154,136.029L-7.151,136.032L-7.15,136.036L-7.15,136.049L-7.149,136.057L-7.149,136.067L-7.151,136.077L-7.154,136.083L-7.16,136.087L-7.169,136.091L-7.181,136.095L-7.194,136.098L-7.214,136.101L-7.229,136.102L-7.247,136.104L-7.27,136.104L-7.285,136.105L-7.291,136.107L-7.297,136.105L-7.301,136.101L-7.304,136.096L-7.306,136.092L-7.31,136.094L-7.312,136.097L-7.313,136.101L-7.316,136.101L-7.317,136.099L-7.319,136.097L-7.319,136.096L-7.317,136.094L-7.316,136.091L-7.317,136.089L-7.319,136.089L-7.325,136.085L-7.33,136.084L-7.332,136.085L-7.334,136.088L-7.336,136.089L-7.339,136.086L-7.342,136.086L-7.344,136.09L-7.352,136.108L-7.362,136.112L-7.37,136.124L-7.374,136.128L-7.377,136.131L-7.381,136.133L-7.383,136.136L-7.385,136.143L-7.387,136.147L-7.392,136.152L-7.395,136.158ZM-8.382,136.088L-8.387,136.07L-8.394,136.052L-8.398,136.042L-8.406,136.033L-8.421,136.025L-8.426,136.017L-8.433,136.007L-8.434,136.004L-8.432,136.003L-8.429,136.004L-8.417,136.012L-8.41,136.02L-8.403,136.029L-8.394,136.041L-8.387,136.053L-8.384,136.059L-8.383,136.067L-8.383,136.072L-8.379,136.078L-8.373,136.084L-8.371,136.09L-8.371,136.095L-8.372,136.1L-8.37,136.105L-8.367,136.104L-8.364,136.099L-8.355,136.085L-8.352,136.081L-8.345,136.079L-8.342,136.074L-8.339,136.067L-8.334,136.065L-8.328,136.065L-8.313,136.053L-8.309,136.05L-8.304,136.051L-8.297,136.05L-8.294,136.047L-8.289,136.047L-8.284,136.052L-8.276,136.053L-8.256,136.051L-8.24,136.039L-8.236,136.031L-8.217,136.02L-8.205,136.013L-8.196,136.011L-8.189,136.013L-8.187,136.023L-8.18,136.037L-8.173,136.055L-8.172,136.062L-8.176,136.074L-8.177,136.087L-8.169,136.115L-8.167,136.123L-8.167,136.13L-8.17,136.135L-8.178,136.143L-8.192,136.15L-8.209,136.151L-8.217,136.143L-8.225,136.139L-8.226,136.14L-8.224,136.148L-8.222,136.159L-8.222,136.163L-8.228,136.166L-8.236,136.172L-8.243,136.181L-8.252,136.201L-8.256,136.223L-8.262,136.241L-8.264,136.246L-8.268,136.249L-8.274,136.249L-8.282,136.245L-8.302,136.234L-8.309,136.23L-8.317,136.217L-8.336,136.201L-8.356,136.182L-8.372,136.16L-8.382,136.144L-8.383,136.127L-8.382,136.108L-8.382,136.088ZM-7.095,134.318L-7.116,134.311L-7.131,134.309L-7.142,134.309L-7.152,134.315L-7.162,134.315L-7.165,134.313L-7.166,134.31L-7.167,134.305L-7.17,134.303L-7.172,134.296L-7.175,134.29L-7.175,134.277L-7.173,134.266L-7.174,134.262L-7.168,134.26L-7.164,134.255L-7.158,134.248L-7.158,134.239L-7.162,134.23L-7.169,134.215L-7.17,134.207L-7.17,134.202L-7.18,134.189L-7.185,134.18L-7.186,134.175L-7.182,134.172L-7.172,134.165L-7.163,134.158L-7.151,134.147L-7.139,134.136L-7.132,134.131L-7.125,134.124L-7.12,134.121L-7.115,134.114L-7.112,134.105L-7.107,134.1L-7.104,134.098L-7.094,134.095L-7.086,134.096L-7.084,134.089L-7.082,134.09L-7.077,134.105L-7.074,134.113L-7.069,134.116L-7.064,134.123L-7.047,134.131L-7.029,134.139L-7.023,134.147L-7.023,134.15L-7.022,134.162L-7.026,134.176L-7.029,134.186L-7.032,134.192L-7.036,134.195L-7.04,134.204L-7.042,134.213L-7.041,134.22L-7.042,134.225L-7.048,134.229L-7.047,134.234L-7.043,134.236L-7.043,134.24L-7.042,134.248L-7.042,134.259L-7.044,134.262L-7.044,134.267L-7.041,134.27L-7.034,134.278L-7.021,134.288L-7.019,134.293L-7.02,134.302L-7.024,134.312L-7.029,134.317L-7.039,134.323L-7.051,134.327L-7.058,134.329L-7.068,134.328L-7.081,134.326L-7.095,134.318ZM-8.547,136.577L-8.543,136.578L-8.538,136.578L-8.534,136.579L-8.528,136.581L-8.519,136.583L-8.508,136.583L-8.498,136.586L-8.485,136.588L-8.479,136.586L-8.473,136.582L-8.463,136.58L-8.459,136.581L-8.452,136.584L-8.448,136.583L-8.445,136.585L-8.442,136.595L-8.44,136.61L-8.433,136.625L-8.426,136.628L-8.42,136.627L-8.417,136.629L-8.416,136.635L-8.414,136.642L-8.409,136.646L-8.406,136.648L-8.406,136.65L-8.407,136.655L-8.411,136.661L-8.411,136.668L-8.409,136.675L-8.406,136.679L-8.405,136.681L-8.406,136.686L-8.407,136.689L-8.411,136.689L-8.416,136.685L-8.422,136.681L-8.426,136.681L-8.43,136.68L-8.43,136.676L-8.427,136.672L-8.427,136.666L-8.431,136.663L-8.435,136.663L-8.437,136.665L-8.437,136.669L-8.439,136.672L-8.444,136.673L-8.458,136.683L-8.468,136.687L-8.475,136.687L-8.483,136.684L-8.486,136.685L-8.491,136.689L-8.495,136.695L-8.497,136.696L-8.501,136.695L-8.503,136.692L-8.508,136.694L-8.512,136.698L-8.514,136.703L-8.516,136.706L-8.525,136.704L-8.533,136.701L-8.536,136.697L-8.542,136.691L-8.548,136.687L-8.549,136.681L-8.552,136.676L-8.553,136.677L-8.555,136.683L-8.558,136.694L-8.562,136.698L-8.568,136.699L-8.574,136.698L-8.577,136.693L-8.578,136.688L-8.579,136.681L-8.577,136.668L-8.576,136.658L-8.577,136.656L-8.587,136.65L-8.589,136.645L-8.589,136.635L-8.588,136.619L-8.589,136.615L-8.594,136.608L-8.598,136.605L-8.599,136.603L-8.597,136.602L-8.589,136.592L-8.584,136.589L-8.58,136.59L-8.57,136.576L-8.567,136.575L-8.562,136.574L-8.553,136.572L-8.549,136.573L-8.547,136.577ZM-7.21,136.495L-7.213,136.487L-7.214,136.473L-7.213,136.468L-7.204,136.456L-7.201,136.448L-7.2,136.441L-7.203,136.418L-7.205,136.405L-7.205,136.397L-7.202,136.385L-7.203,136.382L-7.202,136.373L-7.2,136.365L-7.196,136.355L-7.193,136.351L-7.188,136.351L-7.186,136.349L-7.186,136.344L-7.186,136.341L-7.184,136.339L-7.181,136.339L-7.179,136.342L-7.175,136.349L-7.172,136.356L-7.169,136.359L-7.168,136.363L-7.167,136.371L-7.162,136.377L-7.16,136.382L-7.159,136.392L-7.154,136.402L-7.149,136.409L-7.15,136.413L-7.151,136.413L-7.152,136.414L-7.151,136.417L-7.148,136.418L-7.147,136.42L-7.147,136.428L-7.144,136.44L-7.142,136.449L-7.143,136.455L-7.145,136.46L-7.152,136.475L-7.158,136.482L-7.165,136.489L-7.176,136.496L-7.182,136.502L-7.189,136.505L-7.196,136.506L-7.2,136.505L-7.207,136.499L-7.21,136.495ZM-8.874,135.998L-8.868,136.007L-8.863,136.015L-8.859,136.028L-8.856,136.038L-8.851,136.04L-8.848,136.039L-8.849,136.03L-8.847,136.023L-8.844,136.022L-8.839,136.021L-8.833,136.024L-8.831,136.031L-8.832,136.041L-8.835,136.046L-8.842,136.053L-8.844,136.06L-8.848,136.064L-8.854,136.068L-8.854,136.076L-8.849,136.077L-8.843,136.075L-8.837,136.073L-8.833,136.072L-8.831,136.077L-8.824,136.086L-8.826,136.091L-8.83,136.093L-8.837,136.098L-8.839,136.104L-8.844,136.111L-8.856,136.119L-8.862,136.119L-8.865,136.116L-8.865,136.113L-8.864,136.105L-8.867,136.097L-8.869,136.087L-8.868,136.078L-8.877,136.061L-8.878,136.055L-8.883,136.034L-8.889,136.02L-8.888,136.014L-8.885,136.005L-8.881,135.998L-8.879,135.996L-8.878,135.996L-8.874,135.998ZM-7.8,136.305L-7.803,136.299L-7.807,136.298L-7.809,136.3L-7.811,136.302L-7.815,136.303L-7.818,136.302L-7.82,136.297L-7.82,136.287L-7.818,136.275L-7.815,136.268L-7.814,136.261L-7.812,136.252L-7.812,136.244L-7.812,136.239L-7.821,136.227L-7.83,136.219L-7.836,136.217L-7.839,136.218L-7.842,136.225L-7.844,136.226L-7.846,136.224L-7.848,136.21L-7.847,136.201L-7.843,136.195L-7.843,136.192L-7.846,136.19L-7.848,136.185L-7.848,136.181L-7.843,136.179L-7.836,136.174L-7.824,136.171L-7.82,136.17L-7.818,136.172L-7.819,136.176L-7.824,136.183L-7.828,136.188L-7.831,136.188L-7.831,136.194L-7.827,136.195L-7.822,136.195L-7.817,136.191L-7.813,136.191L-7.813,136.194L-7.813,136.196L-7.82,136.197L-7.824,136.197L-7.827,136.201L-7.833,136.206L-7.835,136.21L-7.834,136.214L-7.831,136.214L-7.828,136.212L-7.824,136.206L-7.819,136.202L-7.817,136.214L-7.813,136.217L-7.813,136.222L-7.809,136.226L-7.807,136.226L-7.806,136.228L-7.806,136.232L-7.809,136.233L-7.809,136.237L-7.807,136.242L-7.806,136.247L-7.804,136.253L-7.795,136.262L-7.791,136.267L-7.785,136.27L-7.776,136.273L-7.772,136.276L-7.767,136.282L-7.766,136.285L-7.766,136.291L-7.768,136.296L-7.771,136.3L-7.774,136.305L-7.776,136.31L-7.776,136.315L-7.78,136.319L-7.783,136.32L-7.788,136.319L-7.791,136.316L-7.798,136.313L-7.798,136.31L-7.8,136.305ZM-7.315,135.688L-7.316,135.687L-7.32,135.686L-7.335,135.682L-7.35,135.68L-7.358,135.679L-7.36,135.68L-7.362,135.684L-7.367,135.688L-7.368,135.688L-7.372,135.684L-7.372,135.677L-7.372,135.674L-7.373,135.674L-7.377,135.673L-7.38,135.673L-7.382,135.671L-7.385,135.667L-7.385,135.663L-7.383,135.662L-7.384,135.658L-7.385,135.656L-7.384,135.65L-7.383,135.643L-7.385,135.638L-7.384,135.635L-7.382,135.632L-7.375,135.624L-7.375,135.621L-7.376,135.62L-7.381,135.614L-7.381,135.613L-7.379,135.613L-7.376,135.615L-7.374,135.617L-7.37,135.623L-7.367,135.624L-7.362,135.624L-7.357,135.622L-7.353,135.62L-7.348,135.619L-7.343,135.62L-7.338,135.625L-7.333,135.627L-7.33,135.627L-7.329,135.629L-7.328,135.634L-7.325,135.64L-7.321,135.646L-7.322,135.65L-7.323,135.655L-7.322,135.659L-7.317,135.673L-7.315,135.68L-7.313,135.684L-7.311,135.685L-7.31,135.689L-7.312,135.69L-7.314,135.69L-7.315,135.688ZM-7.18,134.039L-7.182,134.037L-7.189,134.038L-7.192,134.038L-7.196,134.035L-7.198,134.032L-7.202,134.028L-7.204,134.025L-7.204,134.021L-7.204,134.018L-7.202,134.015L-7.2,134.014L-7.197,134.014L-7.193,134.012L-7.188,134.009L-7.184,134.01L-7.18,134.008L-7.175,134.004L-7.159,134.001L-7.157,134.002L-7.153,134.004L-7.147,134.005L-7.143,134.008L-7.14,134.011L-7.139,134.013L-7.14,134.019L-7.138,134.021L-7.136,134.023L-7.13,134.031L-7.13,134.035L-7.129,134.037L-7.128,134.043L-7.129,134.046L-7.134,134.049L-7.137,134.054L-7.138,134.058L-7.144,134.065L-7.146,134.069L-7.148,134.07L-7.151,134.07L-7.152,134.068L-7.153,134.067L-7.159,134.064L-7.164,134.06L-7.168,134.057L-7.169,134.053L-7.171,134.049L-7.176,134.044L-7.179,134.041L-7.18,134.039ZM-7.489,136L-7.489,136.001L-7.491,136.001L-7.493,136L-7.496,135.998L-7.498,135.998L-7.498,136.004L-7.5,136.006L-7.503,136.007L-7.506,136.007L-7.51,136.003L-7.514,136.002L-7.518,136.008L-7.516,136.009L-7.514,136.01L-7.512,136.012L-7.512,136.015L-7.516,136.016L-7.519,136.015L-7.521,136.013L-7.524,136.011L-7.529,136.009L-7.534,136.007L-7.542,135.998L-7.547,135.991L-7.549,135.986L-7.551,135.982L-7.557,135.973L-7.567,135.962L-7.571,135.955L-7.572,135.951L-7.57,135.949L-7.567,135.947L-7.566,135.947L-7.562,135.949L-7.553,135.951L-7.545,135.957L-7.536,135.965L-7.532,135.972L-7.524,135.981L-7.52,135.983L-7.516,135.984L-7.511,135.988L-7.509,135.991L-7.506,135.992L-7.499,135.994L-7.494,135.995L-7.49,135.998L-7.489,136ZM-7.17,136.604L-7.172,136.602L-7.175,136.601L-7.179,136.603L-7.183,136.602L-7.187,136.599L-7.19,136.593L-7.191,136.589L-7.192,136.586L-7.194,136.586L-7.197,136.584L-7.198,136.579L-7.199,136.574L-7.195,136.564L-7.191,136.561L-7.187,136.559L-7.182,136.559L-7.178,136.56L-7.176,136.561L-7.165,136.565L-7.164,136.565L-7.162,136.564L-7.159,136.564L-7.159,136.565L-7.16,136.568L-7.159,136.571L-7.158,136.574L-7.157,136.576L-7.155,136.577L-7.156,136.579L-7.157,136.579L-7.16,136.577L-7.161,136.576L-7.162,136.577L-7.162,136.579L-7.16,136.582L-7.16,136.593L-7.161,136.6L-7.163,136.603L-7.167,136.605L-7.169,136.605L-7.17,136.604ZM-6.876,134.449L-6.877,134.443L-6.878,134.435L-6.879,134.428L-6.88,134.42L-6.879,134.417L-6.88,134.412L-6.882,134.406L-6.881,134.403L-6.879,134.399L-6.88,134.397L-6.881,134.396L-6.878,134.396L-6.874,134.401L-6.872,134.403L-6.866,134.407L-6.861,134.412L-6.858,134.417L-6.857,134.421L-6.857,134.426L-6.857,134.434L-6.858,134.442L-6.858,134.45L-6.859,134.454L-6.861,134.457L-6.865,134.457L-6.866,134.457L-6.867,134.456L-6.87,134.455L-6.873,134.454L-6.876,134.449ZM-7.936,134.396L-7.938,134.396L-7.942,134.396L-7.947,134.395L-7.954,134.39L-7.957,134.389L-7.958,134.391L-7.96,134.391L-7.963,134.389L-7.966,134.385L-7.966,134.383L-7.966,134.378L-7.967,134.373L-7.969,134.365L-7.969,134.359L-7.967,134.356L-7.961,134.351L-7.957,134.35L-7.955,134.35L-7.95,134.355L-7.945,134.359L-7.943,134.364L-7.943,134.366L-7.944,134.368L-7.942,134.373L-7.941,134.376L-7.942,134.378L-7.941,134.381L-7.935,134.39L-7.935,134.394L-7.936,134.396ZM-7.585,134.631L-7.589,134.629L-7.592,134.627L-7.598,134.629L-7.601,134.629L-7.601,134.626L-7.598,134.62L-7.593,134.609L-7.594,134.603L-7.593,134.603L-7.591,134.604L-7.589,134.606L-7.588,134.605L-7.587,134.604L-7.588,134.601L-7.591,134.594L-7.59,134.593L-7.588,134.592L-7.585,134.592L-7.584,134.592L-7.582,134.592L-7.581,134.594L-7.58,134.598L-7.58,134.601L-7.58,134.603L-7.578,134.604L-7.576,134.604L-7.573,134.607L-7.57,134.614L-7.568,134.619L-7.567,134.624L-7.568,134.629L-7.567,134.632L-7.568,134.636L-7.571,134.638L-7.574,134.638L-7.581,134.633L-7.585,134.631ZM-7.178,136.188L-7.18,136.187L-7.181,136.183L-7.186,136.178L-7.19,136.173L-7.192,136.17L-7.193,136.165L-7.192,136.162L-7.191,136.16L-7.19,136.159L-7.186,136.158L-7.183,136.156L-7.181,136.155L-7.179,136.155L-7.178,136.156L-7.176,136.157L-7.173,136.158L-7.17,136.156L-7.169,136.156L-7.167,136.158L-7.165,136.166L-7.163,136.168L-7.161,136.17L-7.16,136.173L-7.161,136.178L-7.156,136.184L-7.157,136.187L-7.161,136.188L-7.165,136.188L-7.169,136.185L-7.173,136.184L-7.175,136.185L-7.176,136.188L-7.178,136.188ZM-9.111,135.801L-9.11,135.799L-9.109,135.796L-9.108,135.792L-9.11,135.791L-9.114,135.788L-9.116,135.786L-9.115,135.784L-9.113,135.78L-9.113,135.776L-9.108,135.763L-9.106,135.763L-9.104,135.763L-9.103,135.763L-9.101,135.765L-9.095,135.766L-9.094,135.768L-9.095,135.77L-9.097,135.774L-9.093,135.779L-9.093,135.784L-9.095,135.785L-9.098,135.786L-9.1,135.789L-9.102,135.793L-9.102,135.798L-9.106,135.802L-9.109,135.804L-9.11,135.804L-9.111,135.801ZM-7.45,136.203L-7.449,136.201L-7.446,136.199L-7.445,136.198L-7.444,136.197L-7.443,136.197L-7.441,136.198L-7.44,136.202L-7.439,136.207L-7.44,136.21L-7.441,136.212L-7.44,136.213L-7.438,136.214L-7.438,136.216L-7.439,136.219L-7.438,136.221L-7.439,136.223L-7.44,136.225L-7.444,136.226L-7.447,136.226L-7.448,136.225L-7.448,136.223L-7.451,136.219L-7.45,136.215L-7.451,136.212L-7.451,136.209L-7.45,136.208L-7.449,136.206L-7.449,136.205L-7.45,136.203ZM-8.578,135.964L-8.575,135.967L-8.573,135.967L-8.571,135.966L-8.571,135.968L-8.572,135.969L-8.573,135.97L-8.575,135.97L-8.576,135.972L-8.576,135.975L-8.577,135.975L-8.581,135.975L-8.583,135.973L-8.585,135.971L-8.586,135.965L-8.588,135.956L-8.587,135.952L-8.586,135.95L-8.583,135.949L-8.581,135.949L-8.58,135.949L-8.58,135.95L-8.579,135.952L-8.58,135.953L-8.582,135.954L-8.582,135.957L-8.578,135.964ZM-8.696,136.657L-8.68,136.667L-8.679,136.67L-8.682,136.673L-8.685,136.673L-8.69,136.67L-8.696,136.664L-8.701,136.659L-8.704,136.656L-8.706,136.655L-8.706,136.655L-8.705,136.653L-8.702,136.652L-8.7,136.653L-8.696,136.657ZM-7.166,137.003L-7.169,136.999L-7.171,136.994L-7.174,136.991L-7.178,136.984L-7.183,136.983L-7.186,136.984L-7.187,136.981L-7.186,136.979L-7.182,136.979L-7.179,136.979L-7.177,136.979L-7.176,136.977L-7.175,136.975L-7.174,136.975L-7.174,136.977L-7.174,136.979L-7.176,136.979L-7.175,136.982L-7.173,136.984L-7.17,136.986L-7.165,136.998L-7.163,137.003L-7.164,137.005L-7.166,137.003ZM-6.901,135.073L-6.9,135.073L-6.899,135.073L-6.898,135.075L-6.896,135.081L-6.897,135.086L-6.9,135.092L-6.902,135.094L-6.903,135.093L-6.904,135.091L-6.903,135.087L-6.902,135.083L-6.903,135.08L-6.905,135.077L-6.903,135.075L-6.901,135.073ZM-7.548,136.565L-7.55,136.565L-7.551,136.565L-7.552,136.565L-7.552,136.561L-7.553,136.56L-7.553,136.558L-7.552,136.557L-7.552,136.556L-7.551,136.555L-7.55,136.554L-7.549,136.554L-7.548,136.557L-7.547,136.559L-7.547,136.562L-7.548,136.565ZM-9.092,135.79L-9.091,135.789L-9.09,135.789L-9.089,135.789L-9.088,135.791L-9.087,135.794L-9.087,135.796L-9.089,135.798L-9.091,135.797L-9.092,135.797L-9.093,135.795L-9.092,135.79ZM-6.874,137.251L-6.872,137.249L-6.869,137.249L-6.869,137.25L-6.87,137.251L-6.872,137.254L-6.874,137.256L-6.874,137.26L-6.876,137.261L-6.877,137.26L-6.878,137.257L-6.877,137.254L-6.875,137.254L-6.874,137.253L-6.874,137.251ZM-7.384,135.58L-7.383,135.58L-7.382,135.581L-7.381,135.583L-7.381,135.587L-7.382,135.592L-7.383,135.592L-7.384,135.591L-7.385,135.586L-7.385,135.583L-7.384,135.58ZM-7.48,136.058L-7.478,136.058L-7.476,136.059L-7.475,136.061L-7.475,136.064L-7.476,136.065L-7.478,136.063L-7.48,136.061L-7.48,136.058ZM-6.596,137.258L-6.595,137.256L-6.593,137.255L-6.591,137.255L-6.589,137.257L-6.59,137.259L-6.595,137.259L-6.596,137.258ZM-8.46,136.978L-8.46,136.979L-8.46,136.98L-8.462,136.98L-8.466,136.98L-8.467,136.978L-8.467,136.977L-8.466,136.977L-8.464,136.977L-8.46,136.978ZM-8.268,136.047L-8.269,136.047L-8.27,136.046L-8.271,136.043L-8.271,136.042L-8.268,136.042L-8.267,136.042L-8.267,136.045L-8.268,136.047ZM-7.007,134.444L-7.011,134.446L-7.013,134.445L-7.013,134.442L-7.01,134.442L-7.009,134.442L-7.008,134.443L-7.007,134.444ZM-7.158,136.193L-7.157,136.19L-7.157,136.189L-7.156,136.189L-7.155,136.19L-7.155,136.193L-7.155,136.195L-7.157,136.195L-7.158,136.194L-7.158,136.193ZM-7.701,136.541L-7.7,136.542L-7.7,136.545L-7.701,136.545L-7.703,136.544L-7.703,136.543L-7.703,136.541L-7.702,136.541L-7.701,136.541L-7.701,136.541ZM-7.367,135.693L-7.366,135.692L-7.364,135.692L-7.363,135.693L-7.364,135.695L-7.366,135.695L-7.367,135.694L-7.367,135.693ZM-6.602,137.256L-6.602,137.257L-6.605,137.257L-6.607,137.256L-6.606,137.255L-6.605,137.254L-6.602,137.256ZM-7.206,137.001L-7.205,137.001L-7.203,137.002L-7.202,137.005L-7.203,137.006L-7.205,137.004L-7.206,137.001ZM-8.687,135.88L-8.687,135.878L-8.685,135.879L-8.684,135.88L-8.683,135.882L-8.685,135.883L-8.686,135.882L-8.687,135.88ZM-7.633,136.844L-7.635,136.845L-7.636,136.844L-7.636,136.841L-7.635,136.84L-7.634,136.841L-7.633,136.842L-7.633,136.844ZM-7.467,136.073L-7.466,136.073L-7.465,136.073L-7.465,136.075L-7.466,136.076L-7.468,136.076L-7.468,136.075L-7.468,136.073L-7.467,136.073ZM-8.423,135.995L-8.424,135.997L-8.426,135.996L-8.427,135.995L-8.427,135.994L-8.426,135.994L-8.424,135.994L-8.423,135.995ZM-7.517,136.021L-7.516,136.021L-7.515,136.021L-7.515,136.022L-7.515,136.024L-7.517,136.023L-7.518,136.022L-7.517,136.021ZM-7.188,136.149L-7.187,136.149L-7.186,136.149L-7.185,136.149L-7.186,136.151L-7.187,136.151L-7.188,136.151L-7.188,136.149ZM-8.852,135.455L-8.85,135.453L-8.849,135.455L-8.849,135.455L-8.851,135.456L-8.852,135.456L-8.852,135.455ZM-6.768,134.392L-6.768,134.391L-6.766,134.391L-6.765,134.392L-6.766,134.393L-6.767,134.393L-6.768,134.392ZM-6.889,134.386L-6.888,134.385L-6.887,134.386L-6.887,134.387L-6.889,134.387L-6.889,134.386Z" style="fill:rgb(36,121,200);"/>
    </g>
    <g transform="matrix(1.39967,0,0,1.39967,-1027.61,-661.344)">
        <circle cx="939.479" cy="1127.75" r="11.724" style="fill:rgb(255,118,0);"/>
    </g>
</svg>
