<?xml version="1.0" encoding="UTF-8" standalone="no"?>
<!DOCTYPE svg PUBLIC "-//W3C//DTD SVG 1.1//EN" "http://www.w3.org/Graphics/SVG/1.1/DTD/svg11.dtd">
<svg width="100%" height="100%" viewBox="0 0 1500 1500" version="1.1" xmlns="http://www.w3.org/2000/svg" xmlns:xlink="http://www.w3.org/1999/xlink" xml:space="preserve" xmlns:serif="http://www.serif.com/" style="fill-rule:evenodd;clip-rule:evenodd;stroke-linejoin:round;stroke-miterlimit:2;">
    <g transform="matrix(205.364,-3.18636e-30,-3.18636e-30,-205.364,-17845.4,29268)">
        <path d="M92.856,140.093L92.862,140.081L92.869,140.067L92.878,140.044L92.886,140.031L92.888,140.029L92.892,140.028L92.894,140.025L92.895,140.018L92.906,140.008L92.912,140.004L92.914,140.002L92.916,139.998L92.919,140L92.921,139.999L92.927,139.994L92.93,139.991L92.932,139.989L92.942,139.988L92.947,139.985L92.957,139.979L92.957,139.975L92.963,139.972L92.972,139.964L92.983,139.956L92.991,139.951L93.003,139.947L93.012,139.942L93.03,139.94L93.038,139.938L93.047,139.933L93.052,139.932L93.058,139.932L93.066,139.93L93.072,139.932L93.074,139.93L93.074,139.928L93.075,139.926L93.078,139.926L93.081,139.927L93.086,139.923L93.095,139.92L93.11,139.917L93.13,139.91L93.152,139.906L93.156,139.904L93.165,139.898L93.176,139.896L93.183,139.896L93.185,139.899L93.189,139.898L93.209,139.898L93.216,139.896L93.223,139.895L93.231,139.894L93.245,139.892L93.254,139.892L93.256,139.895L93.259,139.895L93.264,139.894L93.269,139.894L93.276,139.895L93.28,139.897L93.292,139.896L93.3,139.897L93.312,139.9L93.337,139.9L93.345,139.896L93.353,139.897L93.358,139.898L93.371,139.896L93.389,139.893L93.403,139.885L93.413,139.88L93.422,139.88L93.437,139.873L93.45,139.868L93.459,139.861L93.465,139.857L93.472,139.848L93.474,139.844L93.479,139.842L93.482,139.845L93.486,139.846L93.492,139.848L93.498,139.85L93.504,139.85L93.511,139.851L93.517,139.854L93.527,139.855L93.534,139.858L93.54,139.863L93.542,139.868L93.548,139.872L93.555,139.873L93.561,139.876L93.568,139.877L93.574,139.877L93.581,139.874L93.59,139.87L93.6,139.873L93.604,139.873L93.616,139.869L93.625,139.869L93.628,139.867L93.633,139.863L93.64,139.859L93.645,139.854L93.652,139.846L93.656,139.846L93.662,139.837L93.67,139.83L93.675,139.823L93.683,139.814L93.685,139.806L93.688,139.793L93.694,139.78L93.704,139.757L93.708,139.749L93.716,139.738L93.723,139.73L93.729,139.723L93.731,139.723L93.733,139.72L93.735,139.717L93.735,139.711L93.738,139.707L93.739,139.7L93.738,139.694L93.736,139.691L93.732,139.688L93.721,139.683L93.713,139.679L93.704,139.674L93.698,139.668L93.69,139.657L93.683,139.643L93.677,139.629L93.674,139.619L93.671,139.611L93.665,139.599L93.662,139.596L93.658,139.589L93.659,139.584L93.658,139.58L93.652,139.576L93.65,139.571L93.644,139.565L93.646,139.562L93.646,139.56L93.639,139.552L93.638,139.549L93.635,139.542L93.632,139.535L93.628,139.533L93.625,139.534L93.621,139.534L93.617,139.531L93.614,139.531L93.612,139.527L93.612,139.523L93.611,139.521L93.608,139.518L93.607,139.51L93.604,139.507L93.598,139.499L93.595,139.492L93.595,139.485L93.6,139.472L93.603,139.466L93.612,139.462L93.616,139.467L93.621,139.469L93.623,139.469L93.624,139.468L93.628,139.465L93.633,139.467L93.638,139.469L93.646,139.474L93.653,139.48L93.665,139.486L93.671,139.489L93.678,139.489L93.684,139.491L93.688,139.493L93.7,139.498L93.711,139.497L93.723,139.499L93.735,139.498L93.758,139.498L93.773,139.5L93.782,139.502L93.785,139.503L93.792,139.502L93.803,139.492L93.807,139.49L93.825,139.492L93.848,139.497L93.862,139.504L93.868,139.505L93.879,139.508L93.892,139.509L93.896,139.503L93.9,139.501L93.906,139.503L93.92,139.527L93.923,139.534L93.937,139.558L93.941,139.57L93.946,139.583L93.953,139.591L93.96,139.596L93.979,139.602L93.992,139.603L94.004,139.601L94.02,139.598L94.027,139.596L94.036,139.597L94.041,139.597L94.046,139.593L94.052,139.591L94.058,139.589L94.066,139.588L94.08,139.587L94.092,139.588L94.113,139.588L94.13,139.588L94.14,139.586L94.146,139.585L94.16,139.585L94.162,139.581L94.167,139.576L94.17,139.574L94.17,139.574L94.174,139.57L94.175,139.567L94.174,139.564L94.174,139.561L94.172,139.562L94.17,139.564L94.168,139.563L94.167,139.559L94.161,139.552L94.157,139.548L94.154,139.536L94.151,139.53L94.145,139.524L94.143,139.517L94.141,139.512L94.138,139.509L94.136,139.503L94.132,139.496L94.127,139.493L94.122,139.489L94.119,139.485L94.115,139.482L94.108,139.479L94.1,139.475L94.094,139.472L94.091,139.465L94.081,139.461L94.071,139.456L94.058,139.45L94.045,139.443L94.034,139.438L94.016,139.426L93.998,139.416L93.988,139.413L93.972,139.403L93.957,139.394L93.946,139.392L93.938,139.391L93.931,139.388L93.921,139.385L93.915,139.382L93.903,139.379L93.898,139.378L93.895,139.379L93.881,139.382L93.876,139.381L93.867,139.379L93.862,139.376L93.859,139.373L93.85,139.369L93.845,139.369L93.84,139.369L93.829,139.37L93.819,139.371L93.815,139.374L93.806,139.373L93.791,139.373L93.783,139.375L93.779,139.375L93.777,139.379L93.773,139.38L93.767,139.381L93.765,139.382L93.761,139.382L93.759,139.385L93.752,139.386L93.749,139.389L93.743,139.389L93.741,139.392L93.735,139.392L93.73,139.394L93.725,139.393L93.717,139.392L93.714,139.392L93.708,139.394L93.705,139.394L93.698,139.396L93.689,139.402L93.684,139.402L93.679,139.402L93.675,139.399L93.671,139.393L93.67,139.388L93.673,139.38L93.68,139.371L93.69,139.364L93.707,139.357L93.718,139.354L93.736,139.35L93.751,139.348L93.765,139.349L93.768,139.351L93.771,139.352L93.776,139.349L93.78,139.349L93.788,139.344L93.797,139.344L93.808,139.338L93.81,139.333L93.808,139.32L93.805,139.314L93.798,139.306L93.789,139.3L93.775,139.292L93.765,139.287L93.754,139.283L93.75,139.28L93.742,139.28L93.738,139.282L93.729,139.281L93.72,139.28L93.713,139.277L93.7,139.274L93.684,139.275L93.676,139.277L93.66,139.288L93.642,139.297L93.625,139.304L93.616,139.306L93.609,139.305L93.601,139.302L93.574,139.292L93.559,139.289L93.538,139.286L93.52,139.284L93.5,139.285L93.488,139.287L93.479,139.29L93.471,139.293L93.464,139.292L93.455,139.291L93.447,139.29L93.438,139.29L93.428,139.293L93.414,139.297L93.388,139.306L93.377,139.311L93.37,139.312L93.358,139.312L93.351,139.31L93.345,139.308L93.34,139.309L93.337,139.309L93.326,139.308L93.315,139.305L93.311,139.302L93.311,139.3L93.314,139.297L93.317,139.296L93.317,139.295L93.317,139.291L93.318,139.288L93.323,139.283L93.323,139.281L93.324,139.278L93.333,139.272L93.337,139.269L93.345,139.255L93.351,139.253L93.359,139.248L93.365,139.245L93.369,139.245L93.375,139.248L93.385,139.248L93.39,139.249L93.394,139.247L93.402,139.248L93.405,139.25L93.42,139.249L93.426,139.251L93.431,139.249L93.439,139.246L93.448,139.243L93.455,139.239L93.462,139.237L93.479,139.233L93.491,139.23L93.506,139.228L93.514,139.225L93.534,139.213L93.542,139.206L93.553,139.198L93.564,139.191L93.573,139.185L93.586,139.18L93.597,139.171L93.598,139.165L93.598,139.161L93.595,139.158L93.59,139.152L93.583,139.146L93.576,139.142L93.569,139.141L93.563,139.135L93.558,139.132L93.54,139.127L93.533,139.122L93.522,139.117L93.52,139.112L93.517,139.108L93.511,139.108L93.504,139.103L93.495,139.1L93.484,139.096L93.471,139.091L93.461,139.088L93.456,139.078L93.453,139.076L93.448,139.079L93.444,139.077L93.438,139.074L93.436,139.074L93.426,139.07L93.423,139.067L93.422,139.069L93.417,139.071L93.409,139.072L93.403,139.072L93.399,139.065L93.395,139.069L93.389,139.067L93.382,139.06L93.376,139.057L93.373,139.057L93.364,139.059L93.357,139.059L93.346,139.055L93.339,139.051L93.331,139.049L93.321,139.049L93.308,139.044L93.295,139.044L93.289,139.041L93.277,139.037L93.272,139.031L93.27,139.031L93.267,139.033L93.253,139.03L93.25,139.026L93.232,139.024L93.2,139.023L93.192,139.022L93.17,139.018L93.161,139.011L93.154,139.01L93.139,139.006L93.124,139L93.11,138.994L93.097,138.992L93.077,138.993L93.066,138.994L93.057,139L93.052,139L93.044,138.998L93.04,139.002L93.028,139.012L93.018,139.024L93.009,139.037L93.008,139.039L93.005,139.049L92.998,139.059L92.999,139.066L92.993,139.084L92.985,139.104L92.98,139.12L92.967,139.137L92.948,139.159L92.933,139.17L92.931,139.181L92.929,139.199L92.931,139.221L92.931,139.226L92.934,139.227L92.934,139.235L92.936,139.242L92.939,139.246L92.948,139.254L92.961,139.263L92.968,139.267L92.978,139.269L92.992,139.268L93.001,139.271L93.006,139.274L93.009,139.28L93.016,139.284L93.02,139.289L93.024,139.295L93.034,139.302L93.035,139.308L93.039,139.313L93.04,139.319L93.036,139.328L93.031,139.337L93.02,139.343L93.01,139.348L92.999,139.352L92.984,139.355L92.954,139.357L92.949,139.357L92.94,139.371L92.935,139.373L92.928,139.377L92.92,139.385L92.917,139.387L92.915,139.398L92.915,139.404L92.921,139.412L92.928,139.419L92.931,139.425L92.937,139.43L92.948,139.432L92.954,139.433L92.962,139.435L92.969,139.438L92.976,139.441L92.989,139.442L92.997,139.441L93,139.437L93.012,139.432L93.027,139.425L93.04,139.421L93.055,139.42L93.071,139.42L93.084,139.422L93.107,139.427L93.116,139.425L93.12,139.424L93.128,139.42L93.14,139.416L93.146,139.417L93.154,139.414L93.159,139.414L93.171,139.414L93.176,139.416L93.186,139.414L93.204,139.414L93.208,139.417L93.213,139.416L93.224,139.419L93.226,139.422L93.235,139.424L93.24,139.427L93.251,139.429L93.252,139.432L93.262,139.44L93.266,139.442L93.268,139.447L93.27,139.451L93.277,139.451L93.279,139.453L93.28,139.457L93.275,139.462L93.268,139.468L93.257,139.478L93.245,139.489L93.234,139.494L93.23,139.495L93.219,139.499L93.209,139.506L93.196,139.514L93.179,139.52L93.154,139.531L93.136,139.538L93.12,139.543L93.115,139.542L93.11,139.543L93.108,139.546L93.101,139.547L93.094,139.547L93.089,139.545L93.09,139.542L93.09,139.531L93.089,139.528L93.085,139.527L93.073,139.525L93.064,139.526L93.06,139.526L93.056,139.531L93.053,139.533L93.048,139.531L93.039,139.53L93.025,139.531L93.013,139.534L93.001,139.536L92.989,139.54L92.984,139.539L92.977,139.539L92.969,139.542L92.959,139.542L92.952,139.541L92.946,139.543L92.942,139.543L92.935,139.539L92.93,139.539L92.926,139.536L92.923,139.536L92.921,139.538L92.922,139.541L92.918,139.542L92.912,139.549L92.898,139.56L92.868,139.571L92.844,139.578L92.816,139.583L92.787,139.588L92.757,139.594L92.726,139.599L92.691,139.609L92.675,139.613L92.659,139.623L92.64,139.631L92.618,139.64L92.609,139.648L92.583,139.667L92.576,139.675L92.569,139.681L92.558,139.688L92.548,139.693L92.548,139.694L92.548,139.694L92.541,139.694L92.533,139.699L92.515,139.711L92.491,139.725L92.456,139.74L92.441,139.745L92.432,139.747L92.422,139.748L92.414,139.75L92.408,139.752L92.407,139.756L92.403,139.764L92.4,139.771L92.383,139.791L92.375,139.794L92.365,139.797L92.355,139.797L92.344,139.797L92.337,139.795L92.33,139.791L92.325,139.791L92.302,139.791L92.289,139.789L92.28,139.791L92.277,139.793L92.271,139.798L92.267,139.806L92.264,139.808L92.253,139.81L92.245,139.81L92.235,139.806L92.22,139.808L92.205,139.809L92.186,139.811L92.168,139.81L92.163,139.809L92.159,139.806L92.156,139.802L92.156,139.798L92.158,139.792L92.154,139.781L92.145,139.766L92.137,139.755L92.129,139.751L92.114,139.75L92.109,139.75L92.105,139.753L92.099,139.75L92.094,139.752L92.076,139.748L92.061,139.746L92.056,139.742L92.049,139.741L92.045,139.744L92.037,139.738L92.027,139.735L92.016,139.736L92.012,139.736L92.008,139.742L92.005,139.742L91.99,139.74L91.977,139.737L91.965,139.736L91.955,139.736L91.943,139.734L91.935,139.733L91.928,139.734L91.924,139.734L91.921,139.73L91.916,139.73L91.908,139.726L91.904,139.725L91.899,139.722L91.899,139.72L91.902,139.716L91.902,139.713L91.904,139.706L91.904,139.701L91.901,139.696L91.898,139.686L91.899,139.682L91.904,139.674L91.911,139.667L91.919,139.663L91.928,139.656L91.935,139.644L91.937,139.634L91.936,139.629L91.932,139.623L91.934,139.614L91.932,139.61L91.926,139.605L91.914,139.593L91.898,139.586L91.882,139.58L91.872,139.573L91.86,139.57L91.823,139.561L91.793,139.559L91.764,139.562L91.73,139.564L91.707,139.565L91.691,139.563L91.669,139.561L91.663,139.559L91.642,139.557L91.608,139.553L91.583,139.553L91.569,139.554L91.562,139.558L91.556,139.562L91.553,139.568L91.549,139.564L91.542,139.565L91.535,139.566L91.53,139.565L91.525,139.563L91.511,139.563L91.504,139.562L91.497,139.562L91.49,139.565L91.485,139.564L91.481,139.563L91.474,139.563L91.467,139.565L91.434,139.567L91.414,139.565L91.363,139.562L91.305,139.562L91.251,139.56L91.209,139.56L91.204,139.557L91.196,139.555L91.177,139.555L91.165,139.555L91.158,139.552L91.154,139.549L91.151,139.545L91.151,139.54L91.154,139.534L91.157,139.525L91.144,139.519L91.138,139.517L91.134,139.518L91.119,139.509L91.109,139.506L91.084,139.499L91.078,139.498L91.072,139.499L91.066,139.497L91.059,139.49L91.05,139.488L91.031,139.483L91.024,139.479L91.009,139.472L90.979,139.458L90.958,139.446L90.937,139.435L90.926,139.428L90.922,139.422L90.919,139.421L90.915,139.422L90.908,139.421L90.9,139.413L90.877,139.392L90.857,139.376L90.843,139.367L90.824,139.353L90.81,139.339L90.789,139.323L90.772,139.309L90.766,139.304L90.756,139.302L90.753,139.299L90.748,139.3L90.739,139.295L90.726,139.291L90.724,139.284L90.723,139.279L90.719,139.279L90.714,139.278L90.708,139.275L90.703,139.269L90.695,139.268L90.69,139.263L90.685,139.255L90.682,139.253L90.677,139.253L90.672,139.252L90.664,139.248L90.659,139.243L90.649,139.24L90.633,139.239L90.624,139.239L90.616,139.239L90.61,139.244L90.606,139.249L90.602,139.254L90.596,139.259L90.584,139.262L90.577,139.266L90.57,139.268L90.56,139.269L90.547,139.27L90.54,139.269L90.533,139.27L90.524,139.27L90.519,139.27L90.506,139.273L90.502,139.28L90.495,139.287L90.482,139.299L90.476,139.3L90.473,139.305L90.463,139.312L90.455,139.322L90.446,139.332L90.433,139.343L90.426,139.351L90.411,139.358L90.395,139.364L90.381,139.371L90.361,139.376L90.324,139.377L90.309,139.38L90.302,139.38L90.291,139.377L90.283,139.379L90.269,139.379L90.264,139.382L90.252,139.383L90.235,139.382L90.223,139.38L90.215,139.383L90.21,139.386L90.204,139.387L90.198,139.387L90.195,139.383L90.189,139.382L90.18,139.38L90.171,139.38L90.151,139.378L90.124,139.376L90.101,139.377L90.078,139.377L90.068,139.378L90.057,139.383L90.046,139.382L90.034,139.382L90.025,139.385L90.015,139.388L90.006,139.387L90.003,139.386L89.998,139.389L89.991,139.387L89.984,139.387L89.971,139.389L89.952,139.39L89.928,139.391L89.898,139.396L89.874,139.404L89.857,139.407L89.837,139.409L89.811,139.41L89.777,139.41L89.767,139.411L89.762,139.41L89.756,139.404L89.751,139.402L89.743,139.404L89.727,139.397L89.715,139.39L89.706,139.382L89.695,139.375L89.688,139.368L89.685,139.364L89.672,139.355L89.656,139.346L89.646,139.342L89.637,139.337L89.629,139.335L89.625,139.331L89.614,139.329L89.609,139.324L89.602,139.322L89.591,139.316L89.584,139.311L89.576,139.307L89.571,139.301L89.563,139.291L89.555,139.283L89.545,139.272L89.534,139.243L89.532,139.225L89.529,139.212L89.524,139.208L89.52,139.201L89.52,139.194L89.516,139.186L89.509,139.175L89.499,139.162L89.489,139.152L89.478,139.141L89.468,139.136L89.447,139.122L89.426,139.1L89.41,139.088L89.381,139.071L89.361,139.059L89.343,139.054L89.336,139.049L89.331,139.048L89.324,139.041L89.307,139.034L89.292,139.025L89.27,139.008L89.245,138.997L89.242,138.993L89.208,138.978L89.182,138.965L89.17,138.961L89.152,138.955L89.139,138.947L89.121,138.938L89.098,138.922L89.073,138.901L89.059,138.891L89.043,138.876L89.043,138.873L89.036,138.872L89.027,138.861L89.017,138.851L89.014,138.845L89.002,138.831L88.994,138.82L88.99,138.818L88.98,138.806L88.969,138.788L88.963,138.777L88.958,138.772L88.951,138.758L88.95,138.736L88.945,138.724L88.944,138.715L88.926,138.673L88.917,138.654L88.908,138.642L88.894,138.632L88.883,138.628L88.868,138.617L88.856,138.603L88.85,138.587L88.848,138.563L88.846,138.545L88.842,138.537L88.842,138.533L88.837,138.527L88.838,138.521L88.832,138.514L88.824,138.504L88.825,138.499L88.821,138.499L88.815,138.498L88.809,138.488L88.803,138.483L88.791,138.48L88.782,138.473L88.771,138.47L88.762,138.465L88.753,138.457L88.75,138.452L88.74,138.444L88.723,138.429L88.716,138.421L88.691,138.408L88.687,138.411L88.681,138.407L88.676,138.404L88.673,138.4L88.67,138.387L88.665,138.372L88.661,138.366L88.651,138.352L88.638,138.342L88.618,138.328L88.594,138.313L88.576,138.302L88.571,138.302L88.568,138.299L88.552,138.29L88.544,138.283L88.531,138.279L88.522,138.272L88.503,138.259L88.492,138.247L88.487,138.245L88.48,138.245L88.478,138.24L88.469,138.231L88.45,138.218L88.434,138.209L88.418,138.203L88.404,138.194L88.397,138.187L88.392,138.178L88.387,138.167L88.383,138.166L88.382,138.152L88.377,138.153L88.377,138.151L88.378,138.146L88.372,138.145L88.372,138.136L88.369,138.126L88.367,138.117L88.368,138.114L88.364,138.105L88.367,138.091L88.379,138.076L88.39,138.067L88.393,138.066L88.401,138.06L88.414,138.06L88.419,138.057L88.429,138.056L88.435,138.054L88.442,138.049L88.446,138.05L88.453,138.052L88.464,138.058L88.475,138.056L88.484,138.052L88.492,138.045L88.496,138.038L88.495,138.03L88.498,138.024L88.501,138.014L88.5,138.003L88.501,137.989L88.501,137.976L88.498,137.969L88.49,137.963L88.488,137.958L88.484,137.955L88.473,137.945L88.457,137.934L88.442,137.928L88.419,137.926L88.411,137.927L88.402,137.936L88.387,137.946L88.377,137.951L88.373,137.95L88.368,137.955L88.358,137.959L88.348,137.961L88.337,137.964L88.332,137.967L88.328,137.97L88.325,137.975L88.322,137.975L88.322,137.989L88.319,137.996L88.315,138.003L88.315,138.015L88.315,138.021L88.322,138.035L88.323,138.044L88.326,138.047L88.327,138.05L88.325,138.054L88.319,138.058L88.309,138.068L88.299,138.08L88.288,138.089L88.279,138.096L88.275,138.098L88.27,138.096L88.261,138.099L88.255,138.099L88.248,138.097L88.245,138.094L88.238,138.094L88.229,138.096L88.219,138.093L88.209,138.094L88.191,138.096L88.17,138.098L88.159,138.096L88.158,138.093L88.149,138.093L88.145,138.09L88.135,138.085L88.124,138.081L88.123,138.077L88.121,138.075L88.11,138.07L88.097,138.054L88.095,138.042L88.096,138.036L88.093,138.031L88.092,138.017L88.091,138.003L88.09,137.99L88.088,137.979L88.084,137.976L88.065,137.962L88.061,137.958L88.057,137.958L88.048,137.957L88.046,137.954L88.041,137.951L88.034,137.95L88.025,137.944L88.006,137.934L87.983,137.924L87.944,137.905L87.92,137.895L87.913,137.891L87.896,137.886L87.887,137.887L87.875,137.884L87.822,137.874L87.783,137.865L87.689,137.833L87.676,137.832L87.659,137.832L87.645,137.831L87.622,137.828L87.571,137.83L87.532,137.831L87.51,137.831L87.459,137.822L87.417,137.818L87.379,137.819L87.338,137.828L87.312,137.833L87.308,137.836L87.304,137.835L87.299,137.837L87.286,137.844L87.28,137.853L87.279,137.86L87.274,137.862L87.271,137.866L87.268,137.876L87.265,137.881L87.258,137.883L87.255,137.887L87.252,137.893L87.252,137.898L87.252,137.904L87.249,137.906L87.242,137.917L87.244,137.92L87.244,137.926L87.243,137.933L87.244,137.942L87.242,137.946L87.233,137.948L87.228,137.946L87.223,137.944L87.222,137.935L87.227,137.933L87.226,137.927L87.222,137.918L87.218,137.916L87.209,137.918L87.213,137.912L87.213,137.91L87.211,137.906L87.205,137.903L87.195,137.893L87.183,137.891L87.177,137.892L87.17,137.896L87.159,137.896L87.148,137.893L87.146,137.887L87.135,137.886L87.124,137.889L87.119,137.893L87.114,137.904L87.114,137.914L87.12,137.924L87.124,137.928L87.127,137.93L87.137,137.926L87.145,137.929L87.149,137.931L87.152,137.93L87.156,137.93L87.16,137.934L87.164,137.934L87.169,137.937L87.172,137.944L87.173,137.949L87.171,137.956L87.16,137.964L87.149,137.964L87.145,137.968L87.137,137.971L87.131,137.97L87.127,137.974L87.123,137.969L87.121,137.964L87.115,137.961L87.115,137.955L87.113,137.953L87.106,137.952L87.101,137.95L87.099,137.943L87.096,137.939L87.088,137.935L87.079,137.932L87.067,137.928L87.06,137.926L87.053,137.924L87.043,137.924L87.038,137.928L87.034,137.923L87.03,137.921L87.024,137.924L87.012,137.919L87.012,137.922L87.01,137.927L87.002,137.932L86.997,137.931L86.994,137.924L86.99,137.92L86.986,137.928L86.982,137.932L86.978,137.934L86.973,137.942L86.972,137.944L86.972,137.953L86.972,137.967L86.972,137.976L86.974,137.986L86.97,137.993L86.968,137.998L86.965,137.999L86.962,138.012L86.952,138.021L86.948,138.032L86.94,138.041L86.933,138.047L86.926,138.05L86.921,138.056L86.922,138.063L86.926,138.069L86.928,138.073L86.936,138.076L86.946,138.079L86.956,138.089L86.96,138.094L86.959,138.101L86.961,138.104L86.966,138.103L86.966,138.106L86.968,138.106L86.973,138.103L86.978,138.105L86.984,138.109L86.993,138.113L86.999,138.119L87.002,138.126L87.006,138.131L87.011,138.141L87.014,138.147L87.018,138.151L87.024,138.155L87.031,138.16L87.034,138.161L87.04,138.162L87.042,138.167L87.046,138.174L87.049,138.191L87.052,138.193L87.058,138.197L87.06,138.202L87.062,138.209L87.065,138.216L87.069,138.223L87.071,138.226L87.075,138.226L87.079,138.228L87.082,138.232L87.081,138.237L87.083,138.245L87.086,138.247L87.093,138.248L87.1,138.252L87.104,138.257L87.118,138.26L87.128,138.267L87.138,138.276L87.14,138.282L87.148,138.285L87.152,138.29L87.157,138.29L87.163,138.292L87.171,138.299L87.179,138.308L87.195,138.331L87.2,138.334L87.207,138.334L87.215,138.33L87.224,138.327L87.231,138.326L87.243,138.33L87.264,138.334L87.276,138.342L87.288,138.356L87.305,138.372L87.318,138.377L87.337,138.384L87.342,138.391L87.354,138.4L87.371,138.412L87.382,138.419L87.393,138.419L87.402,138.418L87.403,138.422L87.409,138.422L87.413,138.425L87.415,138.429L87.423,138.433L87.434,138.435L87.447,138.437L87.457,138.437L87.465,138.438L87.469,138.441L87.478,138.445L87.484,138.445L87.493,138.443L87.497,138.436L87.501,138.434L87.509,138.434L87.511,138.433L87.519,138.427L87.523,138.427L87.53,138.429L87.538,138.433L87.542,138.431L87.548,138.428L87.554,138.427L87.563,138.427L87.571,138.431L87.576,138.431L87.584,138.428L87.588,138.424L87.596,138.431L87.605,138.437L87.612,138.438L87.62,138.442L87.632,138.447L87.644,138.448L87.652,138.453L87.657,138.459L87.66,138.467L87.666,138.472L87.672,138.475L87.678,138.473L87.682,138.47L87.693,138.469L87.689,138.463L87.685,138.46L87.692,138.46L87.693,138.457L87.696,138.455L87.696,138.45L87.698,138.447L87.706,138.443L87.706,138.44L87.711,138.435L87.711,138.428L87.713,138.418L87.723,138.416L87.729,138.417L87.731,138.421L87.731,138.436L87.733,138.444L87.739,138.447L87.749,138.449L87.76,138.447L87.785,138.443L87.789,138.441L87.797,138.438L87.803,138.441L87.807,138.437L87.814,138.432L87.819,138.433L87.829,138.437L87.833,138.436L87.84,138.432L87.844,138.431L87.85,138.427L87.858,138.43L87.866,138.43L87.877,138.431L87.884,138.427L87.893,138.426L87.896,138.422L87.899,138.42L87.905,138.418L87.911,138.415L87.915,138.408L87.92,138.408L87.928,138.408L87.938,138.403L87.943,138.403L87.947,138.404L87.95,138.408L87.951,138.413L87.951,138.418L87.95,138.423L87.947,138.425L87.942,138.426L87.942,138.422L87.939,138.417L87.937,138.417L87.935,138.42L87.931,138.424L87.929,138.427L87.925,138.427L87.922,138.43L87.927,138.438L87.924,138.449L87.922,138.456L87.919,138.467L87.918,138.474L87.92,138.477L87.927,138.481L87.93,138.49L87.932,138.491L87.944,138.502L87.953,138.513L87.956,138.521L87.96,138.531L87.964,138.535L87.968,138.538L87.974,138.541L87.981,138.542L87.987,138.541L87.992,138.549L87.995,138.55L87.999,138.547L88.003,138.546L88.005,138.547L88.01,138.554L88.017,138.557L88.019,138.562L88.018,138.568L88.01,138.574L87.999,138.587L87.993,138.596L87.995,138.602L87.994,138.608L87.99,138.608L87.987,138.614L87.981,138.633L87.984,138.64L87.981,138.648L87.982,138.655L87.986,138.661L87.986,138.665L87.981,138.666L87.982,138.669L87.987,138.672L87.987,138.676L87.989,138.679L87.994,138.678L87.996,138.681L87.998,138.685L88.003,138.685L88.006,138.687L88.011,138.694L88.024,138.697L88.038,138.703L88.04,138.708L88.043,138.711L88.05,138.712L88.054,138.721L88.058,138.726L88.065,138.727L88.071,138.729L88.08,138.739L88.086,138.747L88.099,138.759L88.109,138.768L88.115,138.776L88.124,138.786L88.139,138.808L88.14,138.818L88.145,138.822L88.156,138.83L88.159,138.838L88.164,138.841L88.179,138.853L88.185,138.861L88.195,138.868L88.195,138.871L88.199,138.877L88.207,138.883L88.209,138.883L88.213,138.882L88.214,138.883L88.215,138.887L88.216,138.893L88.221,138.898L88.222,138.902L88.223,138.904L88.235,138.911L88.244,138.924L88.252,138.93L88.254,138.935L88.254,138.944L88.256,138.956L88.254,138.971L88.255,138.981L88.25,138.997L88.251,139.008L88.252,139.013L88.254,139.018L88.262,139.028L88.268,139.043L88.278,139.059L88.285,139.071L88.288,139.085L88.289,139.097L88.292,139.108L88.295,139.118L88.297,139.122L88.303,139.122L88.311,139.125L88.317,139.122L88.333,139.124L88.347,139.125L88.36,139.125L88.372,139.127L88.381,139.131L88.394,139.139L88.399,139.14L88.405,139.14L88.414,139.14L88.419,139.14L88.424,139.142L88.429,139.144L88.432,139.144L88.437,139.149L88.441,139.15L88.447,139.148L88.452,139.152L88.458,139.152L88.461,139.15L88.472,139.154L88.488,139.161L88.5,139.167L88.505,139.17L88.507,139.174L88.507,139.178L88.515,139.182L88.52,139.182L88.528,139.183L88.533,139.189L88.539,139.188L88.546,139.184L88.548,139.181L88.551,139.182L88.554,139.186L88.559,139.189L88.566,139.196L88.57,139.198L88.571,139.2L88.57,139.202L88.575,139.205L88.586,139.213L88.592,139.219L88.595,139.228L88.598,139.235L88.606,139.243L88.612,139.248L88.619,139.25L88.625,139.249L88.625,139.253L88.64,139.256L88.649,139.258L88.655,139.259L88.658,139.253L88.666,139.259L88.675,139.26L88.679,139.262L88.681,139.264L88.696,139.27L88.7,139.275L88.706,139.275L88.71,139.277L88.718,139.277L88.727,139.275L88.744,139.273L88.759,139.273L88.771,139.274L88.791,139.274L88.815,139.274L88.823,139.275L88.831,139.272L88.839,139.265L88.846,139.262L88.85,139.265L88.856,139.266L88.863,139.266L88.873,139.266L88.88,139.267L88.895,139.272L88.905,139.274L88.911,139.28L88.922,139.28L88.928,139.286L88.933,139.293L88.937,139.298L88.942,139.298L88.947,139.3L88.952,139.311L88.952,139.315L88.955,139.318L88.963,139.321L88.967,139.326L88.975,139.326L88.977,139.331L88.983,139.337L88.988,139.343L88.996,139.349L88.998,139.353L89.013,139.359L89.013,139.362L89.019,139.363L89.022,139.365L89.031,139.373L89.037,139.383L89.049,139.395L89.061,139.395L89.063,139.396L89.065,139.398L89.072,139.396L89.078,139.392L89.083,139.391L89.092,139.392L89.098,139.395L89.104,139.396L89.11,139.404L89.118,139.413L89.125,139.423L89.132,139.426L89.143,139.435L89.149,139.435L89.15,139.437L89.153,139.437L89.156,139.434L89.159,139.435L89.161,139.437L89.167,139.437L89.174,139.443L89.177,139.44L89.179,139.441L89.182,139.443L89.197,139.451L89.208,139.455L89.209,139.458L89.209,139.463L89.211,139.465L89.218,139.467L89.225,139.469L89.226,139.472L89.232,139.477L89.255,139.481L89.268,139.481L89.28,139.484L89.288,139.485L89.292,139.487L89.3,139.489L89.316,139.489L89.325,139.489L89.336,139.486L89.349,139.487L89.356,139.49L89.364,139.489L89.373,139.489L89.38,139.488L89.384,139.488L89.39,139.484L89.393,139.487L89.399,139.486L89.403,139.487L89.405,139.489L89.41,139.487L89.413,139.488L89.413,139.49L89.417,139.49L89.438,139.496L89.441,139.498L89.442,139.5L89.448,139.5L89.466,139.514L89.466,139.514L89.477,139.525L89.484,139.533L89.489,139.542L89.5,139.548L89.5,139.551L89.503,139.558L89.507,139.563L89.518,139.568L89.524,139.572L89.529,139.58L89.536,139.582L89.539,139.589L89.542,139.593L89.549,139.599L89.549,139.603L89.555,139.607L89.562,139.615L89.566,139.619L89.572,139.622L89.579,139.623L89.584,139.626L89.588,139.629L89.596,139.627L89.612,139.624L89.616,139.626L89.618,139.63L89.618,139.633L89.617,139.636L89.619,139.638L89.621,139.64L89.624,139.646L89.625,139.647L89.625,139.658L89.629,139.663L89.632,139.67L89.634,139.68L89.632,139.683L89.63,139.688L89.63,139.699L89.636,139.709L89.638,139.714L89.64,139.715L89.651,139.716L89.653,139.717L89.654,139.724L89.656,139.735L89.657,139.741L89.658,139.745L89.661,139.746L89.664,139.75L89.665,139.76L89.665,139.763L89.66,139.763L89.657,139.765L89.659,139.768L89.664,139.77L89.677,139.78L89.685,139.78L89.693,139.78L89.698,139.779L89.701,139.779L89.705,139.781L89.712,139.782L89.713,139.786L89.718,139.787L89.72,139.791L89.732,139.791L89.733,139.795L89.736,139.796L89.739,139.794L89.739,139.793L89.744,139.792L89.753,139.794L89.757,139.796L89.765,139.796L89.77,139.796L89.776,139.799L89.78,139.798L89.783,139.798L89.786,139.802L89.788,139.803L89.792,139.801L89.797,139.802L89.798,139.804L89.802,139.803L89.809,139.805L89.813,139.812L89.812,139.814L89.814,139.819L89.818,139.824L89.83,139.827L89.84,139.826L89.845,139.823L89.85,139.822L89.864,139.822L89.879,139.826L89.885,139.829L89.892,139.83L89.896,139.83L89.899,139.826L89.904,139.826L89.912,139.828L89.911,139.825L89.91,139.822L89.918,139.818L89.916,139.816L89.916,139.812L89.92,139.809L89.93,139.799L89.932,139.796L89.934,139.788L89.933,139.775L89.935,139.769L89.943,139.769L89.959,139.77L89.982,139.762L89.996,139.756L90.005,139.757L90.019,139.758L90.019,139.761L90.021,139.762L90.023,139.761L90.027,139.761L90.03,139.764L90.035,139.764L90.044,139.77L90.047,139.774L90.052,139.776L90.052,139.778L90.054,139.779L90.057,139.778L90.062,139.778L90.064,139.779L90.066,139.777L90.069,139.777L90.074,139.778L90.083,139.777L90.088,139.776L90.102,139.776L90.109,139.777L90.112,139.779L90.115,139.779L90.128,139.781L90.135,139.786L90.141,139.789L90.15,139.79L90.155,139.788L90.164,139.793L90.17,139.793L90.183,139.798L90.187,139.798L90.19,139.797L90.198,139.8L90.205,139.804L90.214,139.805L90.22,139.809L90.226,139.816L90.228,139.82L90.231,139.823L90.232,139.827L90.231,139.831L90.228,139.833L90.224,139.835L90.223,139.841L90.223,139.845L90.226,139.847L90.229,139.848L90.23,139.851L90.231,139.853L90.235,139.853L90.236,139.855L90.237,139.866L90.236,139.874L90.234,139.881L90.233,139.883L90.232,139.89L90.23,139.891L90.227,139.892L90.225,139.897L90.222,139.898L90.22,139.903L90.22,139.907L90.218,139.918L90.221,139.927L90.223,139.931L90.23,139.941L90.234,139.944L90.239,139.948L90.251,139.949L90.271,139.948L90.277,139.945L90.28,139.941L90.289,139.936L90.3,139.932L90.313,139.927L90.319,139.923L90.321,139.92L90.328,139.92L90.339,139.914L90.342,139.912L90.349,139.895L90.35,139.889L90.351,139.885L90.356,139.885L90.356,139.88L90.359,139.876L90.36,139.873L90.359,139.87L90.354,139.868L90.362,139.857L90.364,139.851L90.363,139.838L90.363,139.83L90.363,139.828L90.361,139.828L90.358,139.829L90.355,139.826L90.355,139.821L90.352,139.822L90.348,139.82L90.345,139.817L90.34,139.817L90.336,139.816L90.333,139.811L90.329,139.809L90.329,139.806L90.332,139.805L90.345,139.808L90.349,139.807L90.351,139.806L90.351,139.805L90.348,139.805L90.347,139.802L90.349,139.799L90.351,139.798L90.352,139.796L90.351,139.795L90.348,139.794L90.348,139.793L90.349,139.791L90.353,139.784L90.351,139.781L90.349,139.78L90.349,139.773L90.349,139.765L90.351,139.76L90.349,139.756L90.352,139.752L90.353,139.749L90.353,139.746L90.352,139.744L90.348,139.744L90.348,139.738L90.349,139.733L90.347,139.727L90.347,139.724L90.344,139.724L90.342,139.721L90.342,139.717L90.345,139.714L90.347,139.712L90.351,139.715L90.355,139.718L90.361,139.719L90.365,139.722L90.372,139.722L90.379,139.723L90.381,139.727L90.386,139.728L90.395,139.728L90.395,139.73L90.396,139.731L90.4,139.728L90.403,139.728L90.416,139.733L90.419,139.736L90.425,139.737L90.426,139.742L90.432,139.743L90.433,139.745L90.438,139.746L90.439,139.749L90.448,139.752L90.469,139.755L90.49,139.755L90.497,139.753L90.511,139.75L90.515,139.753L90.518,139.75L90.523,139.75L90.524,139.753L90.527,139.754L90.532,139.757L90.551,139.76L90.56,139.764L90.569,139.765L90.572,139.768L90.578,139.772L90.586,139.773L90.592,139.773L90.598,139.776L90.604,139.777L90.61,139.777L90.613,139.776L90.619,139.775L90.623,139.773L90.627,139.769L90.628,139.764L90.63,139.758L90.633,139.756L90.636,139.754L90.637,139.75L90.635,139.748L90.635,139.744L90.631,139.742L90.632,139.74L90.635,139.737L90.637,139.734L90.637,139.728L90.637,139.718L90.639,139.71L90.639,139.707L90.644,139.703L90.647,139.701L90.645,139.692L90.651,139.685L90.654,139.683L90.656,139.678L90.657,139.674L90.667,139.671L90.675,139.665L90.687,139.657L90.695,139.653L90.698,139.653L90.704,139.655L90.704,139.659L90.699,139.658L90.691,139.659L90.686,139.661L90.681,139.666L90.678,139.669L90.679,139.671L90.68,139.673L90.682,139.675L90.684,139.678L90.689,139.686L90.695,139.697L90.695,139.702L90.696,139.706L90.699,139.709L90.706,139.721L90.707,139.719L90.709,139.718L90.714,139.716L90.714,139.719L90.717,139.724L90.718,139.72L90.716,139.717L90.717,139.715L90.719,139.712L90.726,139.71L90.73,139.709L90.732,139.712L90.735,139.718L90.738,139.723L90.74,139.716L90.74,139.713L90.738,139.71L90.74,139.708L90.745,139.706L90.748,139.708L90.748,139.71L90.751,139.707L90.749,139.7L90.752,139.697L90.757,139.696L90.764,139.692L90.776,139.688L90.779,139.689L90.782,139.689L90.777,139.683L90.778,139.678L90.777,139.671L90.775,139.67L90.771,139.668L90.772,139.666L90.775,139.665L90.775,139.656L90.77,139.655L90.771,139.65L90.769,139.646L90.768,139.642L90.764,139.643L90.762,139.642L90.759,139.636L90.759,139.633L90.768,139.632L90.773,139.632L90.779,139.636L90.792,139.652L90.795,139.661L90.8,139.68L90.804,139.694L90.807,139.7L90.807,139.705L90.809,139.711L90.809,139.723L90.822,139.745L90.833,139.752L90.848,139.758L90.867,139.762L90.882,139.764L90.894,139.765L90.905,139.764L90.918,139.763L90.927,139.759L90.937,139.754L90.947,139.747L90.948,139.742L90.954,139.738L90.955,139.735L90.952,139.732L90.952,139.73L90.955,139.727L90.957,139.724L90.962,139.723L90.966,139.723L90.97,139.721L90.971,139.716L90.976,139.716L90.983,139.712L90.986,139.709L90.986,139.706L90.991,139.705L90.994,139.704L91.004,139.697L91.005,139.692L91.01,139.691L91.016,139.692L91.024,139.695L91.029,139.7L91.033,139.709L91.036,139.711L91.038,139.711L91.042,139.711L91.044,139.714L91.049,139.712L91.053,139.711L91.059,139.706L91.063,139.704L91.069,139.703L91.073,139.705L91.073,139.707L91.073,139.709L91.078,139.716L91.086,139.72L91.092,139.723L91.098,139.725L91.112,139.735L91.119,139.735L91.124,139.734L91.131,139.73L91.136,139.728L91.14,139.72L91.141,139.713L91.137,139.709L91.131,139.706L91.125,139.706L91.118,139.704L91.118,139.7L91.114,139.693L91.11,139.691L91.106,139.691L91.104,139.684L91.101,139.676L91.098,139.669L91.102,139.667L91.106,139.664L91.111,139.662L91.119,139.661L91.126,139.661L91.133,139.665L91.137,139.667L91.141,139.671L91.144,139.671L91.144,139.672L91.145,139.679L91.151,139.686L91.154,139.693L91.158,139.698L91.161,139.705L91.16,139.709L91.156,139.711L91.152,139.711L91.149,139.709L91.147,139.71L91.146,139.714L91.146,139.716L91.15,139.721L91.151,139.727L91.151,139.73L91.149,139.731L91.15,139.736L91.149,139.741L91.146,139.743L91.146,139.745L91.147,139.746L91.151,139.749L91.159,139.753L91.172,139.759L91.185,139.763L91.193,139.765L91.203,139.766L91.211,139.765L91.222,139.762L91.231,139.766L91.243,139.769L91.256,139.774L91.263,139.777L91.269,139.776L91.275,139.772L91.279,139.768L91.284,139.759L91.284,139.756L91.28,139.752L91.279,139.749L91.276,139.744L91.277,139.741L91.283,139.736L91.286,139.735L91.291,139.738L91.297,139.739L91.305,139.743L91.311,139.746L91.32,139.748L91.327,139.747L91.334,139.746L91.34,139.743L91.346,139.741L91.351,139.736L91.357,139.728L91.365,139.704L91.37,139.68L91.372,139.673L91.37,139.669L91.373,139.666L91.376,139.664L91.381,139.655L91.382,139.653L91.39,139.651L91.392,139.65L91.393,139.647L91.391,139.641L91.4,139.633L91.406,139.631L91.41,139.632L91.412,139.638L91.414,139.641L91.417,139.645L91.423,139.651L91.428,139.651L91.431,139.654L91.433,139.656L91.444,139.659L91.446,139.662L91.447,139.663L91.449,139.663L91.456,139.665L91.464,139.666L91.47,139.667L91.472,139.67L91.477,139.671L91.48,139.676L91.488,139.677L91.492,139.68L91.498,139.681L91.501,139.685L91.503,139.686L91.509,139.687L91.517,139.69L91.519,139.693L91.522,139.695L91.529,139.697L91.535,139.704L91.543,139.714L91.547,139.724L91.554,139.742L91.56,139.749L91.565,139.753L91.567,139.757L91.572,139.759L91.576,139.76L91.579,139.76L91.578,139.764L91.588,139.768L91.592,139.768L91.599,139.765L91.608,139.768L91.615,139.766L91.62,139.767L91.626,139.768L91.633,139.765L91.642,139.759L91.648,139.759L91.651,139.76L91.656,139.764L91.654,139.759L91.658,139.759L91.661,139.761L91.667,139.762L91.672,139.759L91.681,139.759L91.685,139.758L91.69,139.757L91.698,139.75L91.702,139.75L91.705,139.753L91.71,139.759L91.716,139.765L91.721,139.769L91.724,139.769L91.731,139.768L91.733,139.766L91.735,139.767L91.737,139.77L91.741,139.771L91.745,139.771L91.747,139.769L91.75,139.768L91.752,139.769L91.757,139.773L91.761,139.777L91.763,139.779L91.767,139.781L91.768,139.786L91.773,139.787L91.774,139.79L91.78,139.795L91.784,139.798L91.786,139.801L91.788,139.808L91.79,139.815L91.796,139.821L91.798,139.826L91.801,139.826L91.802,139.828L91.801,139.831L91.802,139.832L91.805,139.839L91.813,139.85L91.82,139.856L91.824,139.864L91.829,139.866L91.839,139.871L91.848,139.873L91.85,139.872L91.854,139.87L91.858,139.869L91.867,139.868L91.875,139.868L91.877,139.87L91.879,139.874L91.887,139.879L91.899,139.884L91.903,139.884L91.911,139.885L91.923,139.883L91.933,139.883L91.937,139.886L91.945,139.887L91.953,139.886L91.958,139.884L91.962,139.881L91.97,139.877L91.98,139.874L91.987,139.871L91.996,139.868L92.007,139.867L92.013,139.867L92.018,139.869L92.024,139.874L92.028,139.876L92.032,139.88L92.036,139.883L92.041,139.893L92.042,139.899L92.045,139.911L92.047,139.918L92.059,139.927L92.07,139.934L92.081,139.945L92.087,139.948L92.094,139.953L92.108,139.958L92.119,139.962L92.132,139.965L92.144,139.967L92.15,139.967L92.158,139.965L92.162,139.967L92.165,139.971L92.168,139.974L92.169,139.978L92.171,139.985L92.171,139.996L92.17,140.005L92.167,140.01L92.165,140.016L92.163,140.028L92.16,140.037L92.158,140.045L92.16,140.047L92.16,140.051L92.156,140.052L92.155,140.059L92.154,140.065L92.155,140.07L92.154,140.077L92.151,140.083L92.153,140.089L92.15,140.097L92.15,140.103L92.153,140.108L92.156,140.112L92.163,140.114L92.169,140.113L92.189,140.106L92.209,140.099L92.218,140.095L92.228,140.092L92.233,140.094L92.241,140.098L92.253,140.104L92.267,140.109L92.284,140.114L92.3,140.116L92.306,140.119L92.313,140.123L92.323,140.131L92.33,140.138L92.336,140.146L92.341,140.151L92.343,140.154L92.348,140.157L92.353,140.158L92.359,140.158L92.367,140.157L92.375,140.157L92.401,140.15L92.417,140.144L92.43,140.138L92.443,140.135L92.454,140.134L92.477,140.137L92.494,140.139L92.519,140.14L92.531,140.14L92.548,140.139L92.556,140.141L92.584,140.14L92.592,140.14L92.614,140.138L92.627,140.135L92.637,140.134L92.651,140.131L92.661,140.132L92.67,140.133L92.674,140.136L92.677,140.136L92.685,140.133L92.696,140.133L92.697,140.136L92.705,140.139L92.717,140.141L92.727,140.143L92.737,140.143L92.747,140.14L92.755,140.131L92.764,140.125L92.772,140.122L92.778,140.119L92.787,140.117L92.798,140.115L92.808,140.112L92.822,140.113L92.835,140.108L92.846,140.104L92.851,140.1L92.856,140.093ZM93.436,139.446L93.434,139.444L93.431,139.446L93.428,139.444L93.426,139.442L93.425,139.442L93.423,139.44L93.423,139.437L93.425,139.435L93.424,139.431L93.427,139.431L93.428,139.428L93.431,139.426L93.431,139.422L93.428,139.421L93.428,139.419L93.431,139.418L93.432,139.416L93.431,139.412L93.43,139.409L93.432,139.407L93.445,139.399L93.446,139.402L93.448,139.402L93.45,139.401L93.451,139.401L93.453,139.405L93.454,139.407L93.455,139.409L93.458,139.409L93.46,139.412L93.461,139.414L93.464,139.415L93.474,139.413L93.475,139.412L93.485,139.408L93.49,139.407L93.492,139.408L93.493,139.408L93.495,139.405L93.497,139.406L93.502,139.407L93.504,139.409L93.505,139.412L93.507,139.412L93.509,139.413L93.51,139.415L93.51,139.418L93.506,139.42L93.501,139.422L93.498,139.42L93.496,139.421L93.493,139.424L93.49,139.427L93.483,139.433L93.477,139.435L93.467,139.44L93.459,139.444L93.455,139.444L93.453,139.442L93.452,139.441L93.444,139.443L93.441,139.446L93.438,139.448L93.436,139.446ZM90.727,139.61L90.72,139.605L90.717,139.606L90.712,139.603L90.707,139.601L90.701,139.6L90.703,139.596L90.697,139.59L90.689,139.588L90.686,139.588L90.685,139.585L90.684,139.581L90.686,139.579L90.688,139.578L90.688,139.576L90.686,139.575L90.685,139.575L90.685,139.573L90.687,139.572L90.692,139.574L90.696,139.574L90.701,139.577L90.709,139.584L90.711,139.587L90.715,139.589L90.721,139.595L90.723,139.598L90.727,139.61Z" style="fill:rgb(36,121,200);"/>
    </g>
    <g transform="matrix(1.39967,0,0,1.39967,-1297.11,-651.368)">
        <circle cx="939.479" cy="1127.75" r="11.724" style="fill:rgb(255,118,0);"/>
    </g>
</svg>
