<?xml version="1.0" encoding="UTF-8" standalone="no"?>
<!DOCTYPE svg PUBLIC "-//W3C//DTD SVG 1.1//EN" "http://www.w3.org/Graphics/SVG/1.1/DTD/svg11.dtd">
<svg width="100%" height="100%" viewBox="0 0 1500 1500" version="1.1" xmlns="http://www.w3.org/2000/svg" xmlns:xlink="http://www.w3.org/1999/xlink" xml:space="preserve" xmlns:serif="http://www.serif.com/" style="fill-rule:evenodd;clip-rule:evenodd;stroke-linejoin:round;stroke-miterlimit:2;">
    <g transform="matrix(629.792,1.51811e-29,1.51811e-29,-629.792,8016.19,79117.6)">
        <path d="M-11.911,125.357L-11.906,125.355L-11.901,125.356L-11.898,125.362L-11.893,125.366L-11.89,125.367L-11.871,125.362L-11.852,125.352L-11.831,125.336L-11.821,125.321L-11.807,125.312L-11.793,125.301L-11.786,125.292L-11.788,125.282L-11.79,125.273L-11.787,125.268L-11.781,125.265L-11.775,125.262L-11.766,125.26L-11.758,125.261L-11.748,125.262L-11.74,125.265L-11.733,125.271L-11.733,125.262L-11.735,125.26L-11.738,125.257L-11.735,125.254L-11.732,125.25L-11.725,125.246L-11.717,125.243L-11.712,125.243L-11.699,125.25L-11.696,125.248L-11.694,125.243L-11.689,125.241L-11.687,125.233L-11.681,125.233L-11.678,125.228L-11.673,125.226L-11.666,125.226L-11.663,125.226L-11.66,125.219L-11.658,125.21L-11.659,125.201L-11.661,125.196L-11.658,125.186L-11.657,125.17L-11.651,125.157L-11.644,125.147L-11.643,125.14L-11.647,125.133L-11.648,125.128L-11.643,125.116L-11.635,125.106L-11.63,125.103L-11.621,125.102L-11.614,125.098L-11.596,125.095L-11.591,125.092L-11.577,125.082L-11.576,125.078L-11.577,125.068L-11.579,125.063L-11.577,125.057L-11.574,125.054L-11.573,125.052L-11.576,125.05L-11.578,125.048L-11.58,125.034L-11.58,125.022L-11.579,125.014L-11.573,125.011L-11.569,125.005L-11.567,125.003L-11.568,124.998L-11.571,124.995L-11.568,124.99L-11.567,124.99L-11.568,124.985L-11.572,124.986L-11.577,124.981L-11.58,124.976L-11.587,124.974L-11.59,124.971L-11.59,124.966L-11.586,124.962L-11.582,124.961L-11.577,124.961L-11.574,124.961L-11.57,124.964L-11.563,124.965L-11.561,124.967L-11.557,124.967L-11.548,124.964L-11.538,124.965L-11.537,124.962L-11.54,124.959L-11.551,124.957L-11.557,124.956L-11.562,124.953L-11.565,124.948L-11.563,124.945L-11.565,124.94L-11.566,124.935L-11.556,124.924L-11.549,124.923L-11.544,124.925L-11.539,124.93L-11.534,124.936L-11.529,124.936L-11.523,124.936L-11.512,124.934L-11.508,124.937L-11.504,124.937L-11.499,124.936L-11.491,124.931L-11.486,124.931L-11.482,124.934L-11.478,124.938L-11.471,124.943L-11.468,124.952L-11.466,124.959L-11.465,124.971L-11.467,124.979L-11.472,124.982L-11.474,124.984L-11.475,124.988L-11.476,124.996L-11.475,125.001L-11.471,125.008L-11.464,125.015L-11.458,125.017L-11.453,125.018L-11.443,125.018L-11.438,125.015L-11.438,125.011L-11.434,125.009L-11.429,125.007L-11.419,125.005L-11.406,125.005L-11.398,125.009L-11.384,125.011L-11.374,125.011L-11.369,125.011L-11.365,125.009L-11.361,125.007L-11.356,125.007L-11.355,125.011L-11.35,125.012L-11.33,125.012L-11.301,125.031L-11.29,125.045L-11.287,125.051L-11.286,125.062L-11.288,125.069L-11.288,125.075L-11.286,125.077L-11.286,125.083L-11.284,125.091L-11.279,125.098L-11.271,125.101L-11.266,125.107L-11.25,125.124L-11.243,125.128L-11.238,125.135L-11.234,125.141L-11.233,125.148L-11.233,125.163L-11.232,125.17L-11.228,125.177L-11.224,125.18L-11.205,125.185L-11.194,125.186L-11.19,125.189L-11.184,125.196L-11.183,125.203L-11.184,125.21L-11.184,125.225L-11.185,125.231L-11.188,125.238L-11.19,125.24L-11.195,125.242L-11.198,125.247L-11.196,125.256L-11.194,125.265L-11.19,125.275L-11.185,125.278L-11.173,125.279L-11.16,125.274L-11.149,125.272L-11.139,125.276L-11.126,125.286L-11.107,125.296L-11.094,125.302L-11.077,125.312L-11.07,125.318L-11.064,125.324L-11.062,125.331L-11.061,125.343L-11.058,125.348L-11.054,125.35L-11.048,125.35L-11.034,125.348L-11.029,125.347L-11.021,125.347L-11.015,125.353L-11.012,125.354L-11.005,125.354L-10.999,125.352L-10.997,125.349L-10.997,125.346L-10.993,125.344L-10.988,125.343L-10.982,125.353L-10.967,125.365L-10.961,125.371L-10.961,125.375L-10.96,125.381L-10.958,125.383L-10.952,125.384L-10.946,125.39L-10.939,125.402L-10.934,125.406L-10.924,125.407L-10.916,125.407L-10.912,125.406L-10.903,125.406L-10.896,125.41L-10.882,125.424L-10.87,125.43L-10.862,125.433L-10.855,125.44L-10.849,125.441L-10.843,125.45L-10.842,125.462L-10.843,125.47L-10.841,125.476L-10.833,125.482L-10.818,125.488L-10.791,125.494L-10.779,125.496L-10.757,125.496L-10.741,125.495L-10.724,125.502L-10.709,125.508L-10.702,125.507L-10.698,125.502L-10.697,125.497L-10.697,125.492L-10.699,125.486L-10.701,125.482L-10.702,125.479L-10.705,125.478L-10.708,125.479L-10.713,125.477L-10.72,125.47L-10.725,125.462L-10.727,125.456L-10.729,125.45L-10.729,125.443L-10.73,125.439L-10.732,125.437L-10.739,125.435L-10.743,125.434L-10.749,125.436L-10.755,125.437L-10.765,125.436L-10.773,125.432L-10.779,125.427L-10.787,125.414L-10.792,125.407L-10.798,125.403L-10.8,125.399L-10.8,125.394L-10.811,125.392L-10.856,125.383L-10.89,125.367L-10.914,125.351L-10.929,125.349L-10.947,125.334L-10.957,125.323L-10.963,125.307L-10.967,125.309L-10.97,125.305L-10.971,125.3L-10.963,125.29L-10.949,125.271L-10.929,125.256L-10.916,125.253L-10.894,125.248L-10.856,125.253L-10.832,125.254L-10.819,125.25L-10.806,125.245L-10.797,125.231L-10.789,125.221L-10.775,125.207L-10.769,125.2L-10.77,125.191L-10.769,125.185L-10.765,125.185L-10.764,125.18L-10.765,125.176L-10.769,125.171L-10.775,125.17L-10.784,125.163L-10.791,125.159L-10.802,125.159L-10.811,125.162L-10.821,125.171L-10.825,125.177L-10.833,125.182L-10.84,125.185L-10.849,125.184L-10.859,125.181L-10.868,125.176L-10.871,125.168L-10.875,125.163L-10.88,125.159L-10.889,125.163L-10.899,125.169L-10.91,125.17L-10.923,125.174L-10.929,125.173L-10.938,125.176L-10.942,125.17L-10.945,125.169L-10.95,125.171L-10.953,125.173L-10.956,125.178L-10.96,125.184L-10.967,125.19L-10.975,125.191L-10.984,125.186L-10.994,125.182L-11.006,125.176L-11.01,125.171L-11.013,125.158L-11.016,125.154L-11.015,125.147L-11.014,125.134L-11.016,125.128L-11.021,125.125L-11.028,125.12L-11.035,125.099L-11.039,125.084L-11.039,125.068L-11.044,125.061L-11.054,125.046L-11.059,125.036L-11.063,125.03L-11.076,125.023L-11.085,125.013L-11.085,125.013L-11.088,125.009L-11.093,125.003L-11.092,124.994L-11.095,124.989L-11.098,124.984L-11.108,124.978L-11.116,124.972L-11.122,124.968L-11.131,124.965L-11.134,124.959L-11.134,124.954L-11.14,124.947L-11.145,124.942L-11.145,124.935L-11.147,124.926L-11.149,124.92L-11.149,124.914L-11.149,124.91L-11.145,124.906L-11.147,124.903L-11.147,124.897L-11.146,124.89L-11.143,124.885L-11.14,124.879L-11.13,124.87L-11.126,124.863L-11.124,124.86L-11.12,124.856L-11.115,124.856L-11.111,124.858L-11.11,124.863L-11.102,124.864L-11.095,124.869L-11.086,124.869L-11.079,124.869L-11.074,124.866L-11.075,124.861L-11.073,124.858L-11.068,124.856L-11.066,124.853L-11.068,124.85L-11.059,124.843L-11.054,124.842L-11.04,124.839L-11.032,124.842L-11.018,124.844L-11.006,124.842L-11,124.84L-10.997,124.834L-10.998,124.829L-11.002,124.825L-11.007,124.823L-11.012,124.823L-11.014,124.82L-11.013,124.817L-11.009,124.811L-11,124.809L-10.988,124.809L-10.983,124.812L-10.97,124.813L-10.962,124.816L-10.956,124.815L-10.95,124.811L-10.944,124.807L-10.938,124.802L-10.932,124.802L-10.931,124.804L-10.926,124.803L-10.922,124.799L-10.913,124.798L-10.908,124.794L-10.907,124.789L-10.909,124.782L-10.912,124.779L-10.917,124.777L-10.917,124.771L-10.908,124.759L-10.903,124.757L-10.891,124.756L-10.88,124.759L-10.872,124.769L-10.868,124.772L-10.865,124.773L-10.859,124.774L-10.851,124.773L-10.84,124.767L-10.822,124.761L-10.814,124.76L-10.807,124.759L-10.803,124.754L-10.791,124.748L-10.787,124.744L-10.788,124.74L-10.788,124.736L-10.786,124.736L-10.782,124.735L-10.782,124.729L-10.785,124.721L-10.784,124.717L-10.78,124.715L-10.774,124.714L-10.77,124.716L-10.766,124.713L-10.762,124.707L-10.76,124.702L-10.762,124.696L-10.767,124.686L-10.769,124.678L-10.771,124.669L-10.775,124.663L-10.787,124.661L-10.795,124.652L-10.799,124.645L-10.804,124.644L-10.804,124.638L-10.803,124.633L-10.807,124.627L-10.817,124.629L-10.823,124.63L-10.838,124.634L-10.85,124.644L-10.868,124.658L-10.89,124.673L-10.911,124.681L-10.917,124.681L-10.922,124.677L-10.924,124.671L-10.924,124.666L-10.923,124.664L-10.918,124.658L-10.916,124.654L-10.916,124.648L-10.913,124.641L-10.905,124.637L-10.901,124.627L-10.897,124.622L-10.892,124.615L-10.888,124.611L-10.885,124.606L-10.883,124.601L-10.881,124.598L-10.87,124.587L-10.857,124.59L-10.851,124.59L-10.847,124.593L-10.845,124.597L-10.835,124.604L-10.822,124.612L-10.814,124.614L-10.797,124.626L-10.797,124.629L-10.79,124.629L-10.786,124.628L-10.784,124.623L-10.782,124.622L-10.778,124.622L-10.775,124.623L-10.772,124.623L-10.767,124.622L-10.758,124.618L-10.755,124.614L-10.754,124.61L-10.748,124.609L-10.743,124.607L-10.739,124.603L-10.736,124.606L-10.734,124.609L-10.731,124.609L-10.726,124.607L-10.72,124.605L-10.709,124.597L-10.689,124.583L-10.675,124.577L-10.666,124.575L-10.664,124.574L-10.655,124.57L-10.649,124.568L-10.643,124.568L-10.637,124.574L-10.633,124.579L-10.629,124.587L-10.63,124.593L-10.634,124.597L-10.637,124.603L-10.638,124.608L-10.635,124.613L-10.628,124.619L-10.623,124.622L-10.618,124.622L-10.608,124.62L-10.603,124.622L-10.601,124.626L-10.598,124.633L-10.595,124.637L-10.589,124.643L-10.582,124.646L-10.569,124.661L-10.56,124.666L-10.534,124.665L-10.529,124.663L-10.53,124.66L-10.529,124.656L-10.525,124.654L-10.518,124.656L-10.508,124.652L-10.504,124.652L-10.499,124.654L-10.482,124.651L-10.47,124.642L-10.463,124.637L-10.461,124.63L-10.457,124.629L-10.446,124.627L-10.443,124.62L-10.438,124.614L-10.434,124.604L-10.423,124.599L-10.418,124.594L-10.41,124.591L-10.41,124.583L-10.407,124.579L-10.398,124.573L-10.386,124.566L-10.383,124.562L-10.373,124.557L-10.364,124.551L-10.36,124.55L-10.357,124.547L-10.357,124.542L-10.358,124.528L-10.361,124.519L-10.368,124.509L-10.376,124.5L-10.385,124.493L-10.391,124.492L-10.411,124.493L-10.435,124.493L-10.453,124.496L-10.475,124.496L-10.486,124.496L-10.494,124.492L-10.503,124.493L-10.516,124.491L-10.535,124.483L-10.545,124.48L-10.558,124.481L-10.565,124.486L-10.573,124.49L-10.582,124.496L-10.586,124.506L-10.588,124.514L-10.588,124.517L-10.583,124.525L-10.586,124.53L-10.589,124.53L-10.598,124.527L-10.603,124.524L-10.608,124.521L-10.619,124.516L-10.623,124.518L-10.628,124.522L-10.634,124.525L-10.642,124.526L-10.648,124.525L-10.656,124.52L-10.658,124.516L-10.658,124.512L-10.661,124.508L-10.661,124.504L-10.66,124.497L-10.658,124.493L-10.654,124.49L-10.645,124.489L-10.627,124.488L-10.622,124.491L-10.618,124.492L-10.61,124.491L-10.604,124.492L-10.6,124.489L-10.597,124.485L-10.595,124.482L-10.592,124.484L-10.591,124.484L-10.587,124.481L-10.587,124.477L-10.588,124.47L-10.585,124.463L-10.585,124.457L-10.586,124.451L-10.588,124.443L-10.594,124.431L-10.6,124.423L-10.606,124.419L-10.614,124.418L-10.622,124.414L-10.636,124.412L-10.648,124.414L-10.661,124.422L-10.664,124.426L-10.667,124.431L-10.671,124.442L-10.674,124.446L-10.683,124.448L-10.692,124.45L-10.694,124.447L-10.697,124.439L-10.704,124.439L-10.707,124.441L-10.711,124.443L-10.715,124.449L-10.719,124.459L-10.722,124.461L-10.723,124.463L-10.721,124.466L-10.717,124.469L-10.713,124.472L-10.707,124.484L-10.708,124.486L-10.715,124.489L-10.719,124.488L-10.727,124.486L-10.729,124.488L-10.732,124.493L-10.739,124.498L-10.757,124.508L-10.771,124.51L-10.804,124.508L-10.819,124.506L-10.827,124.508L-10.833,124.512L-10.839,124.515L-10.852,124.515L-10.86,124.512L-10.866,124.509L-10.871,124.507L-10.888,124.508L-10.896,124.513L-10.905,124.514L-10.912,124.513L-10.919,124.513L-10.928,124.511L-10.937,124.506L-10.947,124.498L-10.955,124.492L-10.96,124.485L-10.966,124.468L-10.969,124.461L-10.973,124.456L-10.973,124.449L-10.973,124.444L-10.97,124.439L-10.967,124.433L-10.964,124.428L-10.963,124.422L-10.963,124.418L-10.962,124.41L-10.964,124.404L-10.967,124.402L-10.972,124.402L-10.983,124.406L-10.99,124.408L-10.991,124.403L-10.993,124.399L-11.002,124.391L-11.008,124.39L-11.032,124.38L-11.044,124.379L-11.064,124.384L-11.08,124.386L-11.089,124.385L-11.097,124.381L-11.101,124.377L-11.105,124.376L-11.114,124.378L-11.127,124.376L-11.136,124.374L-11.142,124.37L-11.151,124.352L-11.159,124.338L-11.173,124.321L-11.175,124.314L-11.174,124.308L-11.168,124.299L-11.166,124.298L-11.16,124.296L-11.158,124.287L-11.155,124.282L-11.144,124.282L-11.142,124.273L-11.131,124.269L-11.127,124.26L-11.121,124.255L-11.118,124.249L-11.113,124.244L-11.103,124.242L-11.089,124.238L-11.07,124.236L-11.066,124.234L-11.064,124.223L-11.059,124.215L-11.041,124.202L-11.021,124.184L-10.996,124.169L-10.974,124.163L-10.953,124.154L-10.941,124.151L-10.932,124.147L-10.917,124.141L-10.902,124.132L-10.888,124.126L-10.87,124.124L-10.849,124.119L-10.832,124.111L-10.815,124.109L-10.812,124.109L-10.802,124.102L-10.799,124.099L-10.802,124.097L-10.808,124.095L-10.812,124.09L-10.824,124.089L-10.831,124.085L-10.838,124.083L-10.838,124.081L-10.818,124.083L-10.804,124.086L-10.798,124.089L-10.789,124.09L-10.781,124.091L-10.775,124.091L-10.749,124.09L-10.742,124.099L-10.736,124.105L-10.721,124.114L-10.716,124.114L-10.708,124.111L-10.698,124.105L-10.684,124.102L-10.67,124.101L-10.639,124.11L-10.627,124.113L-10.617,124.115L-10.6,124.116L-10.595,124.114L-10.591,124.105L-10.583,124.098L-10.578,124.095L-10.573,124.098L-10.569,124.095L-10.56,124.086L-10.556,124.08L-10.554,124.07L-10.548,124.067L-10.545,124.063L-10.54,124.06L-10.534,124.051L-10.534,124.047L-10.538,124.042L-10.538,124.037L-10.538,124.028L-10.544,124.016L-10.55,124.012L-10.561,124.009L-10.577,124.003L-10.588,124L-10.592,123.995L-10.597,123.993L-10.607,123.99L-10.627,123.988L-10.638,123.991L-10.653,123.996L-10.659,123.997L-10.665,123.996L-10.669,123.993L-10.676,123.985L-10.683,123.983L-10.694,123.981L-10.71,123.983L-10.725,123.977L-10.733,123.972L-10.745,123.963L-10.755,123.96L-10.765,123.96L-10.776,123.954L-10.785,123.942L-10.798,123.929L-10.803,123.922L-10.803,123.912L-10.807,123.906L-10.813,123.902L-10.824,123.897L-10.837,123.892L-10.846,123.887L-10.856,123.875L-10.871,123.858L-10.88,123.852L-10.893,123.846L-10.904,123.841L-10.912,123.842L-10.916,123.847L-10.923,123.856L-10.928,123.868L-10.932,123.872L-10.945,123.878L-10.952,123.888L-10.952,123.898L-10.954,123.901L-10.957,123.902L-10.96,123.901L-10.961,123.896L-10.964,123.895L-10.967,123.897L-10.966,123.903L-10.966,123.909L-10.961,123.919L-10.959,123.922L-10.955,123.923L-10.946,123.923L-10.931,123.921L-10.925,123.921L-10.916,123.929L-10.911,123.933L-10.909,123.937L-10.908,123.944L-10.911,123.946L-10.918,123.948L-10.925,123.949L-10.94,123.95L-10.953,123.949L-10.961,123.945L-10.965,123.942L-10.967,123.931L-10.968,123.926L-10.973,123.924L-10.983,123.928L-10.994,123.927L-11.013,123.923L-11.023,123.925L-11.035,123.929L-11.05,123.937L-11.06,123.939L-11.08,123.945L-11.111,123.957L-11.133,123.962L-11.156,123.962L-11.17,123.96L-11.176,123.954L-11.181,123.954L-11.183,123.957L-11.183,123.962L-11.18,123.969L-11.18,123.974L-11.179,123.979L-11.175,123.982L-11.169,123.985L-11.164,123.988L-11.162,123.995L-11.159,124.012L-11.165,124.015L-11.172,124.013L-11.178,124.008L-11.182,124.007L-11.185,124.008L-11.194,124.011L-11.203,124.012L-11.207,124.013L-11.22,124.023L-11.239,124.047L-11.251,124.066L-11.253,124.078L-11.251,124.085L-11.246,124.091L-11.243,124.094L-11.238,124.096L-11.236,124.098L-11.234,124.103L-11.233,124.11L-11.223,124.131L-11.223,124.144L-11.225,124.15L-11.23,124.155L-11.238,124.162L-11.251,124.172L-11.26,124.175L-11.268,124.176L-11.281,124.181L-11.285,124.185L-11.289,124.19L-11.298,124.207L-11.307,124.219L-11.317,124.221L-11.332,124.228L-11.341,124.228L-11.349,124.229L-11.354,124.233L-11.358,124.235L-11.367,124.234L-11.375,124.234L-11.395,124.227L-11.406,124.224L-11.423,124.224L-11.431,124.226L-11.442,124.24L-11.462,124.277L-11.48,124.301L-11.496,124.319L-11.508,124.331L-11.521,124.356L-11.54,124.389L-11.553,124.405L-11.57,124.42L-11.587,124.43L-11.605,124.436L-11.61,124.436L-11.614,124.433L-11.621,124.433L-11.633,124.439L-11.639,124.439L-11.644,124.437L-11.669,124.434L-11.685,124.434L-11.704,124.426L-11.717,124.423L-11.721,124.414L-11.737,124.399L-11.752,124.381L-11.776,124.357L-11.797,124.337L-11.814,124.309L-11.822,124.289L-11.828,124.283L-11.836,124.28L-11.851,124.265L-11.854,124.26L-11.858,124.263L-11.863,124.262L-11.87,124.256L-11.873,124.253L-11.874,124.248L-11.877,124.243L-11.892,124.228L-11.9,124.221L-11.913,124.214L-11.926,124.207L-11.931,124.2L-11.939,124.187L-11.944,124.182L-11.949,124.175L-11.96,124.155L-11.965,124.138L-11.977,124.124L-11.983,124.12L-11.995,124.114L-12.004,124.109L-12.014,124.097L-12.023,124.092L-12.038,124.084L-12.078,124.136L-12.073,124.138L-12.065,124.14L-12.056,124.147L-12.043,124.16L-12.034,124.172L-12.028,124.18L-12.025,124.186L-12.026,124.197L-12.02,124.209L-12.018,124.215L-12.013,124.217L-12.009,124.219L-12.007,124.223L-12.008,124.228L-12.01,124.235L-12.008,124.241L-12.005,124.244L-11.999,124.246L-11.99,124.25L-11.983,124.265L-11.975,124.274L-11.974,124.283L-11.971,124.29L-11.962,124.304L-11.956,124.315L-11.955,124.334L-11.951,124.342L-11.94,124.345L-11.923,124.345L-11.92,124.348L-11.907,124.355L-11.904,124.359L-11.894,124.366L-11.892,124.37L-11.884,124.38L-11.876,124.385L-11.866,124.388L-11.859,124.392L-11.855,124.398L-11.849,124.405L-11.837,124.41L-11.831,124.413L-11.82,124.422L-11.806,124.429L-11.801,124.431L-11.784,124.436L-11.769,124.45L-11.753,124.467L-11.744,124.481L-11.74,124.49L-11.742,124.493L-11.746,124.498L-11.751,124.495L-11.754,124.495L-11.759,124.503L-11.763,124.504L-11.769,124.505L-11.777,124.503L-11.787,124.501L-11.794,124.5L-11.801,124.502L-11.807,124.504L-11.813,124.504L-11.818,124.503L-11.821,124.506L-11.826,124.514L-11.825,124.52L-11.82,124.537L-11.814,124.544L-11.801,124.555L-11.793,124.559L-11.773,124.565L-11.76,124.572L-11.753,124.576L-11.742,124.588L-11.728,124.595L-11.723,124.598L-11.721,124.598L-11.715,124.595L-11.71,124.593L-11.703,124.593L-11.699,124.594L-11.696,124.596L-11.693,124.6L-11.693,124.607L-11.697,124.615L-11.71,124.625L-11.729,124.634L-11.745,124.644L-11.756,124.657L-11.767,124.676L-11.772,124.678L-11.781,124.68L-11.782,124.681L-11.78,124.689L-11.771,124.692L-11.772,124.694L-11.777,124.694L-11.793,124.693L-11.797,124.692L-11.8,124.694L-11.8,124.711L-11.802,124.724L-11.808,124.734L-11.811,124.74L-11.808,124.747L-11.805,124.749L-11.801,124.751L-11.801,124.748L-11.801,124.746L-11.798,124.744L-11.796,124.746L-11.794,124.749L-11.794,124.751L-11.799,124.753L-11.8,124.755L-11.797,124.757L-11.793,124.757L-11.785,124.76L-11.786,124.768L-11.79,124.776L-11.796,124.782L-11.804,124.787L-11.815,124.788L-11.822,124.786L-11.826,124.788L-11.832,124.791L-11.835,124.794L-11.84,124.797L-11.851,124.802L-11.861,124.806L-11.871,124.809L-11.88,124.81L-11.887,124.813L-11.892,124.813L-11.898,124.811L-11.904,124.808L-11.909,124.804L-11.92,124.8L-11.927,124.798L-11.937,124.795L-11.944,124.793L-11.958,124.793L-11.965,124.796L-11.971,124.796L-11.978,124.792L-11.983,124.788L-11.992,124.783L-11.999,124.778L-12.007,124.77L-12.013,124.766L-12.02,124.759L-12.027,124.754L-12.038,124.742L-12.043,124.728L-12.047,124.721L-12.051,124.721L-12.053,124.723L-12.054,124.73L-12.053,124.742L-12.053,124.753L-12.055,124.758L-12.06,124.766L-12.068,124.778L-12.073,124.792L-12.074,124.801L-12.073,124.811L-12.071,124.827L-12.065,124.842L-12.06,124.855L-12.055,124.86L-12.044,124.877L-12.032,124.892L-12.025,124.904L-12.014,124.915L-12.01,124.916L-11.994,124.928L-11.984,124.941L-11.978,124.942L-11.976,124.945L-11.973,124.951L-11.971,124.959L-11.964,124.972L-11.953,124.985L-11.952,124.985L-11.947,124.984L-11.946,124.986L-11.947,124.991L-11.947,124.995L-11.948,124.998L-11.952,125.003L-11.956,125.014L-11.963,125.03L-11.966,125.034L-11.965,125.037L-11.962,125.037L-11.959,125.039L-11.959,125.041L-11.965,125.047L-11.969,125.049L-11.972,125.052L-11.978,125.071L-11.98,125.081L-11.978,125.087L-11.976,125.094L-11.976,125.1L-11.977,125.113L-11.975,125.123L-11.976,125.13L-11.979,125.135L-11.981,125.142L-11.981,125.147L-11.978,125.156L-11.979,125.161L-11.979,125.166L-11.967,125.18L-11.954,125.196L-11.947,125.209L-11.942,125.23L-11.941,125.249L-11.945,125.262L-11.95,125.273L-11.96,125.293L-11.96,125.301L-11.965,125.308L-11.973,125.325L-11.977,125.331L-11.98,125.34L-11.986,125.347L-11.989,125.349L-11.997,125.349L-12.002,125.351L-12.009,125.353L-12.013,125.353L-12.018,125.358L-12.036,125.381L-12.053,125.41L-12.062,125.426L-12.066,125.432L-12.068,125.437L-12.07,125.441L-12.075,125.444L-12.08,125.453L-12.088,125.465L-12.091,125.472L-12.094,125.476L-12.099,125.479L-12.101,125.483L-12.102,125.493L-12.104,125.505L-12.104,125.51L-12.104,125.515L-12.1,125.52L-12.092,125.526L-12.088,125.533L-12.085,125.535L-12.077,125.536L-12.067,125.54L-12.056,125.544L-12.05,125.544L-12.045,125.543L-12.033,125.532L-12.022,125.523L-12.017,125.518L-12.014,125.513L-12.01,125.495L-12.005,125.481L-11.997,125.464L-11.99,125.451L-11.976,125.434L-11.96,125.423L-11.95,125.409L-11.941,125.386L-11.934,125.377L-11.918,125.361L-11.911,125.357ZM-10.996,124.682L-11,124.679L-11.006,124.68L-11.011,124.682L-11.022,124.68L-11.027,124.677L-11.032,124.673L-11.033,124.67L-11.032,124.665L-11.032,124.653L-11.031,124.646L-11.027,124.635L-10.997,124.605L-10.992,124.599L-10.983,124.595L-10.978,124.593L-10.971,124.595L-10.968,124.595L-10.965,124.593L-10.963,124.59L-10.96,124.588L-10.956,124.588L-10.953,124.59L-10.946,124.587L-10.942,124.587L-10.937,124.589L-10.925,124.595L-10.919,124.597L-10.916,124.603L-10.915,124.608L-10.912,124.61L-10.912,124.616L-10.913,124.627L-10.916,124.634L-10.92,124.638L-10.93,124.643L-10.931,124.647L-10.935,124.65L-10.94,124.65L-10.945,124.651L-10.948,124.652L-10.951,124.655L-10.957,124.656L-10.961,124.658L-10.963,124.66L-10.961,124.664L-10.962,124.667L-10.965,124.675L-10.972,124.678L-10.982,124.682L-10.996,124.682ZM-11.952,124.941L-11.961,124.937L-11.965,124.937L-11.973,124.938L-11.974,124.932L-11.971,124.924L-11.965,124.916L-11.96,124.91L-11.952,124.909L-11.934,124.909L-11.93,124.908L-11.928,124.91L-11.927,124.914L-11.919,124.914L-11.91,124.92L-11.906,124.924L-11.904,124.928L-11.906,124.932L-11.905,124.933L-11.902,124.936L-11.893,124.937L-11.893,124.942L-11.891,124.945L-11.887,124.948L-11.879,124.949L-11.874,124.949L-11.873,124.947L-11.873,124.94L-11.871,124.94L-11.867,124.941L-11.865,124.938L-11.862,124.937L-11.86,124.937L-11.858,124.938L-11.854,124.94L-11.853,124.942L-11.853,124.952L-11.854,124.956L-11.856,124.956L-11.859,124.951L-11.862,124.95L-11.868,124.951L-11.871,124.953L-11.871,124.956L-11.868,124.961L-11.872,124.966L-11.883,124.969L-11.892,124.969L-11.901,124.967L-11.903,124.964L-11.903,124.957L-11.898,124.955L-11.899,124.952L-11.911,124.945L-11.916,124.944L-11.926,124.942L-11.941,124.942L-11.946,124.941L-11.952,124.941ZM-11.907,124.318L-11.901,124.315L-11.896,124.315L-11.891,124.318L-11.888,124.322L-11.889,124.326L-11.89,124.331L-11.896,124.34L-11.9,124.342L-11.904,124.342L-11.91,124.341L-11.913,124.339L-11.915,124.336L-11.915,124.331L-11.911,124.327L-11.911,124.322L-11.907,124.318ZM-11.766,124.744L-11.765,124.74L-11.764,124.738L-11.761,124.736L-11.757,124.736L-11.756,124.733L-11.754,124.732L-11.75,124.734L-11.749,124.738L-11.748,124.744L-11.748,124.752L-11.75,124.754L-11.751,124.757L-11.754,124.761L-11.756,124.762L-11.761,124.762L-11.763,124.761L-11.765,124.757L-11.766,124.746L-11.766,124.744ZM-11.196,124.921L-11.197,124.918L-11.2,124.918L-11.203,124.918L-11.206,124.92L-11.208,124.92L-11.21,124.918L-11.209,124.914L-11.207,124.907L-11.205,124.903L-11.2,124.9L-11.193,124.904L-11.19,124.908L-11.189,124.911L-11.188,124.913L-11.19,124.915L-11.19,124.917L-11.192,124.919L-11.194,124.921L-11.196,124.921ZM-11.205,125.164L-11.208,125.167L-11.21,125.164L-11.213,125.162L-11.214,125.159L-11.214,125.156L-11.212,125.153L-11.208,125.155L-11.202,125.161L-11.205,125.164ZM-11.276,124.363L-11.276,124.36L-11.273,124.361L-11.265,124.366L-11.265,124.369L-11.267,124.37L-11.27,124.37L-11.273,124.368L-11.275,124.368L-11.276,124.366L-11.276,124.363Z" style="fill:rgb(36,121,200);"/>
    </g>
    <g transform="matrix(629.792,1.51811e-29,1.51811e-29,-629.792,8017.19,79117.6)">
        <path d="M-12.43,124.452L-12.426,124.446L-12.417,124.436L-12.408,124.426L-12.401,124.415L-12.391,124.406L-12.385,124.398L-12.38,124.379L-12.376,124.366L-12.374,124.35L-12.372,124.335L-12.372,124.322L-12.376,124.306L-12.374,124.29L-12.372,124.278L-12.372,124.265L-12.368,124.256L-12.361,124.249L-12.354,124.259L-12.351,124.271L-12.344,124.298L-12.336,124.308L-12.322,124.322L-12.306,124.333L-12.296,124.338L-12.285,124.338L-12.267,124.332L-12.256,124.323L-12.25,124.314L-12.25,124.304L-12.244,124.296L-12.25,124.288L-12.254,124.279L-12.254,124.266L-12.257,124.258L-12.269,124.248L-12.269,124.239L-12.261,124.228L-12.252,124.214L-12.25,124.202L-12.252,124.191L-12.254,124.178L-12.255,124.164L-12.25,124.153L-12.253,124.142L-12.259,124.131L-12.262,124.119L-12.261,124.112L-12.257,124.109L-12.251,124.112L-12.219,124.114L-12.198,124.116L-12.169,124.12L-12.144,124.127L-12.119,124.132L-12.102,124.136L-12.088,124.138L-12.078,124.136L-12.041,124.087L-12.043,124.086L-12.064,124.072L-12.077,124.062L-12.083,124.054L-12.089,124.046L-12.096,124.042L-12.104,124.03L-12.103,124.017L-12.101,124.002L-12.099,123.99L-12.097,123.981L-12.104,123.975L-12.122,123.971L-12.132,123.964L-12.144,123.959L-12.151,123.949L-12.152,123.936L-12.15,123.915L-12.145,123.9L-12.144,123.88L-12.152,123.864L-12.16,123.856L-12.173,123.857L-12.194,123.857L-12.21,123.856L-12.229,123.854L-12.244,123.847L-12.264,123.839L-12.277,123.831L-12.289,123.822L-12.306,123.81L-12.319,123.796L-12.328,123.783L-12.339,123.768L-12.351,123.757L-12.364,123.75L-12.376,123.74L-12.386,123.729L-12.388,123.719L-12.384,123.699L-12.385,123.683L-12.389,123.676L-12.405,123.668L-12.414,123.664L-12.427,123.655L-12.435,123.646L-12.446,123.624L-12.451,123.61L-12.454,123.597L-12.464,123.588L-12.489,123.587L-12.498,123.574L-12.509,123.558L-12.521,123.553L-12.529,123.548L-12.538,123.54L-12.538,123.531L-12.541,123.526L-12.551,123.528L-12.561,123.524L-12.561,123.512L-12.569,123.501L-12.57,123.485L-12.571,123.465L-12.571,123.448L-12.577,123.432L-12.583,123.423L-12.585,123.414L-12.589,123.401L-12.592,123.387L-12.601,123.373L-12.603,123.365L-12.619,123.368L-12.619,123.376L-12.621,123.389L-12.635,123.386L-12.646,123.377L-12.656,123.366L-12.664,123.359L-12.675,123.353L-12.683,123.345L-12.695,123.34L-12.71,123.339L-12.716,123.344L-12.721,123.351L-12.722,123.362L-12.721,123.369L-12.72,123.384L-12.711,123.398L-12.708,123.408L-12.709,123.414L-12.708,123.424L-12.703,123.436L-12.694,123.439L-12.68,123.451L-12.671,123.458L-12.665,123.461L-12.66,123.466L-12.656,123.476L-12.655,123.49L-12.648,123.498L-12.643,123.505L-12.645,123.513L-12.646,123.528L-12.645,123.537L-12.641,123.546L-12.644,123.565L-12.639,123.582L-12.636,123.592L-12.63,123.603L-12.624,123.614L-12.62,123.628L-12.613,123.642L-12.613,123.657L-12.615,123.68L-12.616,123.71L-12.604,123.723L-12.596,123.727L-12.586,123.732L-12.578,123.735L-12.577,123.747L-12.578,123.757L-12.584,123.773L-12.594,123.793L-12.602,123.805L-12.618,123.812L-12.639,123.814L-12.653,123.814L-12.674,123.816L-12.678,123.827L-12.684,123.835L-12.686,123.841L-12.683,123.852L-12.681,123.865L-12.67,123.882L-12.663,123.888L-12.649,123.89L-12.63,123.882L-12.618,123.874L-12.606,123.865L-12.596,123.86L-12.583,123.863L-12.575,123.872L-12.567,123.881L-12.565,123.89L-12.569,123.897L-12.578,123.9L-12.585,123.9L-12.6,123.896L-12.61,123.895L-12.618,123.897L-12.626,123.901L-12.632,123.907L-12.644,123.914L-12.666,123.917L-12.675,123.92L-12.678,123.924L-12.68,123.933L-12.688,123.942L-12.693,123.944L-12.696,123.948L-12.69,123.955L-12.683,123.96L-12.678,123.965L-12.677,123.972L-12.675,123.979L-12.663,123.982L-12.659,123.985L-12.643,123.982L-12.633,123.982L-12.624,123.986L-12.615,123.988L-12.607,124.001L-12.608,124.012L-12.614,124.019L-12.619,124.025L-12.63,124.027L-12.645,124.027L-12.663,124.026L-12.675,124.027L-12.681,124.034L-12.691,124.037L-12.696,124.043L-12.694,124.049L-12.689,124.054L-12.683,124.063L-12.683,124.072L-12.677,124.077L-12.663,124.091L-12.648,124.099L-12.637,124.101L-12.626,124.1L-12.616,124.092L-12.606,124.088L-12.599,124.09L-12.573,124.116L-12.561,124.126L-12.553,124.136L-12.534,124.146L-12.526,124.153L-12.516,124.169L-12.514,124.183L-12.514,124.193L-12.511,124.201L-12.508,124.216L-12.506,124.224L-12.499,124.23L-12.503,124.238L-12.505,124.249L-12.504,124.258L-12.5,124.272L-12.499,124.286L-12.494,124.292L-12.484,124.296L-12.483,124.303L-12.488,124.312L-12.489,124.321L-12.496,124.328L-12.504,124.33L-12.515,124.335L-12.524,124.343L-12.532,124.353L-12.536,124.361L-12.537,124.375L-12.539,124.387L-12.538,124.396L-12.536,124.416L-12.535,124.431L-12.527,124.438L-12.516,124.442L-12.508,124.45L-12.499,124.452L-12.488,124.453L-12.481,124.451L-12.471,124.453L-12.46,124.455L-12.445,124.457L-12.436,124.456L-12.43,124.452Z" style="fill:rgb(36,121,200);"/>
    </g>
    <g transform="matrix(1.39967,0,0,1.39967,128.597,-586.209)">
        <circle cx="939.479" cy="1127.75" r="11.724" style="fill:rgb(255,118,0);"/>
    </g>
</svg>
