<?xml version="1.0" encoding="UTF-8" standalone="no"?>
<!DOCTYPE svg PUBLIC "-//W3C//DTD SVG 1.1//EN" "http://www.w3.org/Graphics/SVG/1.1/DTD/svg11.dtd">
<svg width="100%" height="100%" viewBox="0 0 1500 1500" version="1.1" xmlns="http://www.w3.org/2000/svg" xmlns:xlink="http://www.w3.org/1999/xlink" xml:space="preserve" xmlns:serif="http://www.serif.com/" style="fill-rule:evenodd;clip-rule:evenodd;stroke-linejoin:round;stroke-miterlimit:2;">
    <g transform="matrix(812.697,-1.31531e-29,-1.31531e-29,-812.697,-35549,95919.9)">
        <path d="M44.4,117.869L44.419,117.859L44.422,117.854L44.422,117.847L44.422,117.843L44.416,117.838L44.409,117.834L44.403,117.832L44.401,117.828L44.402,117.822L44.408,117.817L44.416,117.817L44.417,117.815L44.409,117.795L44.402,117.775L44.401,117.762L44.408,117.752L44.417,117.742L44.418,117.736L44.408,117.717L44.405,117.706L44.401,117.701L44.395,117.701L44.386,117.703L44.383,117.702L44.377,117.697L44.377,117.691L44.382,117.685L44.384,117.68L44.397,117.682L44.403,117.677L44.41,117.673L44.409,117.663L44.409,117.656L44.42,117.648L44.423,117.637L44.424,117.628L44.424,117.625L44.429,117.619L44.44,117.61L44.445,117.598L44.444,117.571L44.442,117.566L44.437,117.559L44.435,117.556L44.434,117.551L44.438,117.532L44.438,117.524L44.436,117.515L44.43,117.507L44.416,117.496L44.406,117.49L44.399,117.483L44.392,117.472L44.391,117.461L44.394,117.445L44.394,117.439L44.392,117.435L44.387,117.432L44.384,117.428L44.382,117.422L44.383,117.401L44.386,117.39L44.39,117.385L44.399,117.382L44.409,117.384L44.419,117.382L44.425,117.378L44.428,117.376L44.433,117.376L44.442,117.381L44.447,117.382L44.454,117.381L44.462,117.383L44.466,117.387L44.473,117.397L44.477,117.401L44.481,117.404L44.49,117.405L44.498,117.408L44.508,117.413L44.519,117.421L44.538,117.433L44.555,117.444L44.575,117.46L44.588,117.469L44.595,117.471L44.599,117.471L44.605,117.466L44.606,117.462L44.604,117.451L44.597,117.44L44.602,117.431L44.61,117.42L44.613,117.414L44.614,117.401L44.612,117.387L44.608,117.377L44.608,117.366L44.63,117.344L44.65,117.33L44.674,117.317L44.688,117.305L44.697,117.294L44.698,117.279L44.697,117.267L44.695,117.26L44.691,117.255L44.673,117.24L44.667,117.234L44.652,117.228L44.643,117.221L44.632,117.21L44.619,117.198L44.603,117.177L44.6,117.173L44.595,117.172L44.586,117.175L44.58,117.175L44.573,117.174L44.571,117.172L44.57,117.162L44.57,117.152L44.577,117.143L44.577,117.133L44.585,117.117L44.596,117.1L44.599,117.09L44.608,117.086L44.616,117.092L44.627,117.101L44.634,117.109L44.638,117.117L44.646,117.126L44.655,117.134L44.666,117.135L44.677,117.135L44.685,117.131L44.691,117.131L44.704,117.134L44.714,117.14L44.719,117.141L44.723,117.141L44.734,117.137L44.743,117.135L44.748,117.131L44.757,117.12L44.773,117.105L44.785,117.097L44.795,117.092L44.821,117.087L44.847,117.082L44.864,117.079L44.875,117.077L44.885,117.079L44.895,117.081L44.915,117.093L44.923,117.094L44.937,117.094L44.948,117.089L44.957,117.084L44.961,117.079L44.966,117.072L44.966,117.061L44.964,117.056L44.959,117.053L44.958,117.049L44.963,117.038L44.967,117.034L44.977,117.032L44.996,117.025L45.001,117.027L45.011,117.027L45.018,117.03L45.024,117.035L45.027,117.039L45.04,117.04L45.053,117.052L45.062,117.069L45.065,117.086L45.066,117.099L45.063,117.108L45.063,117.116L45.065,117.125L45.071,117.128L45.074,117.128L45.078,117.126L45.082,117.122L45.088,117.12L45.095,117.117L45.103,117.116L45.109,117.115L45.114,117.111L45.12,117.111L45.129,117.111L45.137,117.108L45.144,117.109L45.151,117.112L45.155,117.118L45.166,117.125L45.181,117.128L45.186,117.128L45.192,117.126L45.203,117.12L45.213,117.115L45.225,117.108L45.245,117.093L45.254,117.082L45.264,117.066L45.273,117.06L45.29,117.061L45.296,117.059L45.304,117.055L45.309,117.052L45.315,117.053L45.319,117.057L45.319,117.066L45.313,117.075L45.312,117.081L45.314,117.089L45.322,117.101L45.329,117.106L45.342,117.107L45.353,117.103L45.372,117.097L45.393,117.092L45.411,117.091L45.428,117.094L45.437,117.094L45.445,117.092L45.453,117.085L45.46,117.066L45.461,117.058L45.461,117.052L45.453,117.044L45.448,117.035L45.449,117.026L45.457,117.012L45.471,116.995L45.487,116.985L45.518,116.977L45.539,116.97L45.55,116.971L45.557,116.974L45.568,116.974L45.575,116.967L45.577,116.96L45.578,116.948L45.579,116.941L45.575,116.93L45.564,116.914L45.556,116.904L45.548,116.889L45.549,116.882L45.549,116.86L45.543,116.852L45.532,116.842L45.526,116.835L45.51,116.828L45.499,116.825L45.494,116.816L45.492,116.811L45.482,116.808L45.473,116.806L45.458,116.806L45.451,116.808L45.446,116.812L45.443,116.82L45.434,116.824L45.422,116.825L45.415,116.824L45.415,116.819L45.418,116.808L45.42,116.798L45.42,116.792L45.415,116.79L45.41,116.791L45.405,116.794L45.391,116.803L45.379,116.809L45.373,116.812L45.371,116.814L45.371,116.823L45.368,116.825L45.361,116.825L45.354,116.837L45.346,116.843L45.342,116.846L45.336,116.847L45.329,116.852L45.321,116.86L45.312,116.868L45.306,116.878L45.299,116.885L45.292,116.885L45.284,116.881L45.274,116.877L45.27,116.877L45.246,116.899L45.213,116.913L45.206,116.917L45.198,116.914L45.194,116.917L45.172,116.926L45.161,116.934L45.152,116.941L45.149,116.94L45.151,116.934L45.157,116.932L45.157,116.914L45.154,116.905L45.149,116.885L45.143,116.862L45.14,116.842L45.142,116.828L45.144,116.818L45.149,116.797L45.149,116.792L45.162,116.78L45.168,116.776L45.17,116.769L45.178,116.759L45.187,116.752L45.199,116.748L45.213,116.748L45.218,116.753L45.219,116.759L45.218,116.764L45.216,116.767L45.219,116.769L45.228,116.768L45.239,116.772L45.253,116.77L45.262,116.766L45.266,116.76L45.273,116.747L45.281,116.743L45.305,116.736L45.32,116.729L45.324,116.726L45.328,116.713L45.33,116.681L45.327,116.655L45.318,116.635L45.302,116.613L45.283,116.589L45.267,116.564L45.237,116.53L45.207,116.506L45.187,116.497L45.174,116.497L45.154,116.5L45.135,116.501L45.118,116.495L45.106,116.488L45.1,116.48L45.106,116.468L45.106,116.462L45.109,116.456L45.117,116.446L45.126,116.436L45.136,116.43L45.144,116.43L45.154,116.429L45.161,116.428L45.166,116.426L45.171,116.422L45.178,116.413L45.189,116.403L45.2,116.403L45.203,116.402L45.208,116.4L45.214,116.39L45.214,116.384L45.212,116.375L45.21,116.37L45.198,116.361L45.183,116.354L45.172,116.353L45.165,116.356L45.159,116.362L45.154,116.369L45.142,116.377L45.126,116.384L45.111,116.388L45.101,116.39L45.092,116.395L45.083,116.405L45.073,116.42L45.064,116.434L45.047,116.444L45.01,116.468L44.991,116.48L44.974,116.494L44.963,116.499L44.947,116.498L44.936,116.5L44.916,116.518L44.898,116.533L44.887,116.545L44.887,116.556L44.878,116.565L44.865,116.572L44.853,116.574L44.838,116.574L44.821,116.579L44.815,116.583L44.809,116.582L44.803,116.583L44.802,116.589L44.793,116.599L44.785,116.608L44.77,116.621L44.764,116.624L44.755,116.621L44.753,116.617L44.749,116.616L44.739,116.616L44.735,116.62L44.74,116.627L44.75,116.636L44.757,116.644L44.764,116.655L44.771,116.663L44.776,116.672L44.78,116.681L44.774,116.692L44.773,116.7L44.767,116.704L44.763,116.704L44.759,116.697L44.753,116.696L44.747,116.697L44.732,116.703L44.716,116.703L44.699,116.702L44.689,116.699L44.677,116.691L44.664,116.681L44.646,116.664L44.635,116.651L44.629,116.645L44.628,116.637L44.63,116.631L44.639,116.625L44.646,116.619L44.648,116.614L44.648,116.608L44.642,116.602L44.636,116.6L44.625,116.599L44.606,116.604L44.596,116.606L44.591,116.606L44.586,116.604L44.592,116.6L44.608,116.597L44.623,116.593L44.629,116.589L44.637,116.585L44.648,116.582L44.641,116.58L44.639,116.578L44.629,116.575L44.62,116.568L44.613,116.557L44.604,116.551L44.592,116.543L44.589,116.536L44.591,116.527L44.589,116.517L44.593,116.502L44.595,116.497L44.594,116.491L44.601,116.483L44.617,116.474L44.632,116.463L44.641,116.453L44.642,116.443L44.639,116.426L44.635,116.416L44.63,116.41L44.627,116.406L44.627,116.402L44.619,116.397L44.609,116.396L44.594,116.393L44.583,116.388L44.577,116.387L44.56,116.39L44.553,116.395L44.547,116.405L44.541,116.42L44.541,116.436L44.546,116.44L44.55,116.457L44.555,116.465L44.56,116.471L44.56,116.48L44.558,116.486L44.553,116.491L44.547,116.494L44.542,116.498L44.539,116.506L44.537,116.524L44.532,116.533L44.527,116.54L44.516,116.549L44.51,116.551L44.493,116.551L44.486,116.553L44.475,116.559L44.465,116.56L44.459,116.561L44.452,116.57L44.447,116.579L44.446,116.588L44.448,116.6L44.453,116.606L44.454,116.612L44.458,116.621L44.462,116.625L44.467,116.627L44.471,116.626L44.476,116.622L44.478,116.619L44.484,116.618L44.491,116.619L44.496,116.628L44.497,116.638L44.505,116.655L44.502,116.66L44.496,116.662L44.484,116.664L44.475,116.666L44.465,116.671L44.456,116.683L44.451,116.686L44.44,116.682L44.433,116.678L44.427,116.675L44.424,116.671L44.419,116.672L44.413,116.677L44.406,116.682L44.401,116.682L44.395,116.682L44.389,116.68L44.38,116.669L44.377,116.664L44.374,116.663L44.367,116.662L44.36,116.662L44.348,116.667L44.351,116.657L44.352,116.643L44.352,116.637L44.345,116.627L44.34,116.617L44.337,116.61L44.338,116.592L44.344,116.582L44.349,116.575L44.35,116.567L44.349,116.56L44.345,116.55L44.342,116.545L44.337,116.541L44.327,116.537L44.316,116.537L44.289,116.541L44.278,116.55L44.275,116.557L44.272,116.57L44.277,116.573L44.28,116.58L44.279,116.583L44.276,116.588L44.271,116.589L44.268,116.591L44.277,116.594L44.288,116.602L44.294,116.611L44.305,116.635L44.306,116.653L44.311,116.659L44.318,116.666L44.321,116.672L44.319,116.705L44.319,116.725L44.315,116.74L44.313,116.749L44.312,116.757L44.31,116.765L44.3,116.785L44.289,116.8L44.275,116.816L44.264,116.827L44.25,116.836L44.24,116.846L44.227,116.851L44.217,116.855L44.187,116.875L44.174,116.887L44.163,116.894L44.154,116.902L44.149,116.912L44.144,116.917L44.138,116.919L44.137,116.924L44.131,116.931L44.127,116.935L44.12,116.939L44.119,116.943L44.113,116.962L44.107,116.984L44.102,117.003L44.1,117.024L44.095,117.047L44.093,117.057L44.089,117.063L44.085,117.067L44.083,117.078L44.08,117.092L44.076,117.101L44.065,117.112L44.06,117.121L44.053,117.13L44.045,117.137L44.037,117.142L44.027,117.148L44.007,117.157L43.998,117.16L43.987,117.16L43.982,117.158L43.98,117.154L43.979,117.15L43.977,117.144L43.972,117.139L43.967,117.139L43.963,117.141L43.957,117.149L43.955,117.158L43.95,117.166L43.941,117.172L43.928,117.177L43.918,117.183L43.902,117.187L43.888,117.188L43.865,117.189L43.847,117.188L43.84,117.19L43.834,117.189L43.825,117.19L43.807,117.19L43.803,117.189L43.801,117.187L43.797,117.186L43.792,117.186L43.79,117.189L43.788,117.195L43.789,117.201L43.791,117.204L43.796,117.206L43.804,117.206L43.807,117.209L43.813,117.217L43.816,117.225L43.816,117.234L43.807,117.25L43.809,117.261L43.809,117.267L43.806,117.27L43.797,117.274L43.792,117.281L43.79,117.285L43.785,117.287L43.779,117.286L43.774,117.283L43.772,117.276L43.769,117.273L43.765,117.273L43.761,117.276L43.759,117.276L43.752,117.275L43.747,117.276L43.744,117.28L43.747,117.287L43.747,117.292L43.75,117.297L43.753,117.302L43.763,117.309L43.766,117.313L43.765,117.316L43.758,117.325L43.752,117.334L43.75,117.34L43.751,117.345L43.76,117.351L43.772,117.357L43.775,117.364L43.779,117.39L43.783,117.411L43.782,117.423L43.774,117.434L43.773,117.445L43.776,117.449L43.781,117.452L43.791,117.458L43.798,117.471L43.808,117.486L43.814,117.492L43.823,117.495L43.83,117.497L43.843,117.497L43.854,117.498L43.861,117.502L43.868,117.502L43.877,117.5L43.887,117.507L43.894,117.512L43.902,117.518L43.923,117.52L43.932,117.524L43.943,117.523L43.952,117.528L43.96,117.532L43.966,117.538L43.97,117.541L43.976,117.55L43.978,117.555L43.978,117.561L43.975,117.569L43.973,117.572L43.971,117.577L43.964,117.585L43.963,117.592L43.97,117.596L43.977,117.596L43.989,117.601L44.002,117.599L44.005,117.599L44.008,117.603L44.009,117.607L44.009,117.617L44.004,117.622L44,117.63L43.999,117.633L44.001,117.636L44.007,117.642L44.016,117.649L44.02,117.652L44.031,117.653L44.033,117.656L44.033,117.66L44.028,117.663L44.021,117.664L44.017,117.667L44.013,117.671L44.012,117.674L44.012,117.679L44.011,117.684L44.011,117.688L44.008,117.692L43.997,117.706L43.995,117.711L43.994,117.718L43.998,117.727L44.002,117.732L44.011,117.736L44.025,117.737L44.042,117.735L44.047,117.734L44.053,117.729L44.057,117.729L44.066,117.734L44.071,117.746L44.071,117.751L44.069,117.756L44.063,117.758L44.047,117.766L44.04,117.768L44.039,117.773L44.058,117.78L44.094,117.798L44.118,117.815L44.126,117.82L44.136,117.821L44.144,117.827L44.153,117.836L44.159,117.843L44.167,117.846L44.176,117.857L44.188,117.862L44.193,117.862L44.199,117.861L44.205,117.857L44.208,117.85L44.21,117.844L44.208,117.838L44.204,117.834L44.189,117.829L44.177,117.825L44.167,117.818L44.161,117.805L44.158,117.788L44.154,117.777L44.147,117.766L44.139,117.754L44.134,117.749L44.127,117.746L44.124,117.739L44.125,117.729L44.128,117.727L44.126,117.723L44.12,117.718L44.109,117.713L44.098,117.704L44.087,117.69L44.081,117.675L44.079,117.655L44.085,117.636L44.102,117.616L44.109,117.606L44.115,117.599L44.129,117.593L44.138,117.588L44.145,117.583L44.145,117.578L44.14,117.57L44.136,117.563L44.127,117.558L44.124,117.554L44.119,117.552L44.116,117.553L44.116,117.56L44.108,117.557L44.095,117.555L44.086,117.55L44.078,117.546L44.07,117.542L44.066,117.54L44.059,117.531L44.057,117.522L44.056,117.516L44.056,117.51L44.069,117.498L44.083,117.486L44.089,117.479L44.099,117.477L44.108,117.478L44.113,117.483L44.122,117.495L44.125,117.502L44.13,117.507L44.13,117.516L44.131,117.526L44.132,117.532L44.128,117.538L44.129,117.547L44.134,117.547L44.14,117.546L44.145,117.547L44.155,117.552L44.158,117.552L44.163,117.548L44.168,117.547L44.178,117.549L44.182,117.548L44.185,117.546L44.188,117.549L44.19,117.559L44.195,117.564L44.201,117.573L44.201,117.583L44.203,117.585L44.206,117.594L44.208,117.6L44.21,117.607L44.215,117.619L44.221,117.627L44.224,117.631L44.23,117.632L44.227,117.639L44.221,117.653L44.219,117.666L44.219,117.673L44.224,117.682L44.226,117.689L44.225,117.696L44.22,117.709L44.217,117.718L44.217,117.723L44.221,117.729L44.229,117.732L44.249,117.736L44.252,117.737L44.254,117.729L44.259,117.734L44.264,117.744L44.268,117.749L44.282,117.755L44.286,117.76L44.292,117.77L44.295,117.777L44.298,117.781L44.303,117.784L44.311,117.784L44.315,117.78L44.32,117.772L44.325,117.766L44.328,117.763L44.334,117.763L44.34,117.769L44.342,117.772L44.343,117.775L44.339,117.786L44.339,117.793L44.35,117.809L44.358,117.825L44.362,117.831L44.366,117.835L44.376,117.836L44.385,117.849L44.387,117.854L44.389,117.862L44.391,117.868L44.394,117.87L44.4,117.869ZM44.559,117.081L44.556,117.074L44.548,117.073L44.543,117.063L44.541,117.059L44.546,117.056L44.55,117.053L44.551,117.045L44.551,117.038L44.546,117.033L44.55,117.028L44.553,117.026L44.555,117.023L44.555,117.02L44.556,117.015L44.56,117.006L44.564,116.997L44.563,116.993L44.557,116.991L44.542,116.989L44.52,116.996L44.519,116.984L44.515,116.976L44.509,116.968L44.498,116.963L44.491,116.95L44.496,116.95L44.498,116.949L44.499,116.944L44.494,116.934L44.491,116.927L44.475,116.903L44.473,116.892L44.482,116.886L44.483,116.881L44.488,116.88L44.494,116.879L44.498,116.88L44.506,116.876L44.524,116.87L44.528,116.866L44.534,116.858L44.54,116.846L44.548,116.832L44.559,116.815L44.567,116.799L44.577,116.795L44.586,116.788L44.594,116.779L44.601,116.768L44.606,116.763L44.613,116.758L44.621,116.749L44.628,116.747L44.634,116.749L44.639,116.758L44.645,116.769L44.65,116.771L44.655,116.776L44.665,116.783L44.674,116.785L44.683,116.788L44.694,116.793L44.705,116.796L44.71,116.799L44.714,116.805L44.719,116.813L44.718,116.815L44.705,116.822L44.699,116.828L44.693,116.838L44.693,116.846L44.695,116.856L44.693,116.868L44.682,116.882L44.675,116.902L44.664,116.918L44.66,116.923L44.65,116.927L44.647,116.925L44.641,116.928L44.635,116.933L44.628,116.937L44.628,116.942L44.626,116.946L44.625,116.95L44.623,116.951L44.616,116.95L44.626,116.962L44.631,116.965L44.641,116.965L44.646,116.967L44.647,116.97L44.645,116.973L44.645,116.979L44.648,116.991L44.654,116.996L44.665,117.002L44.67,117.004L44.674,117.002L44.679,116.997L44.685,116.985L44.688,116.984L44.694,116.975L44.701,116.961L44.702,116.953L44.706,116.949L44.712,116.947L44.72,116.947L44.727,116.95L44.733,116.954L44.74,116.962L44.745,116.973L44.747,116.984L44.745,116.992L44.74,117.001L44.737,117.005L44.731,117.005L44.728,117.006L44.721,117.017L44.719,117.026L44.715,117.032L44.711,117.043L44.708,117.05L44.704,117.049L44.701,117.045L44.695,117.035L44.689,117.03L44.686,117.032L44.675,117.04L44.672,117.046L44.667,117.05L44.661,117.051L44.653,117.046L44.645,117.038L44.639,117.035L44.625,117.024L44.618,117.02L44.618,117.026L44.616,117.032L44.612,117.036L44.606,117.038L44.593,117.045L44.562,117.06L44.559,117.072L44.561,117.084L44.558,117.088L44.559,117.081ZM43.984,117.439L43.982,117.432L43.979,117.427L43.977,117.414L43.976,117.408L43.98,117.404L43.984,117.401L43.988,117.395L43.993,117.39L43.993,117.386L43.99,117.384L43.977,117.379L43.969,117.373L43.968,117.365L43.964,117.357L43.962,117.341L43.956,117.329L43.951,117.328L43.943,117.328L43.939,117.33L43.937,117.334L43.935,117.336L43.923,117.336L43.912,117.334L43.907,117.333L43.901,117.326L43.895,117.325L43.88,117.32L43.859,117.31L43.842,117.296L43.84,117.287L43.841,117.279L43.843,117.269L43.849,117.256L43.86,117.247L43.864,117.248L43.872,117.25L43.884,117.254L43.891,117.258L43.895,117.257L43.903,117.252L43.91,117.255L43.916,117.256L43.924,117.252L43.927,117.248L43.928,117.244L43.933,117.236L43.937,117.232L43.945,117.228L43.95,117.226L43.957,117.214L43.964,117.212L43.973,117.212L43.984,117.214L43.994,117.212L43.998,117.212L44.001,117.209L44.008,117.204L44.011,117.206L44.015,117.217L44.022,117.227L44.03,117.233L44.033,117.241L44.036,117.258L44.036,117.281L44.036,117.3L44.031,117.316L44.029,117.323L44.034,117.335L44.034,117.341L44.03,117.358L44.025,117.367L44.018,117.376L44.014,117.386L44.013,117.391L44.018,117.401L44.026,117.411L44.031,117.411L44.034,117.41L44.043,117.4L44.048,117.392L44.048,117.375L44.053,117.369L44.052,117.364L44.055,117.362L44.063,117.358L44.072,117.357L44.075,117.359L44.081,117.363L44.086,117.372L44.088,117.379L44.093,117.401L44.094,117.417L44.077,117.44L44.073,117.441L44.069,117.44L44.064,117.438L44.06,117.434L44.052,117.43L44.044,117.426L44.037,117.425L44.032,117.428L44.031,117.438L44.028,117.446L44.021,117.452L44.01,117.453L43.997,117.45L43.995,117.448L43.993,117.442L43.984,117.439ZM44.934,116.729L44.926,116.724L44.921,116.723L44.916,116.723L44.91,116.725L44.907,116.724L44.904,116.723L44.894,116.722L44.892,116.719L44.892,116.714L44.89,116.709L44.883,116.702L44.881,116.696L44.883,116.691L44.892,116.684L44.899,116.678L44.899,116.676L44.899,116.672L44.898,116.668L44.895,116.664L44.893,116.663L44.891,116.659L44.892,116.654L44.895,116.651L44.897,116.648L44.897,116.644L44.894,116.639L44.896,116.636L44.9,116.632L44.901,116.625L44.908,116.62L44.915,116.614L44.92,116.609L44.927,116.607L44.931,116.61L44.935,116.619L44.94,116.622L44.943,116.624L44.951,116.627L44.958,116.633L44.961,116.639L44.962,116.643L44.958,116.652L44.962,116.663L44.969,116.67L44.97,116.674L44.968,116.676L44.967,116.685L44.963,116.689L44.958,116.692L44.948,116.692L44.942,116.695L44.94,116.697L44.939,116.701L44.94,116.706L44.949,116.71L44.953,116.715L44.954,116.723L44.956,116.737L44.957,116.74L44.956,116.744L44.952,116.743L44.949,116.741L44.943,116.741L44.94,116.74L44.937,116.736L44.934,116.729ZM44.223,117.208L44.217,117.204L44.213,117.189L44.206,117.175L44.2,117.167L44.191,117.158L44.187,117.145L44.187,117.137L44.19,117.132L44.189,117.129L44.195,117.13L44.2,117.131L44.202,117.131L44.207,117.129L44.212,117.12L44.212,117.116L44.214,117.113L44.218,117.111L44.221,117.108L44.226,117.1L44.229,117.088L44.232,117.088L44.233,117.093L44.236,117.099L44.239,117.105L44.239,117.123L44.237,117.134L44.234,117.141L44.231,117.145L44.239,117.145L44.243,117.141L44.249,117.135L44.256,117.124L44.261,117.12L44.266,117.119L44.272,117.119L44.274,117.121L44.274,117.125L44.276,117.128L44.279,117.131L44.281,117.135L44.281,117.141L44.28,117.153L44.277,117.16L44.276,117.167L44.276,117.185L44.275,117.196L44.268,117.209L44.258,117.222L44.254,117.222L44.249,117.219L44.249,117.215L44.234,117.212L44.223,117.208ZM43.933,117.435L43.928,117.435L43.923,117.431L43.917,117.429L43.907,117.428L43.902,117.425L43.9,117.419L43.896,117.418L43.891,117.417L43.888,117.412L43.886,117.396L43.891,117.38L43.896,117.376L43.902,117.372L43.907,117.37L43.91,117.37L43.915,117.372L43.923,117.376L43.93,117.383L43.935,117.387L43.937,117.392L43.939,117.401L43.942,117.412L43.941,117.428L43.933,117.435ZM44.229,116.956L44.232,116.959L44.243,116.966L44.246,116.971L44.245,116.975L44.255,116.984L44.257,116.988L44.267,116.989L44.267,117.003L44.266,117.007L44.26,117.012L44.255,117.017L44.25,117.019L44.242,117.02L44.234,117.019L44.228,117.017L44.221,117.013L44.21,117.013L44.205,117.012L44.2,117L44.204,116.998L44.212,116.998L44.228,116.999L44.231,116.997L44.234,116.995L44.236,116.992L44.236,116.987L44.232,116.984L44.228,116.979L44.223,116.978L44.221,116.971L44.223,116.964L44.226,116.957L44.229,116.956ZM44.173,116.994L44.174,116.999L44.175,117.007L44.174,117.017L44.169,117.027L44.164,117.034L44.154,117.039L44.15,117.039L44.146,117.036L44.143,117.033L44.143,117.029L44.145,117.021L44.147,117.01L44.152,116.998L44.156,116.991L44.166,116.988L44.169,116.989L44.173,116.994ZM44.848,116.611L44.843,116.616L44.842,116.621L44.845,116.622L44.844,116.626L44.842,116.627L44.833,116.624L44.827,116.624L44.818,116.624L44.816,116.621L44.819,116.615L44.821,116.614L44.824,116.609L44.832,116.603L44.833,116.598L44.836,116.594L44.839,116.594L44.841,116.598L44.84,116.601L44.842,116.605L44.845,116.609L44.848,116.611ZM44.193,117.079L44.193,117.085L44.189,117.088L44.184,117.088L44.177,117.086L44.174,117.082L44.177,117.074L44.186,117.067L44.19,117.067L44.193,117.069L44.196,117.074L44.193,117.079ZM44.376,117.088L44.376,117.086L44.377,117.083L44.385,117.08L44.389,117.082L44.392,117.088L44.39,117.092L44.387,117.094L44.38,117.094L44.378,117.093L44.376,117.088ZM44.461,116.947L44.463,116.95L44.464,116.955L44.461,116.957L44.459,116.957L44.453,116.953L44.453,116.95L44.455,116.948L44.461,116.947ZM45.131,116.948L45.132,116.945L45.136,116.947L45.136,116.948L45.142,116.946L45.139,116.949L45.138,116.953L45.135,116.955L45.131,116.951L45.131,116.948ZM44.855,116.618L44.853,116.62L44.851,116.62L44.85,116.617L44.853,116.615L44.855,116.617L44.855,116.618ZM44.858,116.622L44.858,116.619L44.86,116.62L44.861,116.621L44.861,116.623L44.859,116.623L44.858,116.622ZM44.86,116.628L44.86,116.632L44.858,116.632L44.857,116.631L44.858,116.629L44.86,116.628Z" style="fill:rgb(36,121,200);"/>
    </g>
    <g transform="matrix(1.39967,0,0,1.39967,-207.017,-322.047)">
        <circle cx="939.479" cy="1127.75" r="11.724" style="fill:rgb(255,118,0);"/>
    </g>
</svg>
