<?xml version="1.0" encoding="UTF-8" standalone="no"?>
<!DOCTYPE svg PUBLIC "-//W3C//DTD SVG 1.1//EN" "http://www.w3.org/Graphics/SVG/1.1/DTD/svg11.dtd">
<svg width="100%" height="100%" viewBox="0 0 1500 1500" version="1.1" xmlns="http://www.w3.org/2000/svg" xmlns:xlink="http://www.w3.org/1999/xlink" xml:space="preserve" xmlns:serif="http://www.serif.com/" style="fill-rule:evenodd;clip-rule:evenodd;stroke-linejoin:round;stroke-miterlimit:2;">
    <g transform="matrix(917.633,2.21378e-29,2.21378e-29,-917.633,-1778,122749)">
        <path d="M3.176,133.316L3.176,133.304L3.178,133.301L3.178,133.294L3.176,133.291L3.171,133.285L3.166,133.279L3.162,133.271L3.157,133.268L3.153,133.262L3.142,133.244L3.138,133.234L3.138,133.228L3.142,133.22L3.152,133.211L3.156,133.206L3.157,133.203L3.157,133.192L3.16,133.181L3.16,133.175L3.158,133.146L3.157,133.141L3.156,133.136L3.16,133.118L3.171,133.098L3.177,133.09L3.184,133.074L3.19,133.057L3.199,133.042L3.204,133.032L3.221,133.016L3.237,133.015L3.25,133.011L3.261,133.006L3.274,132.997L3.294,132.996L3.316,132.998L3.33,132.998L3.346,132.995L3.368,132.989L3.377,132.988L3.393,132.983L3.413,132.976L3.429,132.976L3.442,132.978L3.453,132.975L3.471,132.968L3.489,132.965L3.513,132.967L3.535,132.967L3.551,132.968L3.561,132.968L3.566,132.966L3.562,132.964L3.564,132.951L3.563,132.945L3.555,132.942L3.541,132.935L3.532,132.93L3.525,132.927L3.517,132.93L3.507,132.927L3.496,132.922L3.481,132.918L3.461,132.915L3.435,132.909L3.421,132.905L3.394,132.901L3.382,132.898L3.375,132.896L3.361,132.893L3.316,132.888L3.282,132.879L3.253,132.875L3.228,132.868L3.213,132.861L3.201,132.854L3.196,132.846L3.187,132.831L3.185,132.823L3.181,132.82L3.175,132.819L3.165,132.813L3.161,132.809L3.153,132.807L3.141,132.803L3.126,132.801L3.119,132.801L3.11,132.806L3.096,132.809L3.086,132.809L3.065,132.806L3.052,132.8L3.041,132.795L3.036,132.786L3.022,132.784L3.013,132.779L3.002,132.774L2.99,132.761L2.971,132.759L2.949,132.751L2.941,132.741L2.934,132.725L2.927,132.707L2.918,132.696L2.914,132.684L2.908,132.678L2.893,132.663L2.89,132.66L2.884,132.66L2.874,132.664L2.873,132.667L2.875,132.67L2.872,132.687L2.869,132.7L2.864,132.716L2.861,132.724L2.855,132.728L2.842,132.731L2.825,132.732L2.805,132.732L2.788,132.733L2.771,132.73L2.744,132.729L2.726,132.729L2.701,132.727L2.686,132.725L2.675,132.722L2.657,132.712L2.65,132.705L2.643,132.705L2.636,132.701L2.63,132.693L2.624,132.684L2.617,132.675L2.608,132.655L2.602,132.653L2.599,132.652L2.594,132.654L2.585,132.654L2.57,132.647L2.556,132.645L2.544,132.649L2.532,132.652L2.525,132.661L2.517,132.661L2.504,132.664L2.498,132.67L2.488,132.677L2.482,132.681L2.474,132.689L2.442,132.692L2.439,132.696L2.437,132.7L2.434,132.702L2.429,132.7L2.425,132.7L2.417,132.702L2.412,132.702L2.407,132.701L2.404,132.698L2.4,132.699L2.389,132.702L2.375,132.701L2.364,132.699L2.355,132.698L2.351,132.696L2.345,132.693L2.339,132.693L2.329,132.692L2.325,132.689L2.322,132.688L2.319,132.688L2.311,132.691L2.301,132.692L2.298,132.692L2.291,132.696L2.266,132.694L2.229,132.689L2.209,132.684L2.19,132.678L2.183,132.68L2.176,132.678L2.155,132.677L2.149,132.678L2.146,132.682L2.144,132.676L2.144,132.67L2.142,132.668L2.138,132.667L2.126,132.667L2.12,132.666L2.118,132.665L2.116,132.663L2.113,132.661L2.11,132.661L2.105,132.661L2.101,132.665L2.101,132.667L2.107,132.676L2.105,132.677L2.093,132.678L2.092,132.675L2.083,132.677L2.078,132.674L2.076,132.673L2.07,132.678L2.076,132.679L2.076,132.682L2.073,132.684L2.068,132.682L2.055,132.68L2.049,132.678L2.04,132.673L2.035,132.673L2.027,132.676L2.019,132.677L2.007,132.676L2.003,132.675L1.998,132.672L1.993,132.67L1.987,132.661L1.99,132.655L1.993,132.647L1.994,132.644L1.995,132.64L1.995,132.637L1.991,132.633L1.986,132.631L1.983,132.632L1.984,132.635L1.99,132.641L1.99,132.644L1.988,132.648L1.981,132.656L1.98,132.661L1.982,132.666L1.987,132.67L1.991,132.675L1.99,132.677L1.984,132.676L1.977,132.676L1.972,132.675L1.971,132.672L1.97,132.669L1.968,132.667L1.964,132.667L1.962,132.67L1.962,132.675L1.965,132.678L1.974,132.682L1.981,132.684L1.984,132.684L1.991,132.682L2,132.684L2.016,132.685L2.02,132.689L2.024,132.689L2.027,132.688L2.03,132.684L2.036,132.683L2.034,132.687L2.035,132.69L2.039,132.69L2.042,132.688L2.045,132.686L2.05,132.686L2.057,132.689L2.065,132.692L2.071,132.693L2.078,132.693L2.084,132.691L2.091,132.688L2.105,132.687L2.132,132.689L2.132,132.697L2.133,132.714L2.134,132.72L2.142,132.721L2.17,132.714L2.182,132.711L2.208,132.704L2.227,132.707L2.242,132.707L2.254,132.704L2.279,132.706L2.287,132.713L2.293,132.716L2.299,132.716L2.299,132.712L2.296,132.707L2.296,132.704L2.292,132.702L2.295,132.701L2.325,132.704L2.341,132.705L2.366,132.708L2.379,132.71L2.381,132.706L2.395,132.713L2.416,132.719L2.43,132.729L2.435,132.735L2.462,132.75L2.478,132.761L2.488,132.771L2.5,132.778L2.507,132.78L2.517,132.78L2.527,132.784L2.538,132.786L2.553,132.785L2.562,132.788L2.563,132.794L2.559,132.797L2.562,132.804L2.564,132.806L2.581,132.81L2.595,132.815L2.614,132.82L2.629,132.822L2.639,132.827L2.644,132.83L2.648,132.838L2.648,132.847L2.649,132.854L2.654,132.86L2.652,132.865L2.655,132.874L2.656,132.879L2.652,132.886L2.65,132.896L2.657,132.906L2.663,132.912L2.672,132.922L2.683,132.931L2.698,132.944L2.705,132.948L2.71,132.95L2.717,132.951L2.729,132.952L2.733,132.952L2.736,132.95L2.738,132.948L2.742,132.946L2.764,132.951L2.789,132.957L2.801,132.961L2.817,132.973L2.832,132.98L2.841,132.98L2.846,132.982L2.861,132.984L2.873,132.988L2.885,132.993L2.889,132.995L2.908,133.005L2.913,133.012L2.914,133.023L2.919,133.032L2.931,133.045L2.93,133.053L2.927,133.059L2.931,133.066L2.932,133.073L2.935,133.084L2.94,133.085L2.945,133.09L2.955,133.098L2.964,133.099L2.97,133.104L2.977,133.112L2.993,133.121L2.994,133.128L2.995,133.134L3.003,133.145L3.006,133.149L3.014,133.154L3.034,133.161L3.05,133.172L3.066,133.185L3.076,133.198L3.08,133.202L3.091,133.209L3.096,133.215L3.103,133.228L3.107,133.235L3.119,133.244L3.123,133.252L3.144,133.274L3.147,133.277L3.151,133.28L3.155,133.288L3.155,133.295L3.16,133.299L3.162,133.303L3.162,133.307L3.163,133.309L3.166,133.313L3.168,133.315L3.174,133.326L3.176,133.333L3.177,133.341L3.179,133.343L3.181,133.343L3.184,133.335L3.183,133.331L3.18,133.325L3.177,133.32L3.176,133.316Z" style="fill:rgb(36,121,200);"/>
    </g>
    <g transform="matrix(1.39967,0,0,1.39967,-1295.91,-593.781)">
        <circle cx="939.479" cy="1127.75" r="11.724" style="fill:rgb(255,118,0);"/>
    </g>
</svg>
