<?xml version="1.0" encoding="UTF-8" standalone="no"?>
<!DOCTYPE svg PUBLIC "-//W3C//DTD SVG 1.1//EN" "http://www.w3.org/Graphics/SVG/1.1/DTD/svg11.dtd">
<svg width="100%" height="100%" viewBox="0 0 1500 1500" version="1.1" xmlns="http://www.w3.org/2000/svg" xmlns:xlink="http://www.w3.org/1999/xlink" xml:space="preserve" xmlns:serif="http://www.serif.com/" style="fill-rule:evenodd;clip-rule:evenodd;stroke-linejoin:round;stroke-miterlimit:2;">
    <g transform="matrix(296.329,0,0,-296.329,-16562.7,36704)">
        <path d="M58.779,123.847L58.789,123.837L58.795,123.836L58.799,123.831L58.801,123.82L58.807,123.82L58.81,123.817L58.817,123.812L58.825,123.804L58.828,123.799L58.828,123.792L58.828,123.786L58.824,123.778L58.821,123.774L58.812,123.772L58.807,123.766L58.802,123.767L58.8,123.762L58.797,123.755L58.793,123.751L58.79,123.742L58.79,123.727L58.788,123.714L58.785,123.699L58.78,123.696L58.773,123.698L58.77,123.7L58.768,123.704L58.77,123.712L58.769,123.715L58.765,123.715L58.758,123.71L58.752,123.709L58.747,123.704L58.744,123.699L58.739,123.698L58.738,123.692L58.735,123.691L58.729,123.686L58.723,123.677L58.72,123.674L58.719,123.671L58.722,123.668L58.722,123.663L58.718,123.658L58.712,123.653L58.703,123.644L58.697,123.64L58.692,123.635L58.685,123.617L58.679,123.6L58.673,123.59L58.668,123.586L58.663,123.579L58.659,123.566L58.657,123.55L58.663,123.538L58.665,123.526L58.667,123.509L58.66,123.477L58.654,123.462L58.65,123.45L58.639,123.434L58.63,123.422L58.622,123.414L58.617,123.404L58.615,123.397L58.616,123.39L58.623,123.384L58.642,123.381L58.663,123.379L58.675,123.375L58.679,123.37L58.68,123.355L58.673,123.318L58.667,123.3L58.656,123.283L58.66,123.276L58.66,123.267L58.655,123.241L58.653,123.225L58.655,123.217L58.662,123.214L58.677,123.217L58.685,123.217L58.698,123.222L58.707,123.223L58.713,123.223L58.719,123.216L58.719,123.22L58.725,123.22L58.728,123.225L58.732,123.232L58.736,123.233L58.745,123.229L58.753,123.225L58.759,123.217L58.765,123.214L58.769,123.216L58.772,123.221L58.784,123.229L58.791,123.232L58.796,123.232L58.798,123.23L58.796,123.224L58.792,123.217L58.786,123.215L58.783,123.212L58.782,123.206L58.78,123.202L58.779,123.198L58.781,123.196L58.786,123.191L58.793,123.191L58.796,123.189L58.795,123.181L58.792,123.171L58.794,123.164L58.798,123.16L58.796,123.152L58.793,123.147L58.788,123.144L58.786,123.138L58.786,123.108L58.788,123.096L58.787,123.09L58.783,123.082L58.783,123.069L58.785,123.058L58.788,123.052L58.797,123.05L58.802,123.042L58.815,123.037L58.822,123.031L58.825,123.027L58.826,123.018L58.828,123.015L58.841,123.012L58.861,123.002L58.864,123.002L58.868,123.006L58.868,123.011L58.866,123.019L58.87,123.021L58.884,123.021L58.895,123.023L58.899,123.023L58.911,123.015L58.914,123.01L58.916,123.006L58.917,122.999L58.922,122.991L58.936,122.98L58.95,122.972L58.962,122.97L58.97,122.968L58.979,122.968L58.982,122.972L58.989,122.974L58.992,122.98L58.996,122.982L58.998,122.992L58.998,122.999L59.002,123.015L58.999,123.027L58.999,123.04L59.001,123.046L58.997,123.06L58.997,123.072L58.99,123.087L58.976,123.099L58.971,123.109L58.963,123.111L58.947,123.117L58.945,123.12L58.941,123.13L58.937,123.139L58.929,123.154L58.922,123.165L58.911,123.176L58.91,123.184L58.907,123.197L58.899,123.201L58.888,123.206L58.884,123.208L58.881,123.208L58.878,123.207L58.874,123.203L58.865,123.204L58.855,123.202L58.858,123.208L58.855,123.21L58.859,123.217L58.86,123.225L58.86,123.237L58.862,123.241L58.861,123.247L58.858,123.252L58.855,123.256L58.851,123.258L58.849,123.257L58.845,123.249L58.842,123.246L58.84,123.24L58.837,123.237L58.829,123.233L58.822,123.232L58.82,123.237L58.816,123.237L58.811,123.233L58.806,123.233L58.802,123.233L58.798,123.237L58.797,123.246L58.797,123.251L58.801,123.258L58.802,123.267L58.802,123.27L58.805,123.275L58.815,123.295L58.819,123.304L58.82,123.308L58.817,123.313L58.812,123.315L58.803,123.315L58.799,123.312L58.797,123.31L58.793,123.31L58.791,123.309L58.788,123.307L58.788,123.298L58.787,123.294L58.785,123.291L58.778,123.288L58.77,123.288L58.763,123.289L58.763,123.291L58.766,123.294L58.762,123.298L58.762,123.301L58.756,123.304L58.76,123.314L58.762,123.323L58.773,123.335L58.781,123.339L58.783,123.344L58.784,123.348L58.782,123.349L58.779,123.346L58.775,123.345L58.772,123.345L58.773,123.351L58.776,123.354L58.779,123.359L58.779,123.365L58.781,123.367L58.782,123.371L58.78,123.372L58.778,123.372L58.774,123.37L58.769,123.369L58.76,123.363L58.753,123.352L58.75,123.348L58.748,123.355L58.747,123.359L58.75,123.364L58.748,123.371L58.741,123.383L58.737,123.386L58.736,123.39L58.737,123.392L58.742,123.395L58.746,123.401L58.75,123.407L58.752,123.414L58.756,123.424L58.76,123.438L58.761,123.446L58.761,123.454L58.748,123.458L58.751,123.468L58.75,123.478L58.747,123.486L58.744,123.492L58.739,123.497L58.735,123.499L58.737,123.504L58.741,123.508L58.749,123.515L58.754,123.517L58.763,123.518L58.77,123.515L58.786,123.514L58.794,123.513L58.798,123.512L58.8,123.503L58.802,123.499L58.803,123.495L58.8,123.49L58.8,123.484L58.802,123.475L58.809,123.466L58.812,123.464L58.815,123.464L58.82,123.467L58.83,123.471L58.83,123.477L58.829,123.486L58.831,123.489L58.836,123.494L58.837,123.5L58.84,123.503L58.843,123.503L58.847,123.498L58.853,123.496L58.857,123.497L58.861,123.5L58.862,123.503L58.861,123.508L58.86,123.513L58.864,123.52L58.868,123.521L58.876,123.517L58.877,123.504L58.877,123.492L58.878,123.485L58.88,123.478L58.879,123.47L58.885,123.464L58.887,123.458L58.899,123.452L58.909,123.446L58.909,123.436L58.916,123.427L58.935,123.417L58.937,123.409L58.936,123.391L58.937,123.369L58.942,123.362L58.942,123.357L58.94,123.356L58.942,123.344L58.941,123.339L58.939,123.335L58.935,123.332L58.934,123.317L58.934,123.3L58.937,123.283L58.937,123.267L58.945,123.246L58.953,123.233L58.957,123.215L58.957,123.201L58.963,123.189L58.973,123.178L58.98,123.165L58.991,123.149L59.001,123.143L59,123.138L58.998,123.133L58.992,123.128L58.994,123.121L59,123.111L59.011,123.098L59.014,123.099L59.024,123.109L59.028,123.111L59.031,123.117L59.03,123.12L59.033,123.121L59.04,123.115L59.049,123.115L59.065,123.12L59.073,123.13L59.079,123.135L59.085,123.146L59.089,123.157L59.087,123.164L59.084,123.174L59.082,123.185L59.077,123.188L59.075,123.193L59.078,123.197L59.082,123.2L59.084,123.201L59.086,123.197L59.087,123.195L59.089,123.197L59.09,123.202L59.088,123.21L59.091,123.217L59.101,123.226L59.109,123.238L59.121,123.255L59.13,123.276L59.134,123.285L59.139,123.293L59.145,123.305L59.148,123.319L59.15,123.335L59.153,123.36L59.152,123.369L59.15,123.374L59.148,123.381L59.143,123.383L59.136,123.394L59.136,123.4L59.135,123.405L59.138,123.411L59.142,123.411L59.145,123.405L59.152,123.4L59.159,123.395L59.168,123.394L59.178,123.397L59.183,123.401L59.187,123.411L59.195,123.422L59.199,123.43L59.202,123.443L59.206,123.459L59.206,123.467L59.209,123.479L59.211,123.486L59.216,123.505L59.222,123.521L59.224,123.526L59.223,123.536L59.224,123.542L59.224,123.565L59.227,123.567L59.23,123.567L59.232,123.562L59.237,123.56L59.248,123.559L59.262,123.562L59.269,123.567L59.281,123.577L59.29,123.592L59.295,123.598L59.305,123.606L59.312,123.617L59.317,123.63L59.319,123.636L59.331,123.664L59.344,123.695L59.349,123.711L59.351,123.716L59.354,123.721L59.362,123.726L59.367,123.727L59.37,123.727L59.373,123.726L59.376,123.727L59.379,123.733L59.378,123.738L59.382,123.742L59.391,123.745L59.4,123.754L59.406,123.758L59.41,123.765L59.415,123.757L59.419,123.745L59.421,123.729L59.42,123.71L59.42,123.703L59.416,123.695L59.417,123.683L59.417,123.676L59.418,123.672L59.421,123.668L59.426,123.666L59.434,123.668L59.443,123.673L59.45,123.68L59.455,123.689L59.457,123.692L59.462,123.689L59.463,123.686L59.464,123.673L59.466,123.648L59.467,123.642L59.466,123.637L59.468,123.623L59.471,123.616L59.474,123.611L59.483,123.607L59.487,123.603L59.488,123.597L59.477,123.574L59.468,123.559L59.463,123.55L59.455,123.546L59.451,123.543L59.443,123.538L59.44,123.538L59.438,123.541L59.439,123.546L59.443,123.556L59.449,123.563L59.45,123.567L59.449,123.58L59.447,123.583L59.446,123.579L59.443,123.574L59.434,123.567L59.432,123.563L59.431,123.56L59.428,123.557L59.424,123.555L59.424,123.548L59.421,123.54L59.422,123.532L59.43,123.524L59.437,123.521L59.438,123.518L59.436,123.514L59.431,123.515L59.426,123.514L59.417,123.507L59.41,123.497L59.397,123.473L59.397,123.466L59.393,123.454L59.401,123.449L59.416,123.442L59.42,123.433L59.424,123.408L59.425,123.399L59.417,123.376L59.402,123.335L59.392,123.321L59.382,123.31L59.369,123.302L59.367,123.298L59.365,123.29L59.363,123.288L59.357,123.283L59.355,123.277L59.35,123.268L59.343,123.26L59.338,123.264L59.331,123.262L59.327,123.254L59.324,123.241L59.325,123.223L59.33,123.205L59.33,123.185L59.329,123.181L59.32,123.171L59.32,123.16L59.326,123.131L59.335,123.106L59.335,123.1L59.332,123.088L59.33,123.083L59.332,123.079L59.335,123.076L59.338,123.078L59.339,123.082L59.344,123.083L59.349,123.08L59.353,123.073L59.354,123.068L59.351,123.065L59.345,123.065L59.341,123.059L59.338,123.049L59.337,123.04L59.341,123.03L59.352,123.023L59.356,123.02L59.359,123.021L59.363,123.023L59.367,123.024L59.37,123.023L59.373,123.018L59.376,123.013L59.373,123.011L59.369,123.01L59.37,123.005L59.375,123.003L59.383,123.004L59.386,123.007L59.394,123.005L59.399,123.001L59.403,122.99L59.415,122.984L59.417,122.981L59.417,122.977L59.41,122.955L59.41,122.944L59.408,122.938L59.401,122.923L59.398,122.918L59.399,122.908L59.399,122.903L59.398,122.901L59.399,122.894L59.399,122.89L59.395,122.885L59.396,122.877L59.403,122.873L59.399,122.868L59.405,122.861L59.41,122.859L59.407,122.851L59.403,122.843L59.397,122.844L59.4,122.85L59.399,122.853L59.395,122.849L59.391,122.841L59.384,122.842L59.373,122.847L59.367,122.839L59.362,122.828L59.359,122.82L59.356,122.813L59.357,122.803L59.361,122.809L59.372,122.808L59.383,122.808L59.394,122.809L59.399,122.799L59.399,122.794L59.399,122.788L59.398,122.78L59.396,122.773L59.399,122.766L59.397,122.758L59.405,122.755L59.406,122.745L59.403,122.741L59.409,122.738L59.411,122.728L59.419,122.716L59.428,122.709L59.427,122.705L59.424,122.699L59.417,122.697L59.41,122.699L59.408,122.703L59.408,122.71L59.406,122.715L59.403,122.719L59.403,122.723L59.402,122.727L59.398,122.729L59.389,122.734L59.39,122.736L59.387,122.742L59.39,122.745L59.39,122.751L59.385,122.765L59.386,122.772L59.387,122.781L59.387,122.79L59.386,122.794L59.384,122.797L59.379,122.797L59.374,122.796L59.369,122.793L59.365,122.79L59.367,122.779L59.365,122.778L59.361,122.778L59.358,122.77L59.355,122.77L59.352,122.772L59.356,122.776L59.354,122.779L59.35,122.776L59.347,122.77L59.344,122.758L59.342,122.751L59.344,122.748L59.348,122.747L59.35,122.741L59.349,122.737L59.344,122.738L59.34,122.735L59.325,122.718L59.316,122.708L59.314,122.702L59.314,122.689L59.315,122.68L59.315,122.674L59.314,122.67L59.31,122.668L59.307,122.666L59.305,122.665L59.297,122.668L59.294,122.669L59.29,122.664L59.282,122.651L59.28,122.639L59.275,122.627L59.267,122.63L59.267,122.636L59.267,122.648L59.268,122.654L59.266,122.661L59.259,122.677L59.257,122.68L59.252,122.683L59.248,122.683L59.243,122.68L59.241,122.674L59.238,122.672L59.234,122.672L59.225,122.678L59.218,122.685L59.214,122.687L59.208,122.688L59.2,122.683L59.196,122.682L59.192,122.682L59.189,122.682L59.187,122.685L59.184,122.687L59.181,122.687L59.18,122.683L59.181,122.679L59.179,122.674L59.18,122.666L59.183,122.66L59.188,122.659L59.191,122.656L59.189,122.651L59.181,122.646L59.177,122.639L59.166,122.632L59.16,122.629L59.155,122.627L59.15,122.625L59.144,122.626L59.136,122.63L59.128,122.637L59.122,122.64L59.115,122.644L59.107,122.646L59.085,122.641L59.076,122.641L59.073,122.638L59.072,122.63L59.075,122.608L59.079,122.588L59.086,122.574L59.087,122.566L59.087,122.56L59.085,122.55L59.079,122.542L59.078,122.551L59.073,122.551L59.071,122.544L59.07,122.54L59.072,122.535L59.073,122.533L59.079,122.535L59.08,122.528L59.078,122.517L59.073,122.517L59.07,122.516L59.065,122.514L59.059,122.516L59.055,122.52L59.049,122.514L59.044,122.507L59.044,122.495L59.048,122.495L59.046,122.487L59.042,122.481L59.042,122.472L59.038,122.46L59.032,122.44L59.026,122.428L59.015,122.415L59.003,122.408L58.995,122.416L58.989,122.421L58.984,122.423L58.977,122.421L58.966,122.415L58.955,122.407L58.946,122.399L58.944,122.395L58.946,122.378L58.947,122.368L58.945,122.366L58.941,122.366L58.937,122.37L58.935,122.376L58.933,122.389L58.931,122.396L58.92,122.403L58.913,122.405L58.903,122.41L58.897,122.412L58.887,122.41L58.883,122.408L58.878,122.409L58.872,122.415L58.87,122.418L58.869,122.422L58.868,122.442L58.866,122.457L58.865,122.463L58.864,122.474L58.866,122.49L58.863,122.501L58.865,122.508L58.869,122.515L58.866,122.518L58.872,122.524L58.874,122.534L58.876,122.556L58.874,122.56L58.875,122.565L58.878,122.571L58.878,122.576L58.874,122.577L58.873,122.586L58.87,122.581L58.865,122.581L58.864,122.585L58.864,122.59L58.86,122.593L58.861,122.598L58.864,122.598L58.87,122.603L58.87,122.61L58.865,122.612L58.864,122.622L58.87,122.629L58.87,122.636L58.87,122.642L58.858,122.648L58.853,122.654L58.853,122.662L58.847,122.666L58.845,122.67L58.847,122.682L58.847,122.687L58.841,122.689L58.838,122.693L58.836,122.699L58.833,122.699L58.831,122.696L58.826,122.689L58.824,122.676L58.822,122.663L58.824,122.655L58.827,122.647L58.831,122.642L58.835,122.64L58.836,122.634L58.835,122.631L58.834,122.629L58.833,122.627L58.836,122.615L58.837,122.609L58.836,122.605L58.831,122.607L58.824,122.615L58.812,122.634L58.807,122.643L58.8,122.652L58.796,122.662L58.793,122.673L58.79,122.682L58.791,122.689L58.793,122.694L58.792,122.7L58.794,122.707L58.802,122.716L58.804,122.725L58.806,122.734L58.803,122.739L58.8,122.744L58.789,122.756L58.786,122.756L58.78,122.753L58.774,122.748L58.773,122.738L58.768,122.721L58.769,122.713L58.776,122.703L58.777,122.697L58.777,122.687L58.775,122.683L58.769,122.683L58.756,122.688L58.751,122.69L58.751,122.694L58.753,122.696L58.754,122.699L58.752,122.7L58.748,122.702L58.74,122.719L58.739,122.716L58.739,122.711L58.738,122.709L58.734,122.709L58.725,122.71L58.727,122.707L58.73,122.703L58.731,122.698L58.73,122.692L58.726,122.689L58.721,122.69L58.701,122.696L58.683,122.698L58.679,122.701L58.673,122.701L58.669,122.699L58.667,122.696L58.669,122.689L58.667,122.683L58.663,122.68L58.657,122.677L58.648,122.668L58.646,122.667L58.64,122.668L58.638,122.671L58.639,122.677L58.637,122.687L58.632,122.69L58.629,122.693L58.629,122.697L58.627,122.701L58.623,122.703L58.62,122.702L58.615,122.7L58.611,122.702L58.608,122.704L58.605,122.703L58.601,122.698L58.595,122.697L58.59,122.692L58.583,122.688L58.579,122.688L58.576,122.687L58.573,122.682L58.581,122.662L58.582,122.651L58.585,122.647L58.595,122.641L58.601,122.641L58.601,122.624L58.603,122.615L58.606,122.608L58.606,122.599L58.603,122.595L58.603,122.592L58.611,122.585L58.618,122.583L58.621,122.577L58.622,122.573L58.624,122.546L58.624,122.536L58.631,122.544L58.633,122.539L58.634,122.531L58.636,122.514L58.629,122.508L58.624,122.512L58.618,122.51L58.614,122.511L58.615,122.515L58.618,122.52L58.617,122.526L58.614,122.526L58.612,122.521L58.609,122.515L58.609,122.511L58.604,122.511L58.598,122.513L58.6,122.519L58.598,122.526L58.596,122.531L58.59,122.535L58.589,122.538L58.588,122.543L58.583,122.548L58.573,122.554L58.571,122.552L58.568,122.545L58.569,122.535L58.569,122.525L58.57,122.492L58.57,122.478L58.569,122.466L58.567,122.463L58.564,122.461L58.563,122.456L58.56,122.45L58.552,122.445L58.553,122.441L58.562,122.448L58.568,122.452L58.588,122.439L58.591,122.431L58.594,122.414L58.598,122.403L58.604,122.396L58.603,122.383L58.608,122.379L58.612,122.379L58.616,122.376L58.618,122.37L58.622,122.366L58.626,122.366L58.629,122.364L58.63,122.357L58.629,122.351L58.627,122.348L58.624,122.347L58.622,122.344L58.622,122.34L58.626,122.33L58.629,122.313L58.635,122.305L58.638,122.297L58.628,122.29L58.624,122.284L58.635,122.289L58.64,122.289L58.644,122.284L58.643,122.279L58.639,122.274L58.637,122.27L58.645,122.273L58.649,122.273L58.651,122.271L58.651,122.266L58.648,122.262L58.646,122.258L58.644,122.252L58.641,122.249L58.637,122.245L58.641,122.237L58.645,122.225L58.643,122.215L58.642,122.208L58.637,122.205L58.634,122.202L58.634,122.198L58.636,122.194L58.639,122.191L58.644,122.194L58.646,122.2L58.648,122.202L58.653,122.203L58.659,122.192L58.658,122.189L58.655,122.187L58.65,122.188L58.646,122.185L58.649,122.176L58.653,122.167L58.656,122.164L58.658,122.168L58.662,122.168L58.664,122.166L58.664,122.163L58.661,122.16L58.657,122.158L58.653,122.151L58.652,122.147L58.661,122.147L58.665,122.153L58.666,122.157L58.669,122.157L58.671,122.154L58.671,122.154L58.671,122.149L58.674,122.148L58.681,122.147L58.683,122.15L58.684,122.154L58.692,122.158L58.708,122.159L58.714,122.159L58.718,122.156L58.719,122.148L58.718,122.142L58.711,122.137L58.708,122.135L58.705,122.134L58.702,122.134L58.697,122.137L58.69,122.134L58.682,122.131L58.678,122.124L58.675,122.119L58.673,122.11L58.678,122.09L58.681,122.084L58.69,122.084L58.693,122.082L58.693,122.077L58.689,122.074L58.686,122.07L58.684,122.069L58.682,122.067L58.683,122.052L58.682,122.048L58.681,122.046L58.672,122.045L58.668,122.041L58.666,122.034L58.664,122.021L58.662,122.01L58.662,122L58.66,121.998L58.657,121.997L58.653,121.999L58.651,122.003L58.647,122.007L58.645,122.005L58.644,121.992L58.642,121.989L58.639,121.989L58.635,121.99L58.629,121.995L58.628,121.991L58.626,121.989L58.619,121.991L58.609,121.994L58.603,121.993L58.6,121.985L58.6,121.966L58.604,121.957L58.61,121.954L58.622,121.948L58.626,121.949L58.631,121.95L58.634,121.948L58.635,121.944L58.637,121.94L58.642,121.936L58.645,121.932L58.646,121.927L58.644,121.925L58.636,121.924L58.627,121.926L58.617,121.927L58.616,121.924L58.613,121.921L58.609,121.921L58.606,121.924L58.601,121.924L58.603,121.92L58.602,121.917L58.595,121.919L58.598,121.91L58.599,121.905L58.598,121.901L58.596,121.901L58.588,121.902L58.584,121.9L58.58,121.891L58.58,121.886L58.582,121.879L58.584,121.873L58.58,121.866L58.578,121.859L58.576,121.845L58.575,121.834L58.577,121.824L58.587,121.81L58.596,121.807L58.595,121.802L58.592,121.799L58.591,121.793L58.592,121.784L58.601,121.757L58.615,121.747L58.617,121.733L58.62,121.726L58.625,121.722L58.627,121.716L58.626,121.712L58.63,121.704L58.63,121.699L58.63,121.694L58.628,121.69L58.625,121.69L58.621,121.691L58.618,121.7L58.613,121.704L58.61,121.704L58.607,121.703L58.604,121.696L58.607,121.675L58.61,121.669L58.616,121.662L58.619,121.655L58.623,121.654L58.629,121.655L58.629,121.666L58.627,121.671L58.626,121.674L58.632,121.68L58.637,121.68L58.642,121.674L58.662,121.655L58.674,121.647L58.682,121.643L58.696,121.646L58.703,121.645L58.713,121.643L58.723,121.646L58.725,121.648L58.74,121.65L58.744,121.65L58.746,121.648L58.748,121.643L58.749,121.639L58.746,121.631L58.74,121.627L58.734,121.623L58.73,121.622L58.726,121.616L58.724,121.608L58.722,121.598L58.719,121.591L58.714,121.587L58.707,121.587L58.697,121.582L58.692,121.579L58.682,121.578L58.676,121.578L58.665,121.579L58.658,121.578L58.653,121.574L58.65,121.571L58.648,121.565L58.651,121.559L58.65,121.554L58.642,121.554L58.634,121.555L58.628,121.557L58.62,121.557L58.612,121.553L58.601,121.551L58.592,121.552L58.585,121.556L58.577,121.56L58.566,121.56L58.56,121.562L58.551,121.566L58.546,121.566L58.528,121.563L58.52,121.562L58.514,121.557L58.511,121.55L58.505,121.536L58.505,121.52L58.51,121.505L58.514,121.491L58.517,121.481L58.518,121.479L58.515,121.477L58.513,121.474L58.505,121.461L58.512,121.463L58.518,121.463L58.52,121.47L58.526,121.466L58.528,121.463L58.529,121.455L58.527,121.445L58.522,121.434L58.519,121.415L58.519,121.392L58.527,121.364L58.534,121.348L58.535,121.34L58.535,121.331L58.535,121.327L58.535,121.321L58.531,121.316L58.525,121.309L58.518,121.293L58.519,121.278L58.525,121.269L58.523,121.264L58.516,121.258L58.508,121.248L58.504,121.24L58.497,121.223L58.496,121.215L58.501,121.195L58.509,121.169L58.512,121.158L58.511,121.134L58.511,121.125L58.508,121.118L58.506,121.113L58.494,121.101L58.492,121.09L58.495,121.076L58.502,121.063L58.516,121.052L58.524,121.048L58.531,121.048L58.536,121.05L58.541,121.051L58.546,121.05L58.549,121.044L58.551,121.03L58.55,121.02L58.542,121.004L58.526,120.985L58.52,120.977L58.517,120.968L58.52,120.961L58.526,120.955L58.529,120.949L58.528,120.924L58.526,120.917L58.517,120.91L58.509,120.899L58.506,120.886L58.504,120.866L58.502,120.854L58.495,120.829L58.495,120.81L58.5,120.793L58.504,120.784L58.514,120.771L58.536,120.752L58.558,120.735L58.579,120.717L58.586,120.709L58.596,120.705L58.596,120.702L58.594,120.693L58.591,120.69L58.58,120.68L58.574,120.673L58.572,120.671L58.565,120.671L58.558,120.669L58.555,120.667L58.551,120.662L58.549,120.658L58.55,120.652L58.556,120.645L58.567,120.638L58.586,120.631L58.593,120.626L58.598,120.619L58.61,120.616L58.632,120.617L58.645,120.617L58.658,120.619L58.666,120.624L58.673,120.627L58.68,120.627L58.682,120.622L58.677,120.605L58.67,120.589L58.664,120.579L58.653,120.571L58.651,120.566L58.648,120.563L58.642,120.559L58.634,120.559L58.624,120.551L58.624,120.547L58.618,120.545L58.605,120.539L58.594,120.535L58.585,120.527L58.578,120.525L58.557,120.525L58.55,120.523L58.545,120.519L58.538,120.513L58.532,120.503L58.529,120.488L58.525,120.481L58.518,120.474L58.51,120.467L58.506,120.456L58.51,120.44L58.51,120.431L58.507,120.426L58.503,120.423L58.496,120.423L58.491,120.426L58.485,120.428L58.482,120.428L58.479,120.422L58.475,120.412L58.474,120.4L58.473,120.389L58.472,120.381L58.462,120.365L58.455,120.348L58.441,120.323L58.435,120.312L58.431,120.299L58.428,120.288L58.423,120.277L58.411,120.262L58.388,120.239L58.379,120.235L58.375,120.23L58.374,120.223L58.372,120.214L58.368,120.209L58.356,120.196L58.342,120.184L58.327,120.168L58.316,120.149L58.305,120.138L58.29,120.131L58.28,120.129L58.27,120.129L58.263,120.124L58.25,120.12L58.242,120.12L58.236,120.12L58.23,120.117L58.224,120.113L58.221,120.097L58.224,120.092L58.227,120.087L58.224,120.081L58.222,120.075L58.214,120.071L58.209,120.071L58.204,120.074L58.201,120.079L58.195,120.086L58.192,120.086L58.193,120.079L58.205,120.064L58.223,120.039L58.23,120.026L58.231,120.016L58.219,119.993L58.212,119.986L58.206,119.975L58.201,119.967L58.193,119.96L58.189,119.956L58.184,119.945L58.182,119.933L58.175,119.918L58.167,119.9L58.153,119.885L58.127,119.865L58.108,119.852L58.103,119.844L58.099,119.836L58.085,119.824L58.066,119.813L58.05,119.801L58.044,119.791L58.032,119.783L58.025,119.774L58.017,119.756L58.014,119.749L58.009,119.734L58.007,119.731L58.002,119.729L57.996,119.725L57.992,119.719L57.99,119.71L57.988,119.707L57.986,119.702L57.976,119.69L57.97,119.674L57.966,119.657L57.958,119.636L57.953,119.623L57.949,119.604L57.942,119.579L57.941,119.568L57.939,119.563L57.935,119.556L57.927,119.55L57.919,119.549L57.915,119.549L57.907,119.549L57.897,119.543L57.894,119.535L57.89,119.531L57.882,119.527L57.873,119.528L57.868,119.527L57.866,119.521L57.865,119.515L57.864,119.506L57.86,119.497L57.856,119.491L57.845,119.482L57.831,119.467L57.823,119.454L57.806,119.435L57.801,119.431L57.792,119.426L57.787,119.42L57.786,119.416L57.786,119.411L57.791,119.413L57.799,119.417L57.808,119.428L57.827,119.447L57.833,119.455L57.846,119.46L57.851,119.461L57.855,119.465L57.86,119.466L57.865,119.463L57.856,119.457L57.844,119.447L57.833,119.432L57.824,119.416L57.82,119.406L57.82,119.39L57.822,119.377L57.822,119.354L57.82,119.329L57.818,119.322L57.815,119.315L57.81,119.311L57.809,119.297L57.81,119.279L57.808,119.26L57.806,119.22L57.804,119.192L57.81,119.156L57.819,119.131L57.826,119.102L57.829,119.089L57.83,119.078L57.83,119.069L57.828,119.06L57.822,119.05L57.814,119.035L57.808,119.03L57.803,119.026L57.799,119.017L57.796,119.004L57.793,118.996L57.793,118.979L57.792,118.971L57.788,118.963L57.787,118.957L57.787,118.953L57.788,118.946L57.791,118.942L57.79,118.937L57.786,118.929L57.781,118.925L57.783,118.917L57.783,118.912L57.78,118.906L57.78,118.901L57.775,118.893L57.771,118.891L57.769,118.889L57.764,118.886L57.769,118.884L57.77,118.878L57.769,118.864L57.765,118.857L57.757,118.852L57.748,118.843L57.742,118.837L57.735,118.835L57.73,118.835L57.724,118.839L57.721,118.843L57.719,118.846L57.721,118.848L57.731,118.856L57.737,118.866L57.74,118.883L57.741,118.896L57.741,118.901L57.739,118.904L57.739,118.908L57.742,118.914L57.741,118.922L57.737,118.931L57.736,118.939L57.732,118.934L57.732,118.929L57.733,118.918L57.733,118.905L57.731,118.892L57.73,118.886L57.726,118.881L57.723,118.873L57.719,118.868L57.715,118.864L57.708,118.86L57.702,118.858L57.693,118.858L57.682,118.86L57.671,118.864L57.651,118.871L57.647,118.875L57.643,118.88L57.642,118.884L57.643,118.895L57.641,118.9L57.638,118.904L57.63,118.905L57.623,118.907L57.621,118.914L57.611,118.918L57.602,118.925L57.599,118.932L57.6,118.947L57.599,118.951L57.589,118.955L57.581,118.957L57.578,118.96L57.578,118.967L57.576,118.971L57.574,118.974L57.571,118.975L57.564,118.977L57.559,118.981L57.558,118.984L57.56,118.99L57.56,119.002L57.557,119.011L57.545,119.026L57.539,119.033L57.534,119.037L57.525,119.038L57.52,119.036L57.515,119.035L57.511,119.035L57.503,119.036L57.497,119.038L57.492,119.043L57.489,119.06L57.489,119.081L57.49,119.085L57.494,119.089L57.506,119.098L57.51,119.109L57.51,119.121L57.511,119.132L57.512,119.135L57.516,119.136L57.519,119.136L57.52,119.134L57.521,119.131L57.523,119.128L57.525,119.127L57.529,119.129L57.529,119.135L57.538,119.14L57.545,119.142L57.552,119.143L57.556,119.143L57.567,119.123L57.573,119.114L57.576,119.112L57.581,119.112L57.584,119.114L57.585,119.118L57.588,119.121L57.591,119.125L57.589,119.128L57.584,119.13L57.583,119.137L57.579,119.143L57.574,119.148L57.575,119.155L57.572,119.161L57.567,119.173L57.569,119.18L57.57,119.192L57.569,119.198L57.566,119.203L57.563,119.204L57.56,119.203L57.558,119.199L57.557,119.197L57.551,119.196L57.546,119.196L57.54,119.197L57.538,119.201L57.535,119.211L57.531,119.216L57.527,119.219L57.522,119.221L57.51,119.222L57.502,119.226L57.496,119.233L57.495,119.238L57.494,119.244L57.495,119.249L57.502,119.256L57.508,119.258L57.513,119.259L57.516,119.259L57.521,119.257L57.525,119.251L57.531,119.245L57.536,119.243L57.547,119.243L57.552,119.243L57.557,119.247L57.56,119.254L57.561,119.263L57.559,119.271L57.555,119.277L57.549,119.282L57.544,119.287L57.538,119.291L57.525,119.294L57.521,119.297L57.513,119.297L57.508,119.3L57.502,119.305L57.498,119.315L57.486,119.331L57.476,119.346L57.471,119.351L57.469,119.356L57.466,119.364L57.459,119.371L57.453,119.375L57.45,119.38L57.449,119.383L57.449,119.386L57.45,119.389L57.457,119.394L57.461,119.395L57.467,119.395L57.477,119.402L57.477,119.409L57.479,119.421L57.484,119.435L57.486,119.441L57.484,119.444L57.479,119.447L57.468,119.452L57.455,119.459L57.446,119.466L57.44,119.47L57.434,119.475L57.429,119.484L57.426,119.491L57.422,119.505L57.426,119.515L57.431,119.52L57.438,119.524L57.449,119.527L57.459,119.532L57.464,119.537L57.461,119.545L57.46,119.556L57.46,119.564L57.457,119.569L57.46,119.573L57.473,119.583L57.479,119.584L57.488,119.584L57.512,119.591L57.516,119.59L57.526,119.581L57.528,119.579L57.536,119.583L57.541,119.586L57.544,119.586L57.551,119.584L57.558,119.581L57.56,119.581L57.564,119.583L57.575,119.591L57.581,119.596L57.584,119.601L57.591,119.605L57.596,119.607L57.598,119.612L57.598,119.62L57.598,119.637L57.6,119.656L57.601,119.664L57.602,119.671L57.602,119.683L57.599,119.696L57.598,119.702L57.597,119.707L57.593,119.712L57.588,119.716L57.581,119.721L57.574,119.723L57.565,119.722L57.559,119.722L57.553,119.719L57.549,119.715L57.544,119.706L57.54,119.7L57.534,119.696L57.529,119.695L57.52,119.695L57.51,119.698L57.503,119.703L57.497,119.71L57.493,119.719L57.492,119.725L57.49,119.732L57.487,119.74L57.481,119.751L57.474,119.762L57.459,119.78L57.454,119.786L57.45,119.791L57.444,119.796L57.438,119.8L57.435,119.804L57.436,119.807L57.438,119.808L57.442,119.806L57.447,119.804L57.448,119.802L57.451,119.801L57.452,119.806L57.455,119.811L57.464,119.812L57.476,119.812L57.49,119.811L57.5,119.807L57.51,119.797L57.517,119.785L57.525,119.78L57.526,119.756L57.528,119.748L57.53,119.742L57.534,119.735L57.543,119.732L57.56,119.731L57.569,119.733L57.575,119.736L57.581,119.735L57.582,119.731L57.582,119.728L57.584,119.724L57.592,119.722L57.596,119.722L57.603,119.722L57.607,119.728L57.614,119.738L57.621,119.744L57.634,119.75L57.651,119.751L57.674,119.751L57.703,119.753L57.712,119.756L57.717,119.759L57.719,119.765L57.719,119.774L57.719,119.777L57.716,119.784L57.71,119.79L57.701,119.798L57.691,119.805L57.684,119.809L57.677,119.816L57.67,119.823L57.666,119.824L57.66,119.825L57.646,119.819L57.636,119.815L57.627,119.813L57.618,119.813L57.605,119.814L57.594,119.818L57.578,119.825L57.57,119.829L57.56,119.84L57.545,119.852L57.535,119.857L57.528,119.863L57.523,119.864L57.516,119.864L57.508,119.864L57.503,119.873L57.499,119.882L57.503,119.895L57.511,119.901L57.528,119.91L57.534,119.912L57.539,119.916L57.542,119.921L57.546,119.929L57.55,119.933L57.554,119.934L57.566,119.936L57.573,119.934L57.581,119.94L57.591,119.941L57.601,119.938L57.611,119.938L57.617,119.929L57.634,119.928L57.644,119.934L57.65,119.935L57.654,119.935L57.659,119.93L57.664,119.925L57.672,119.924L57.679,119.924L57.683,119.926L57.683,119.93L57.68,119.938L57.68,119.946L57.684,119.949L57.688,119.959L57.691,119.968L57.692,119.978L57.696,119.984L57.719,119.984L57.725,119.982L57.734,119.982L57.741,119.975L57.741,119.965L57.744,119.954L57.76,119.933L57.774,119.921L57.784,119.915L57.813,119.917L57.837,119.92L57.847,119.922L57.858,119.922L57.872,119.912L57.873,119.905L57.873,119.897L57.87,119.891L57.866,119.887L57.855,119.885L57.846,119.88L57.84,119.876L57.837,119.873L57.833,119.867L57.83,119.858L57.826,119.852L57.825,119.842L57.824,119.832L57.825,119.826L57.832,119.819L57.843,119.812L57.851,119.809L57.865,119.813L57.876,119.819L57.886,119.821L57.902,119.825L57.912,119.827L57.915,119.829L57.914,119.831L57.91,119.83L57.906,119.829L57.904,119.829L57.905,119.834L57.898,119.832L57.895,119.832L57.894,119.837L57.898,119.846L57.91,119.859L57.913,119.867L57.914,119.874L57.912,119.88L57.91,119.886L57.902,119.89L57.897,119.894L57.893,119.897L57.89,119.901L57.89,119.904L57.903,119.918L57.915,119.936L57.916,119.942L57.915,119.951L57.915,119.955L57.911,119.961L57.911,119.964L57.913,119.968L57.914,119.983L57.915,119.985L57.918,119.986L57.923,119.987L57.937,119.987L57.942,119.991L57.948,119.995L57.957,120.009L57.97,120.039L57.971,120.046L57.969,120.058L57.969,120.067L57.971,120.073L57.974,120.079L57.977,120.089L57.98,120.095L57.989,120.099L57.996,120.101L58.006,120.101L58.013,120.104L58.024,120.109L58.03,120.119L58.034,120.129L58.037,120.144L58.04,120.147L58.044,120.155L58.046,120.164L58.046,120.17L58.043,120.175L58.036,120.185L58.035,120.194L58.033,120.213L58.027,120.247L58.026,120.264L58.027,120.294L58.024,120.312L58.021,120.326L58.019,120.332L58.008,120.349L58.003,120.356L58.001,120.361L58.003,120.375L58.018,120.401L58.022,120.417L58.027,120.437L58.026,120.447L58.023,120.472L58.035,120.486L58.041,120.493L58.041,120.504L58.042,120.518L58.05,120.534L58.057,120.552L58.061,120.559L58.065,120.561L58.071,120.562L58.079,120.562L58.089,120.567L58.09,120.581L58.093,120.604L58.095,120.612L58.097,120.619L58.097,120.625L58.101,120.633L58.104,120.638L58.108,120.639L58.112,120.639L58.122,120.638L58.126,120.64L58.13,120.644L58.13,120.65L58.127,120.654L58.11,120.671L58.102,120.677L58.099,120.687L58.098,120.694L58.099,120.698L58.105,120.702L58.111,120.705L58.123,120.706L58.128,120.709L58.133,120.715L58.133,120.724L58.131,120.736L58.133,120.742L58.135,120.746L58.143,120.752L58.146,120.759L58.147,120.763L58.149,120.773L58.146,120.783L58.143,120.793L58.142,120.799L58.151,120.819L58.16,120.83L58.167,120.844L58.167,120.855L58.165,120.865L58.163,120.88L58.163,120.908L58.159,120.927L58.155,120.941L58.157,120.956L58.164,120.979L58.175,121.003L58.184,121.016L58.189,121.032L58.189,121.056L58.193,121.09L58.195,121.107L58.194,121.116L58.191,121.122L58.184,121.132L58.172,121.14L58.162,121.144L58.148,121.154L58.137,121.161L58.133,121.166L58.125,121.174L58.118,121.176L58.115,121.177L58.107,121.177L58.096,121.175L58.086,121.176L58.069,121.177L58.063,121.175L58.061,121.173L58.054,121.172L58.05,121.17L58.046,121.166L58.043,121.158L58.041,121.152L58.04,121.141L58.038,121.14L58.031,121.141L58.02,121.146L58.014,121.149L58.011,121.152L58.005,121.156L57.997,121.16L57.987,121.166L57.976,121.175L57.965,121.187L57.956,121.192L57.946,121.201L57.936,121.214L57.934,121.217L57.935,121.229L57.935,121.234L57.933,121.24L57.919,121.256L57.914,121.264L57.91,121.272L57.904,121.28L57.899,121.289L57.894,121.301L57.89,121.305L57.881,121.31L57.873,121.314L57.864,121.323L57.845,121.341L57.841,121.348L57.837,121.357L57.831,121.362L57.824,121.366L57.823,121.375L57.82,121.382L57.817,121.387L57.81,121.391L57.796,121.396L57.791,121.399L57.79,121.404L57.789,121.413L57.785,121.418L57.782,121.419L57.778,121.42L57.774,121.42L57.771,121.418L57.766,121.415L57.761,121.415L57.756,121.414L57.753,121.412L57.751,121.412L57.747,121.412L57.742,121.415L57.739,121.418L57.734,121.425L57.729,121.43L57.727,121.434L57.726,121.437L57.721,121.438L57.719,121.438L57.712,121.438L57.708,121.436L57.703,121.434L57.702,121.446L57.705,121.452L57.706,121.457L57.704,121.463L57.705,121.466L57.715,121.468L57.716,121.474L57.722,121.481L57.728,121.485L57.745,121.491L57.757,121.495L57.77,121.501L57.778,121.507L57.787,121.515L57.793,121.526L57.796,121.537L57.796,121.558L57.793,121.574L57.787,121.583L57.785,121.588L57.785,121.593L57.786,121.606L57.781,121.62L57.781,121.623L57.783,121.628L57.783,121.632L57.781,121.638L57.78,121.652L57.781,121.656L57.777,121.662L57.778,121.665L57.779,121.674L57.778,121.681L57.774,121.688L57.772,121.693L57.77,121.698L57.766,121.708L57.764,121.72L57.761,121.727L57.756,121.732L57.754,121.741L57.75,121.746L57.748,121.75L57.749,121.753L57.753,121.755L57.757,121.753L57.762,121.753L57.767,121.757L57.77,121.762L57.77,121.766L57.771,121.772L57.767,121.779L57.76,121.787L57.756,121.793L57.751,121.809L57.749,121.829L57.747,121.837L57.744,121.841L57.728,121.849L57.725,121.851L57.725,121.856L57.721,121.858L57.719,121.861L57.719,121.864L57.723,121.867L57.727,121.872L57.729,121.883L57.729,121.886L57.739,121.9L57.743,121.915L57.741,121.923L57.738,121.93L57.734,121.951L57.742,121.966L57.745,121.973L57.758,121.986L57.768,121.996L57.771,121.993L57.777,121.982L57.783,121.97L57.789,121.965L57.792,121.961L57.793,121.956L57.793,121.951L57.793,121.947L57.795,121.942L57.799,121.936L57.801,121.933L57.813,121.93L57.82,121.93L57.824,121.932L57.83,121.932L57.833,121.931L57.839,121.929L57.852,121.93L57.862,121.932L57.866,121.93L57.873,121.922L57.878,121.912L57.879,121.896L57.878,121.888L57.874,121.882L57.87,121.87L57.867,121.858L57.868,121.844L57.872,121.812L57.875,121.791L57.882,121.777L57.897,121.758L57.906,121.739L57.907,121.721L57.903,121.691L57.903,121.676L57.908,121.657L57.91,121.645L57.914,121.65L57.915,121.666L57.921,121.681L57.925,121.699L57.928,121.722L57.929,121.732L57.932,121.736L57.936,121.736L57.948,121.722L57.963,121.703L57.972,121.677L57.983,121.649L57.993,121.627L57.996,121.617L57.995,121.609L57.99,121.601L57.986,121.591L57.98,121.578L57.981,121.563L57.983,121.543L57.985,121.533L57.994,121.526L58.013,121.519L58.019,121.513L58.02,121.505L58.018,121.498L58.014,121.492L58.008,121.491L58.002,121.482L57.99,121.467L57.988,121.46L57.987,121.448L57.989,121.437L57.992,121.431L57.991,121.422L57.988,121.41L57.987,121.4L57.992,121.386L57.996,121.376L58.002,121.373L58.007,121.373L58.011,121.377L58.016,121.381L58.03,121.384L58.044,121.381L58.061,121.372L58.08,121.36L58.09,121.346L58.095,121.334L58.1,121.327L58.108,121.326L58.124,121.313L58.13,121.3L58.136,121.29L58.14,121.283L58.138,121.272L58.142,121.261L58.148,121.249L58.159,121.232L58.164,121.219L58.171,121.205L58.176,121.191L58.182,121.182L58.186,121.18L58.192,121.183L58.199,121.186L58.205,121.187L58.212,121.187L58.217,121.185L58.221,121.177L58.224,121.178L58.226,121.185L58.233,121.195L58.239,121.202L58.244,121.209L58.245,121.219L58.247,121.222L58.254,121.225L58.253,121.232L58.256,121.237L58.256,121.243L58.262,121.245L58.256,121.253L58.261,121.269L58.27,121.289L58.277,121.313L58.278,121.322L58.276,121.334L58.273,121.34L58.267,121.35L58.261,121.357L58.258,121.363L58.258,121.369L58.264,121.382L58.271,121.389L58.279,121.406L58.285,121.427L58.288,121.441L58.287,121.446L58.285,121.452L58.284,121.457L58.285,121.463L58.285,121.467L58.282,121.474L58.279,121.484L58.28,121.487L58.279,121.494L58.272,121.508L58.276,121.522L58.28,121.535L58.288,121.551L58.295,121.563L58.304,121.569L58.321,121.584L58.341,121.604L58.365,121.622L58.382,121.636L58.393,121.648L58.415,121.679L58.427,121.689L58.432,121.699L58.446,121.72L58.455,121.736L58.462,121.744L58.467,121.756L58.468,121.763L58.466,121.775L58.462,121.795L58.457,121.811L58.46,121.818L58.456,121.839L58.458,121.854L58.456,121.874L58.46,121.905L58.458,121.917L58.462,121.926L58.464,121.94L58.463,121.948L58.461,121.952L58.454,121.955L58.45,121.955L58.444,121.953L58.441,121.954L58.437,121.96L58.434,121.965L58.427,121.97L58.425,121.975L58.426,121.977L58.431,121.997L58.432,122.011L58.436,122.018L58.443,122.025L58.447,122.033L58.442,122.04L58.438,122.042L58.436,122.047L58.434,122.051L58.43,122.052L58.427,122.058L58.423,122.061L58.42,122.063L58.418,122.064L58.415,122.055L58.414,122.043L58.416,122.029L58.418,122.015L58.418,122.009L58.416,122.004L58.413,122L58.413,121.997L58.418,121.989L58.419,121.984L58.418,121.979L58.415,121.979L58.412,121.981L58.409,121.979L58.407,121.971L58.4,121.964L58.393,121.959L58.389,121.954L58.386,121.944L58.384,121.941L58.381,121.94L58.372,121.941L58.365,121.942L58.359,121.944L58.351,121.943L58.346,121.944L58.343,121.951L58.342,121.96L58.344,121.967L58.349,121.975L58.35,121.979L58.349,121.984L58.34,121.993L58.337,121.993L58.325,121.99L58.311,121.99L58.305,121.991L58.3,121.994L58.299,121.999L58.297,122.013L58.298,122.017L58.306,122.021L58.322,122.024L58.334,122.034L58.341,122.046L58.344,122.055L58.346,122.059L58.353,122.065L58.357,122.073L58.357,122.085L58.359,122.095L58.358,122.107L58.353,122.114L58.348,122.118L58.347,122.127L58.344,122.137L58.342,122.14L58.337,122.142L58.329,122.146L58.331,122.152L58.329,122.168L58.329,122.181L58.328,122.196L58.326,122.208L58.327,122.222L58.329,122.233L58.326,122.237L58.326,122.239L58.328,122.245L58.326,122.249L58.322,122.256L58.322,122.259L58.323,122.266L58.317,122.272L58.319,122.274L58.319,122.284L58.316,122.289L58.321,122.297L58.323,122.313L58.319,122.319L58.321,122.324L58.322,122.333L58.323,122.354L58.324,122.369L58.324,122.378L58.324,122.386L58.327,122.392L58.333,122.403L58.335,122.413L58.337,122.424L58.338,122.436L58.339,122.449L58.34,122.456L58.342,122.463L58.346,122.47L58.349,122.476L58.353,122.483L58.351,122.491L58.352,122.497L58.354,122.507L58.35,122.54L58.353,122.562L58.356,122.577L58.354,122.594L58.354,122.605L58.354,122.616L58.353,122.622L58.351,122.627L58.347,122.63L58.342,122.633L58.337,122.638L58.334,122.65L58.333,122.664L58.328,122.682L58.316,122.71L58.31,122.716L58.31,122.724L58.308,122.729L58.304,122.734L58.295,122.739L58.289,122.741L58.283,122.739L58.273,122.74L58.264,122.744L58.249,122.747L58.238,122.748L58.224,122.746L58.207,122.742L58.19,122.737L58.183,122.735L58.178,122.736L58.17,122.738L58.165,122.738L58.152,122.732L58.144,122.727L58.137,122.726L58.127,122.72L58.117,122.717L58.111,122.714L58.103,122.714L58.098,122.717L58.105,122.721L58.103,122.726L58.101,122.736L58.102,122.739L58.105,122.739L58.105,122.733L58.107,122.731L58.113,122.732L58.117,122.727L58.121,122.731L58.124,122.733L58.129,122.733L58.134,122.74L58.134,122.745L58.132,122.75L58.129,122.749L58.117,122.746L58.109,122.747L58.102,122.749L58.096,122.752L58.073,122.765L58.067,122.766L58.059,122.763L58.057,122.76L58.054,122.76L58.042,122.765L58.035,122.768L58.03,122.769L58.022,122.77L58.016,122.773L58.012,122.772L58.012,122.768L58.008,122.766L57.999,122.768L57.992,122.773L57.979,122.777L57.973,122.778L57.961,122.783L57.95,122.789L57.938,122.795L57.924,122.798L57.917,122.8L57.907,122.8L57.9,122.799L57.893,122.798L57.879,122.793L57.87,122.789L57.858,122.788L57.849,122.786L57.84,122.787L57.837,122.787L57.838,122.791L57.842,122.795L57.848,122.796L57.859,122.796L57.87,122.8L57.877,122.804L57.89,122.815L57.902,122.818L57.911,122.823L57.925,122.825L57.937,122.825L57.953,122.821L57.963,122.819L57.969,122.819L57.983,122.816L57.995,122.814L58.013,122.81L58.039,122.807L58.052,122.806L58.062,122.803L58.073,122.794L58.08,122.786L58.087,122.781L58.102,122.776L58.126,122.772L58.148,122.766L58.152,122.761L58.149,122.757L58.149,122.754L58.151,122.749L58.163,122.747L58.174,122.748L58.195,122.751L58.214,122.758L58.232,122.768L58.245,122.77L58.276,122.776L58.299,122.783L58.332,122.789L58.351,122.791L58.356,122.79L58.362,122.789L58.367,122.789L58.375,122.794L58.39,122.801L58.4,122.81L58.405,122.817L58.408,122.824L58.408,122.83L58.406,122.837L58.402,122.846L58.405,122.852L58.407,122.859L58.406,122.872L58.401,122.882L58.395,122.891L58.395,122.896L58.388,122.906L58.385,122.92L58.385,122.94L58.392,122.964L58.403,122.986L58.406,122.998L58.405,123.016L58.406,123.062L58.406,123.069L58.408,123.081L58.41,123.09L58.409,123.098L58.406,123.102L58.407,123.107L58.407,123.112L58.404,123.115L58.397,123.113L58.394,123.117L58.394,123.126L58.395,123.143L58.398,123.146L58.398,123.153L58.395,123.163L58.393,123.175L58.392,123.187L58.395,123.2L58.399,123.209L58.406,123.233L58.412,123.255L58.412,123.259L58.406,123.269L58.406,123.274L58.409,123.281L58.412,123.29L58.414,123.301L58.416,123.312L58.416,123.322L58.413,123.33L58.415,123.334L58.415,123.34L58.409,123.345L58.402,123.348L58.398,123.346L58.393,123.343L58.386,123.345L58.389,123.351L58.393,123.356L58.401,123.362L58.405,123.368L58.406,123.373L58.41,123.376L58.411,123.382L58.418,123.388L58.422,123.392L58.438,123.4L58.444,123.405L58.446,123.408L58.454,123.412L58.461,123.418L58.468,123.428L58.469,123.437L58.474,123.442L58.474,123.446L58.469,123.45L58.469,123.454L58.472,123.461L58.477,123.466L58.482,123.48L58.483,123.492L58.479,123.499L58.477,123.516L58.479,123.527L58.479,123.537L58.482,123.542L58.483,123.552L58.482,123.565L58.479,123.573L58.484,123.584L58.487,123.587L58.496,123.588L58.502,123.594L58.504,123.602L58.501,123.622L58.503,123.627L58.508,123.63L58.512,123.632L58.516,123.633L58.522,123.632L58.524,123.63L58.524,123.626L58.525,123.623L58.537,123.617L58.546,123.608L58.551,123.598L58.555,123.583L58.559,123.576L58.559,123.572L58.559,123.567L58.557,123.564L58.553,123.562L58.551,123.558L58.551,123.554L58.553,123.551L58.556,123.551L58.562,123.554L58.564,123.558L58.569,123.557L58.576,123.551L58.582,123.543L58.587,123.536L58.593,123.534L58.592,123.527L58.59,123.518L58.589,123.516L58.586,123.515L58.585,123.51L58.583,123.508L58.58,123.505L58.577,123.501L58.583,123.5L58.591,123.501L58.594,123.505L58.597,123.505L58.598,123.51L58.594,123.514L58.593,123.517L58.598,123.528L58.603,123.535L58.606,123.542L58.612,123.545L58.62,123.553L58.623,123.559L58.654,123.588L58.661,123.592L58.667,123.603L58.667,123.606L58.672,123.609L58.678,123.615L58.681,123.63L58.684,123.64L58.687,123.653L58.692,123.657L58.699,123.664L58.704,123.669L58.709,123.669L58.713,123.68L58.717,123.686L58.722,123.688L58.728,123.695L58.736,123.709L58.743,123.723L58.747,123.743L58.747,123.755L58.746,123.762L58.741,123.765L58.733,123.77L58.728,123.772L58.722,123.774L58.716,123.774L58.714,123.78L58.712,123.783L58.707,123.786L58.695,123.791L58.695,123.793L58.691,123.795L58.686,123.796L58.685,123.8L58.68,123.811L58.677,123.818L58.678,123.828L58.683,123.832L58.692,123.838L58.705,123.846L58.713,123.847L58.724,123.846L58.733,123.845L58.737,123.846L58.747,123.851L58.757,123.852L58.765,123.852L58.771,123.851L58.779,123.847ZM58.426,122.473L58.417,122.478L58.413,122.478L58.397,122.474L58.396,122.472L58.395,122.461L58.394,122.447L58.389,122.421L58.386,122.416L58.383,122.413L58.379,122.412L58.374,122.411L58.369,122.411L58.37,122.401L58.373,122.398L58.372,122.394L58.373,122.39L58.376,122.389L58.384,122.389L58.387,122.387L58.387,122.383L58.375,122.38L58.373,122.369L58.368,122.368L58.367,122.366L58.367,122.362L58.367,122.359L58.372,122.355L58.374,122.351L58.378,122.346L58.382,122.342L58.384,122.337L58.387,122.337L58.39,122.334L58.393,122.329L58.394,122.325L58.394,122.318L58.394,122.314L58.399,122.307L58.404,122.297L58.407,122.291L58.407,122.287L58.403,122.281L58.404,122.275L58.408,122.26L58.408,122.249L58.412,122.239L58.415,122.239L58.421,122.243L58.427,122.244L58.429,122.242L58.43,122.239L58.432,122.237L58.437,122.235L58.442,122.231L58.444,122.227L58.449,122.219L58.452,122.214L58.453,122.197L58.459,122.201L58.462,122.206L58.465,122.214L58.465,122.218L58.469,122.225L58.461,122.23L58.463,122.238L58.474,122.248L58.49,122.264L58.491,122.268L58.485,122.274L58.481,122.283L58.481,122.295L58.485,122.301L58.485,122.305L58.486,122.309L58.489,122.312L58.492,122.318L58.496,122.326L58.502,122.329L58.507,122.331L58.513,122.33L58.516,122.331L58.52,122.335L58.525,122.341L58.528,122.347L58.53,122.36L58.53,122.368L58.532,122.375L58.53,122.382L58.525,122.391L58.517,122.401L58.506,122.408L58.498,122.411L58.486,122.408L58.483,122.404L58.479,122.405L58.477,122.403L58.473,122.402L58.471,122.405L58.472,122.41L58.471,122.415L58.471,122.418L58.473,122.428L58.475,122.434L58.473,122.438L58.471,122.441L58.468,122.442L58.464,122.443L58.462,122.446L58.456,122.451L58.452,122.454L58.445,122.455L58.443,122.458L58.439,122.463L58.43,122.465L58.426,122.473ZM59.312,123L59.309,123.004L59.31,123.013L59.311,123.024L59.311,123.03L59.309,123.035L59.309,123.046L59.311,123.058L59.316,123.079L59.319,123.094L59.318,123.098L59.314,123.105L59.312,123.111L59.308,123.114L59.304,123.114L59.302,123.111L59.29,123.113L59.282,123.115L59.268,123.121L59.262,123.118L59.255,123.114L59.248,123.104L59.239,123.102L59.234,123.102L59.23,123.105L59.227,123.105L59.22,123.104L59.204,123.104L59.202,123.099L59.2,123.091L59.194,123.087L59.19,123.084L59.185,123.073L59.184,123.065L59.184,123.059L59.187,123.057L59.19,123.055L59.194,123.056L59.2,123.059L59.202,123.062L59.207,123.068L59.21,123.07L59.213,123.07L59.216,123.069L59.226,123.059L59.229,123.057L59.234,123.058L59.237,123.059L59.238,123.059L59.241,123.058L59.244,123.055L59.244,123.053L59.243,123.048L59.242,123.039L59.239,123.028L59.24,123.018L59.247,123.016L59.249,123.013L59.25,123.01L59.253,123.007L59.258,123.004L59.262,122.996L59.265,122.991L59.274,122.98L59.28,122.976L59.284,122.974L59.289,122.974L59.294,122.977L59.3,122.977L59.304,122.98L59.307,122.986L59.305,122.988L59.304,122.991L59.304,122.996L59.305,123L59.312,123ZM57.963,119.875L57.971,119.874L57.976,119.874L57.979,119.877L57.982,119.877L57.984,119.877L57.986,119.874L57.995,119.872L58.003,119.869L58.006,119.866L58.006,119.86L58.008,119.857L58.014,119.856L58.016,119.855L58.018,119.851L58.019,119.848L58.019,119.844L58.017,119.836L58.011,119.823L58,119.816L57.994,119.812L57.993,119.81L57.993,119.805L57.992,119.798L57.996,119.799L57.998,119.802L57.999,119.807L58.002,119.81L58.006,119.81L58.014,119.811L58.023,119.815L58.03,119.818L58.035,119.823L58.038,119.831L58.038,119.836L58.035,119.843L58.03,119.856L58.029,119.863L58.026,119.869L58.018,119.874L58.001,119.884L57.986,119.896L57.975,119.906L57.973,119.912L57.975,119.918L57.984,119.927L57.997,119.932L58.005,119.94L58.008,119.947L58.012,119.953L58.026,119.963L58.03,119.973L58.038,119.981L58.042,119.991L58.05,120.002L58.061,120.011L58.071,120.019L58.081,120.027L58.089,120.038L58.091,120.047L58.091,120.054L58.09,120.058L58.089,120.066L58.084,120.057L58.078,120.049L58.071,120.034L58.066,120.025L58.052,120.017L58.045,120.006L58.041,120.006L58.035,120.004L58.024,119.995L58.021,119.993L58.017,119.986L58.014,119.983L58.008,119.981L58.006,119.977L58.006,119.967L58.005,119.963L58.001,119.96L57.994,119.955L57.983,119.948L57.977,119.945L57.974,119.94L57.972,119.937L57.964,119.932L57.956,119.924L57.952,119.917L57.95,119.9L57.952,119.89L57.957,119.885L57.959,119.88L57.963,119.875ZM58.715,123.12L58.716,123.116L58.718,123.112L58.718,123.107L58.717,123.099L58.719,123.095L58.718,123.092L58.716,123.09L58.713,123.086L58.713,123.079L58.712,123.072L58.709,123.057L58.706,123.057L58.706,123.068L58.703,123.074L58.706,123.078L58.706,123.084L58.704,123.096L58.702,123.09L58.7,123.089L58.699,123.092L58.7,123.094L58.701,123.098L58.701,123.101L58.704,123.112L58.703,123.119L58.701,123.112L58.698,123.107L58.695,123.1L58.696,123.094L58.697,123.088L58.7,123.085L58.7,123.08L58.697,123.079L58.694,123.08L58.691,123.084L58.688,123.09L58.681,123.085L58.677,123.083L58.674,123.085L58.669,123.086L58.666,123.084L58.659,123.073L58.653,123.065L58.651,123.055L58.649,123.041L58.653,123.038L58.661,123.034L58.663,123.031L58.667,123.03L58.669,123.027L58.675,123.026L58.677,123.025L58.675,123.022L58.667,123.019L58.663,123.014L58.659,123.012L58.657,123.007L58.66,123.006L58.661,123.004L58.659,123.001L58.661,122.999L58.664,122.999L58.668,123.004L58.672,123.007L58.676,123.009L58.681,123.009L58.686,123.013L58.684,123.018L58.691,123.022L58.697,123.028L58.7,123.029L58.705,123.028L58.71,123.025L58.713,123.024L58.718,123.024L58.724,123.03L58.734,123.031L58.746,123.034L58.746,123.04L58.742,123.042L58.743,123.049L58.741,123.055L58.735,123.056L58.731,123.06L58.728,123.07L58.725,123.071L58.723,123.075L58.721,123.08L58.728,123.084L58.727,123.092L58.727,123.1L58.728,123.124L58.723,123.129L58.72,123.124L58.719,123.121L58.715,123.12ZM58.743,122.8L58.74,122.802L58.735,122.802L58.731,122.805L58.728,122.81L58.728,122.804L58.725,122.8L58.72,122.799L58.718,122.797L58.715,122.796L58.708,122.797L58.705,122.8L58.704,122.799L58.704,122.794L58.702,122.787L58.695,122.781L58.688,122.774L58.678,122.767L58.674,122.766L58.671,122.769L58.667,122.771L58.663,122.781L58.659,122.782L58.654,122.781L58.651,122.778L58.651,122.774L58.647,122.768L58.64,122.77L58.638,122.756L58.638,122.751L58.645,122.751L58.641,122.749L58.64,122.745L58.64,122.74L58.643,122.737L58.651,122.74L58.653,122.74L58.655,122.734L58.659,122.728L58.663,122.722L58.674,122.727L58.684,122.731L58.688,122.734L58.697,122.736L58.705,122.742L58.711,122.739L58.715,122.743L58.727,122.751L58.737,122.76L58.743,122.768L58.747,122.775L58.75,122.778L58.752,122.785L58.751,122.79L58.749,122.795L58.743,122.8ZM58.938,122.831L58.943,122.843L58.947,122.848L58.949,122.855L58.95,122.86L58.95,122.865L58.948,122.868L58.94,122.876L58.938,122.877L58.933,122.875L58.926,122.873L58.914,122.868L58.903,122.868L58.9,122.867L58.898,122.864L58.884,122.86L58.876,122.861L58.868,122.866L58.865,122.866L58.864,122.862L58.866,122.86L58.866,122.858L58.865,122.855L58.859,122.848L58.857,122.841L58.864,122.838L58.879,122.838L58.879,122.831L58.877,122.819L58.878,122.813L58.881,122.808L58.889,122.804L58.896,122.801L58.902,122.8L58.907,122.798L58.913,122.798L58.919,122.8L58.928,122.806L58.935,122.813L58.938,122.831ZM59.266,123.259L59.278,123.277L59.28,123.282L59.281,123.295L59.281,123.305L59.276,123.311L59.271,123.325L59.266,123.325L59.262,123.323L59.253,123.317L59.244,123.313L59.237,123.303L59.232,123.293L59.229,123.278L59.227,123.253L59.226,123.241L59.225,123.237L59.232,123.229L59.236,123.223L59.237,123.218L59.239,123.209L59.244,123.203L59.249,123.197L59.244,123.19L59.244,123.186L59.246,123.182L59.246,123.174L59.251,123.179L59.249,123.189L59.251,123.195L59.25,123.204L59.253,123.207L59.256,123.214L59.256,123.217L59.253,123.22L59.253,123.228L59.257,123.233L59.259,123.24L59.266,123.259ZM58.44,123.121L58.443,123.112L58.446,123.107L58.449,123.097L58.453,123.092L58.456,123.086L58.456,123.081L58.458,123.074L58.459,123.068L58.459,123.06L58.457,123.05L58.458,123.046L58.463,123.042L58.465,123.039L58.467,123.034L58.467,123.028L58.469,123.029L58.47,123.034L58.472,123.042L58.476,123.064L58.48,123.073L58.479,123.082L58.482,123.088L58.485,123.098L58.49,123.104L58.491,123.107L58.488,123.115L58.486,123.118L58.484,123.122L58.48,123.135L58.478,123.148L58.473,123.157L58.474,123.159L58.477,123.162L58.468,123.162L58.464,123.163L58.461,123.166L58.458,123.17L58.454,123.166L58.449,123.167L58.444,123.169L58.441,123.173L58.44,123.168L58.439,123.164L58.437,123.162L58.437,123.158L58.441,123.149L58.449,123.146L58.448,123.143L58.441,123.137L58.437,123.135L58.437,123.126L58.44,123.121ZM58.997,122.877L58.993,122.876L58.992,122.869L58.992,122.863L58.988,122.86L58.996,122.857L59.006,122.846L59.012,122.837L59.017,122.835L59.022,122.836L59.023,122.839L59.023,122.843L59.019,122.846L59.02,122.85L59.021,122.853L59.027,122.857L59.031,122.865L59.035,122.88L59.037,122.896L59.035,122.9L59.033,122.9L59.03,122.898L59.024,122.898L59.022,122.899L59.021,122.903L59.021,122.908L59.019,122.911L59.015,122.905L59.011,122.9L59.007,122.893L59.005,122.885L59.003,122.88L58.997,122.877ZM58.471,122.478L58.476,122.473L58.477,122.468L58.484,122.466L58.487,122.463L58.491,122.461L58.495,122.457L58.498,122.455L58.501,122.458L58.506,122.46L58.511,122.46L58.515,122.462L58.517,122.47L58.518,122.478L58.518,122.486L58.515,122.489L58.508,122.5L58.503,122.501L58.484,122.51L58.481,122.506L58.476,122.504L58.472,122.5L58.47,122.495L58.47,122.489L58.471,122.478ZM58.59,123.277L58.598,123.274L58.604,123.278L58.613,123.288L58.616,123.295L58.618,123.301L58.621,123.306L58.622,123.317L58.621,123.322L58.617,123.324L58.615,123.326L58.614,123.329L58.615,123.333L58.611,123.34L58.608,123.343L58.605,123.344L58.6,123.344L58.598,123.346L58.596,123.344L58.595,123.34L58.592,123.331L58.59,123.319L58.586,123.315L58.584,123.311L58.583,123.304L58.584,123.299L58.587,123.296L58.59,123.292L58.59,123.29L58.587,123.285L58.59,123.277ZM57.507,119.329L57.516,119.326L57.521,119.326L57.522,119.329L57.523,119.331L57.527,119.331L57.529,119.334L57.534,119.335L57.536,119.337L57.538,119.339L57.545,119.341L57.546,119.345L57.546,119.351L57.544,119.355L57.538,119.362L57.533,119.366L57.524,119.364L57.518,119.352L57.516,119.347L57.514,119.343L57.51,119.34L57.508,119.335L57.505,119.334L57.503,119.332L57.503,119.329L57.507,119.329ZM58.635,122.073L58.631,122.064L58.633,122.062L58.636,122.06L58.637,122.059L58.638,122.054L58.641,122.052L58.645,122.047L58.646,122.042L58.649,122.042L58.653,122.045L58.661,122.049L58.668,122.051L58.671,122.052L58.672,122.054L58.669,122.062L58.668,122.065L58.665,122.062L58.663,122.062L58.661,122.064L58.659,122.066L58.656,122.068L58.653,122.074L58.649,122.077L58.643,122.079L58.639,122.079L58.635,122.073ZM58.416,122.218L58.412,122.219L58.41,122.215L58.407,122.214L58.405,122.212L58.405,122.205L58.404,122.199L58.4,122.196L58.402,122.193L58.403,122.189L58.407,122.189L58.414,122.193L58.418,122.199L58.421,122.201L58.421,122.209L58.418,122.211L58.416,122.218ZM59.268,122.739L59.271,122.724L59.273,122.721L59.275,122.727L59.279,122.733L59.281,122.741L59.284,122.749L59.287,122.75L59.289,122.752L59.289,122.755L59.286,122.758L59.283,122.761L59.281,122.756L59.277,122.756L59.275,122.752L59.27,122.747L59.268,122.742L59.268,122.739ZM58.415,122.683L58.407,122.684L58.403,122.678L58.402,122.676L58.402,122.673L58.405,122.67L58.412,122.668L58.419,122.664L58.42,122.662L58.422,122.657L58.424,122.655L58.425,122.657L58.424,122.661L58.425,122.667L58.424,122.672L58.422,122.678L58.415,122.683ZM58.165,120.139L58.169,120.136L58.171,120.136L58.176,120.137L58.179,120.133L58.181,120.132L58.182,120.139L58.184,120.142L58.183,120.144L58.178,120.151L58.174,120.151L58.164,120.151L58.16,120.148L58.158,120.143L58.162,120.141L58.165,120.139ZM58.483,120.616L58.483,120.608L58.486,120.608L58.486,120.605L58.485,120.595L58.487,120.588L58.487,120.584L58.484,120.582L58.485,120.579L58.487,120.579L58.491,120.582L58.491,120.588L58.489,120.595L58.489,120.599L58.49,120.604L58.494,120.61L58.495,120.613L58.5,120.622L58.495,120.623L58.488,120.623L58.485,120.62L58.483,120.616ZM59.158,123.056L59.158,123.053L59.165,123.053L59.168,123.054L59.171,123.057L59.174,123.061L59.172,123.064L59.169,123.066L59.168,123.07L59.166,123.071L59.162,123.071L59.158,123.069L59.157,123.068L59.156,123.065L59.156,123.06L59.158,123.056ZM58.588,122.348L58.591,122.346L58.595,122.347L58.598,122.35L58.599,122.354L58.599,122.361L58.593,122.366L58.588,122.362L58.584,122.357L58.581,122.353L58.585,122.351L58.588,122.348ZM57.914,121.577L57.912,121.582L57.911,121.581L57.91,121.579L57.909,121.565L57.908,121.549L57.908,121.537L57.904,121.532L57.906,121.53L57.91,121.529L57.912,121.53L57.914,121.531L57.913,121.533L57.912,121.537L57.913,121.543L57.911,121.547L57.913,121.56L57.914,121.577ZM57.727,118.994L57.727,118.981L57.732,118.983L57.734,118.985L57.737,118.988L57.738,118.992L57.738,118.999L57.736,119.009L57.734,119.009L57.732,119.007L57.73,119.001L57.727,118.994ZM58.437,122.636L58.438,122.633L58.443,122.634L58.444,122.639L58.445,122.64L58.447,122.636L58.449,122.636L58.448,122.639L58.445,122.645L58.441,122.648L58.437,122.654L58.436,122.648L58.436,122.646L58.427,122.645L58.432,122.642L58.439,122.64L58.437,122.636ZM57.793,121.809L57.791,121.816L57.787,121.814L57.784,121.811L57.783,121.806L57.788,121.796L57.792,121.797L57.794,121.798L57.795,121.8L57.793,121.809ZM59.242,123.54L59.241,123.543L59.239,123.543L59.238,123.54L59.238,123.537L59.237,123.535L59.237,123.532L59.238,123.528L59.24,123.531L59.242,123.528L59.241,123.525L59.241,123.523L59.244,123.524L59.25,123.535L59.246,123.536L59.244,123.538L59.242,123.54ZM58.91,122.762L58.91,122.756L58.911,122.75L58.912,122.745L58.912,122.739L58.909,122.735L58.906,122.735L58.907,122.732L58.911,122.731L58.91,122.734L58.912,122.736L58.914,122.739L58.914,122.743L58.918,122.743L58.918,122.746L58.917,122.748L58.914,122.751L58.913,122.764L58.91,122.762ZM58.441,122.685L58.44,122.682L58.442,122.68L58.44,122.677L58.445,122.677L58.448,122.679L58.448,122.681L58.444,122.683L58.443,122.686L58.441,122.688L58.44,122.691L58.442,122.696L58.436,122.703L58.434,122.703L58.435,122.699L58.431,122.698L58.439,122.695L58.436,122.692L58.437,122.69L58.439,122.687L58.436,122.686L58.441,122.685ZM59.288,122.836L59.284,122.823L59.281,122.823L59.278,122.811L59.279,122.808L59.282,122.808L59.285,122.813L59.286,122.821L59.29,122.834L59.288,122.836ZM58.081,120.11L58.085,120.107L58.088,120.111L58.088,120.115L58.086,120.119L58.082,120.124L58.08,120.123L58.08,120.118L58.08,120.114L58.081,120.11ZM59.14,122.863L59.143,122.861L59.148,122.866L59.151,122.869L59.149,122.872L59.144,122.871L59.143,122.873L59.14,122.874L59.138,122.872L59.139,122.87L59.141,122.868L59.14,122.863ZM58.527,123.593L58.531,123.593L58.535,123.598L58.535,123.601L58.535,123.605L58.53,123.606L58.529,123.604L58.528,123.601L58.528,123.597L58.527,123.595L58.527,123.593ZM57.961,119.775L57.961,119.769L57.963,119.77L57.965,119.772L57.965,119.774L57.973,119.78L57.977,119.783L57.979,119.787L57.976,119.787L57.972,119.786L57.972,119.783L57.97,119.779L57.967,119.777L57.963,119.776L57.961,119.775ZM59.191,123.099L59.192,123.109L59.199,123.11L59.199,123.118L59.197,123.118L59.196,123.115L59.191,123.117L59.19,123.102L59.191,123.099ZM58.281,120.19L58.284,120.189L58.287,120.19L58.292,120.192L58.294,120.198L58.294,120.199L58.286,120.194L58.282,120.193L58.281,120.19ZM59.118,123.052L59.117,123.057L59.113,123.062L59.112,123.058L59.113,123.055L59.114,123.052L59.114,123.048L59.116,123.048L59.118,123.052ZM59.128,123.068L59.128,123.073L59.124,123.073L59.123,123.069L59.123,123.066L59.125,123.064L59.127,123.064L59.128,123.068ZM58.589,122.334L58.593,122.33L58.595,122.335L58.594,122.338L58.591,122.339L58.589,122.339L58.588,122.336L58.589,122.334ZM57.609,119.298L57.609,119.293L57.611,119.291L57.613,119.292L57.615,119.296L57.613,119.298L57.609,119.298ZM59.183,123.093L59.181,123.095L59.181,123.092L59.182,123.089L59.18,123.086L59.18,123.083L59.183,123.085L59.186,123.089L59.186,123.093L59.183,123.093ZM58.83,123.302L58.826,123.308L58.825,123.307L58.824,123.304L58.828,123.299L58.83,123.299L58.83,123.3L58.83,123.302ZM59.138,123.151L59.136,123.152L59.134,123.152L59.132,123.146L59.133,123.142L59.134,123.141L59.134,123.143L59.136,123.146L59.138,123.151ZM59.386,123.464L59.386,123.47L59.383,123.47L59.383,123.465L59.384,123.463L59.385,123.462L59.386,123.464ZM58.584,122.62L58.59,122.617L58.591,122.621L58.589,122.622L58.587,122.623L58.584,122.62ZM58.814,122.718L58.814,122.721L58.812,122.721L58.813,122.715L58.815,122.712L58.817,122.713L58.814,122.718ZM58.906,122.973L58.908,122.971L58.912,122.971L58.909,122.976L58.907,122.976L58.905,122.976L58.906,122.973ZM58.724,123.215L58.724,123.207L58.726,123.208L58.727,123.211L58.726,123.215L58.724,123.215ZM58.904,122.782L58.904,122.778L58.906,122.778L58.906,122.782L58.904,122.784L58.901,122.786L58.901,122.784L58.904,122.782ZM58.657,123.197L58.658,123.196L58.66,123.199L58.659,123.202L58.658,123.202L58.657,123.197ZM58.892,123.009L58.891,123.01L58.889,123.01L58.89,123.008L58.892,123.007L58.892,123.009ZM58.741,123.132L58.741,123.13L58.743,123.13L58.743,123.132L58.742,123.133L58.741,123.132ZM58.803,122.686L58.803,122.684L58.804,122.685L58.804,122.686L58.804,122.687L58.803,122.686Z" style="fill:rgb(36,121,200);"/>
    </g>
    <g transform="matrix(1.39967,0,0,1.39967,-749.038,-203.613)">
        <circle cx="939.479" cy="1127.75" r="11.724" style="fill:rgb(255,118,0);"/>
    </g>
</svg>
