<?xml version="1.0" encoding="UTF-8" standalone="no"?>
<!DOCTYPE svg PUBLIC "-//W3C//DTD SVG 1.1//EN" "http://www.w3.org/Graphics/SVG/1.1/DTD/svg11.dtd">
<svg width="100%" height="100%" viewBox="0 0 1500 1500" version="1.1" xmlns="http://www.w3.org/2000/svg" xmlns:xlink="http://www.w3.org/1999/xlink" xml:space="preserve" xmlns:serif="http://www.serif.com/" style="fill-rule:evenodd;clip-rule:evenodd;stroke-linejoin:round;stroke-miterlimit:2;">
    <g transform="matrix(406.334,8.85803e-30,8.85803e-30,-406.334,3199.61,53800.8)">
        <path d="M-5.567,132.393L-5.57,132.385L-5.578,132.375L-5.578,132.365L-5.583,132.352L-5.589,132.338L-5.593,132.331L-5.596,132.32L-5.601,132.318L-5.603,132.312L-5.602,132.293L-5.603,132.281L-5.601,132.27L-5.598,132.26L-5.594,132.259L-5.59,132.249L-5.584,132.248L-5.581,132.251L-5.575,132.25L-5.573,132.247L-5.569,132.25L-5.568,132.253L-5.564,132.251L-5.563,132.248L-5.563,132.243L-5.566,132.222L-5.563,132.21L-5.556,132.198L-5.553,132.187L-5.552,132.157L-5.553,132.146L-5.556,132.139L-5.548,132.136L-5.537,132.129L-5.534,132.128L-5.533,132.124L-5.535,132.123L-5.536,132.116L-5.532,132.109L-5.526,132.097L-5.523,132.074L-5.521,132.046L-5.529,131.992L-5.532,131.95L-5.533,131.921L-5.537,131.887L-5.544,131.867L-5.552,131.856L-5.561,131.845L-5.572,131.839L-5.577,131.835L-5.577,131.823L-5.581,131.798L-5.582,131.786L-5.59,131.748L-5.599,131.73L-5.604,131.722L-5.607,131.7L-5.619,131.67L-5.628,131.659L-5.636,131.652L-5.644,131.642L-5.646,131.63L-5.646,131.623L-5.649,131.616L-5.656,131.598L-5.668,131.553L-5.666,131.536L-5.667,131.512L-5.668,131.449L-5.668,131.414L-5.668,131.374L-5.669,131.349L-5.673,131.337L-5.684,131.317L-5.689,131.301L-5.699,131.29L-5.704,131.279L-5.706,131.261L-5.707,131.252L-5.705,131.244L-5.705,131.239L-5.707,131.236L-5.711,131.222L-5.726,131.182L-5.731,131.17L-5.736,131.141L-5.737,131.102L-5.739,131.081L-5.744,131.071L-5.752,131.055L-5.758,131.048L-5.766,131.044L-5.767,131.031L-5.772,131.018L-5.776,130.982L-5.776,130.868L-5.78,130.818L-5.784,130.799L-5.787,130.792L-5.816,130.77L-5.817,130.761L-5.814,130.746L-5.806,130.731L-5.805,130.715L-5.809,130.687L-5.813,130.682L-5.826,130.679L-5.84,130.672L-5.851,130.66L-5.852,130.649L-5.851,130.635L-5.844,130.631L-5.838,130.626L-5.835,130.622L-5.837,130.618L-5.837,130.618L-5.841,130.613L-5.847,130.599L-5.851,130.573L-5.857,130.554L-5.859,130.538L-5.864,130.523L-5.873,130.506L-5.879,130.493L-5.883,130.482L-5.89,130.477L-5.896,130.464L-5.896,130.454L-5.895,130.447L-5.898,130.444L-5.901,130.439L-5.899,130.426L-5.899,130.421L-5.898,130.416L-5.901,130.41L-5.905,130.402L-5.906,130.391L-5.906,130.386L-5.906,130.378L-5.91,130.361L-5.909,130.355L-5.904,130.351L-5.902,130.338L-5.901,130.33L-5.901,130.32L-5.903,130.312L-5.91,130.307L-5.913,130.295L-5.918,130.293L-5.921,130.288L-5.921,130.28L-5.924,130.277L-5.932,130.275L-5.935,130.269L-5.937,130.257L-5.939,130.244L-5.941,130.231L-5.945,130.214L-5.946,130.196L-5.948,130.187L-5.953,130.176L-5.951,130.165L-5.952,130.148L-5.953,130.141L-5.958,130.132L-5.964,130.123L-5.97,130.114L-5.984,130.095L-5.991,130.088L-5.996,130.083L-6.002,130.07L-6.003,130.063L-6.012,130.049L-6.016,130.038L-6.02,130.034L-6.023,130.024L-6.021,130.018L-6.031,130.004L-6.035,129.996L-6.04,129.984L-6.041,129.979L-6.042,129.968L-6.047,129.954L-6.046,129.947L-6.044,129.941L-6.044,129.935L-6.043,129.928L-6.043,129.922L-6.043,129.915L-6.045,129.902L-6.045,129.895L-6.042,129.893L-6.041,129.888L-6.044,129.88L-6.05,129.872L-6.051,129.862L-6.051,129.853L-6.053,129.843L-6.054,129.826L-6.061,129.81L-6.061,129.796L-6.056,129.784L-6.052,129.773L-6.049,129.755L-6.048,129.748L-6.053,129.744L-6.057,129.727L-6.061,129.716L-6.06,129.705L-6.056,129.694L-6.051,129.689L-6.045,129.678L-6.039,129.666L-6.037,129.662L-6.037,129.657L-6.041,129.653L-6.046,129.647L-6.047,129.64L-6.047,129.634L-6.05,129.627L-6.048,129.612L-6.048,129.603L-6.059,129.59L-6.072,129.572L-6.081,129.557L-6.078,129.546L-6.075,129.524L-6.073,129.518L-6.068,129.516L-6.067,129.508L-6.065,129.499L-6.058,129.494L-6.051,129.486L-6.044,129.48L-6.037,129.47L-6.027,129.459L-6.006,129.453L-6.003,129.451L-5.996,129.442L-5.99,129.434L-5.985,129.427L-5.983,129.421L-5.987,129.419L-5.986,129.416L-5.984,129.412L-5.979,129.411L-5.973,129.411L-5.966,129.416L-5.962,129.421L-5.956,129.427L-5.952,129.428L-5.947,129.428L-5.935,129.422L-5.932,129.415L-5.935,129.408L-5.938,129.398L-5.942,129.391L-5.957,129.39L-5.973,129.39L-5.986,129.389L-5.999,129.389L-6.007,129.396L-6.016,129.396L-6.021,129.397L-6.025,129.399L-6.031,129.4L-6.04,129.398L-6.049,129.4L-6.058,129.404L-6.066,129.41L-6.071,129.415L-6.075,129.423L-6.08,129.43L-6.083,129.44L-6.092,129.445L-6.101,129.455L-6.113,129.46L-6.122,129.461L-6.147,129.459L-6.168,129.452L-6.199,129.436L-6.214,129.42L-6.233,129.397L-6.252,129.382L-6.264,129.363L-6.272,129.357L-6.281,129.354L-6.285,129.354L-6.293,129.359L-6.295,129.371L-6.297,129.38L-6.294,129.387L-6.302,129.392L-6.31,129.388L-6.31,129.378L-6.309,129.364L-6.314,129.355L-6.324,129.34L-6.33,129.321L-6.334,129.304L-6.335,129.298L-6.347,129.281L-6.352,129.265L-6.354,129.257L-6.36,129.249L-6.363,129.242L-6.365,129.231L-6.36,129.217L-6.361,129.194L-6.375,129.176L-6.38,129.164L-6.383,129.152L-6.389,129.143L-6.394,129.137L-6.395,129.129L-6.396,129.12L-6.391,129.107L-6.388,129.092L-6.386,129.083L-6.388,129.076L-6.391,129.069L-6.392,129.057L-6.39,129.05L-6.39,129.045L-6.392,129.04L-6.396,129.038L-6.399,129.034L-6.397,129.025L-6.398,129.017L-6.401,129.017L-6.403,129.013L-6.404,129.007L-6.402,128.992L-6.402,128.981L-6.404,128.973L-6.408,128.961L-6.416,128.951L-6.422,128.934L-6.428,128.925L-6.433,128.924L-6.438,128.925L-6.443,128.934L-6.452,128.95L-6.46,128.955L-6.464,128.965L-6.467,128.966L-6.471,128.963L-6.475,128.96L-6.481,128.96L-6.486,128.957L-6.491,128.955L-6.494,128.95L-6.495,128.944L-6.498,128.941L-6.503,128.939L-6.512,128.941L-6.519,128.942L-6.524,128.942L-6.529,128.94L-6.533,128.934L-6.545,128.923L-6.551,128.895L-6.557,128.876L-6.562,128.863L-6.565,128.852L-6.568,128.847L-6.572,128.843L-6.581,128.84L-6.585,128.842L-6.581,128.852L-6.579,128.861L-6.579,128.871L-6.575,128.878L-6.573,128.888L-6.573,128.893L-6.578,128.897L-6.579,128.899L-6.58,128.903L-6.584,128.906L-6.587,128.907L-6.596,128.909L-6.601,128.909L-6.607,128.907L-6.611,128.899L-6.613,128.893L-6.615,128.886L-6.615,128.881L-6.618,128.881L-6.621,128.879L-6.621,128.869L-6.619,128.858L-6.613,128.861L-6.614,128.856L-6.619,128.851L-6.627,128.846L-6.628,128.84L-6.632,128.839L-6.637,128.834L-6.645,128.827L-6.649,128.821L-6.663,128.805L-6.663,128.799L-6.663,128.795L-6.668,128.788L-6.672,128.775L-6.673,128.771L-6.678,128.763L-6.687,128.747L-6.692,128.743L-6.697,128.74L-6.711,128.735L-6.716,128.731L-6.72,128.724L-6.721,128.72L-6.732,128.718L-6.734,128.726L-6.732,128.73L-6.728,128.733L-6.727,128.738L-6.729,128.745L-6.733,128.75L-6.734,128.756L-6.729,128.764L-6.728,128.77L-6.728,128.777L-6.733,128.788L-6.73,128.794L-6.73,128.805L-6.732,128.813L-6.73,128.818L-6.722,128.837L-6.714,128.851L-6.707,128.864L-6.703,128.871L-6.697,128.879L-6.69,128.885L-6.685,128.888L-6.676,128.904L-6.67,128.916L-6.666,128.919L-6.663,128.929L-6.66,128.932L-6.644,128.972L-6.639,128.986L-6.637,128.996L-6.633,129.003L-6.63,129.016L-6.631,129.024L-6.633,129.028L-6.633,129.033L-6.626,129.036L-6.618,129.044L-6.613,129.05L-6.609,129.057L-6.605,129.059L-6.599,129.066L-6.594,129.07L-6.59,129.074L-6.588,129.079L-6.588,129.08L-6.591,129.08L-6.595,129.077L-6.6,129.076L-6.605,129.077L-6.615,129.083L-6.623,129.083L-6.634,129.078L-6.641,129.075L-6.645,129.072L-6.65,129.071L-6.659,129.071L-6.67,129.069L-6.674,129.071L-6.677,129.074L-6.682,129.076L-6.685,129.076L-6.688,129.07L-6.686,129.062L-6.685,129.057L-6.688,129.053L-6.697,129.051L-6.703,129.052L-6.707,129.058L-6.711,129.066L-6.712,129.07L-6.71,129.073L-6.703,129.075L-6.694,129.084L-6.69,129.089L-6.683,129.112L-6.674,129.12L-6.658,129.131L-6.634,129.154L-6.618,129.16L-6.585,129.171L-6.566,129.18L-6.55,129.196L-6.537,129.212L-6.521,129.225L-6.52,129.23L-6.518,129.232L-6.508,129.232L-6.503,129.236L-6.502,129.24L-6.495,129.243L-6.491,129.248L-6.489,129.266L-6.488,129.282L-6.49,129.286L-6.491,129.29L-6.489,129.294L-6.482,129.296L-6.477,129.293L-6.473,129.289L-6.469,129.288L-6.464,129.287L-6.454,129.297L-6.441,129.313L-6.43,129.33L-6.423,129.35L-6.42,129.36L-6.419,129.367L-6.423,129.37L-6.422,129.372L-6.417,129.374L-6.414,129.383L-6.412,129.395L-6.408,129.422L-6.407,129.429L-6.403,129.439L-6.399,129.446L-6.398,129.468L-6.4,129.487L-6.397,129.498L-6.393,129.502L-6.392,129.509L-6.387,129.52L-6.384,129.53L-6.381,129.538L-6.376,129.537L-6.366,129.544L-6.356,129.56L-6.348,129.572L-6.346,129.583L-6.344,129.589L-6.341,129.591L-6.335,129.596L-6.331,129.613L-6.331,129.624L-6.333,129.629L-6.333,129.632L-6.33,129.637L-6.322,129.648L-6.314,129.664L-6.304,129.688L-6.303,129.707L-6.305,129.719L-6.307,129.725L-6.309,129.744L-6.309,129.751L-6.311,129.758L-6.309,129.761L-6.313,129.772L-6.308,129.778L-6.311,129.791L-6.317,129.803L-6.317,129.816L-6.315,129.829L-6.31,129.838L-6.31,129.847L-6.315,129.856L-6.322,129.86L-6.326,129.864L-6.332,129.876L-6.338,129.894L-6.338,129.902L-6.332,129.911L-6.315,129.934L-6.297,129.963L-6.29,129.98L-6.289,129.997L-6.28,130.007L-6.266,130.021L-6.261,130.032L-6.257,130.056L-6.249,130.071L-6.233,130.094L-6.221,130.105L-6.21,130.121L-6.205,130.133L-6.192,130.137L-6.182,130.148L-6.17,130.161L-6.169,130.169L-6.173,130.174L-6.187,130.183L-6.206,130.193L-6.217,130.195L-6.228,130.204L-6.235,130.214L-6.234,130.22L-6.232,130.223L-6.228,130.226L-6.22,130.228L-6.212,130.229L-6.207,130.235L-6.208,130.251L-6.214,130.259L-6.22,130.273L-6.225,130.28L-6.23,130.282L-6.238,130.289L-6.251,130.298L-6.26,130.318L-6.266,130.331L-6.284,130.346L-6.297,130.364L-6.308,130.381L-6.313,130.383L-6.313,130.4L-6.314,130.422L-6.318,130.436L-6.325,130.447L-6.331,130.454L-6.345,130.465L-6.347,130.468L-6.35,130.478L-6.355,130.486L-6.359,130.495L-6.358,130.503L-6.354,130.511L-6.347,130.519L-6.34,130.524L-6.331,130.533L-6.322,130.55L-6.306,130.586L-6.301,130.605L-6.297,130.628L-6.293,130.641L-6.289,130.65L-6.265,130.673L-6.244,130.687L-6.237,130.689L-6.225,130.69L-6.205,130.704L-6.191,130.709L-6.168,130.712L-6.161,130.722L-6.151,130.736L-6.137,130.754L-6.128,130.76L-6.111,130.768L-6.1,130.778L-6.088,130.787L-6.085,130.799L-6.084,130.809L-6.086,130.817L-6.09,130.821L-6.095,130.825L-6.1,130.832L-6.1,130.842L-6.094,130.854L-6.084,130.866L-6.077,130.87L-6.062,130.879L-6.05,130.884L-6.033,130.89L-6.023,130.891L-6.015,130.891L-6.006,130.89L-5.997,130.883L-5.986,130.875L-5.977,130.874L-5.975,130.878L-5.979,130.886L-5.979,130.899L-5.976,130.911L-5.969,130.928L-5.956,130.944L-5.933,130.969L-5.913,130.974L-5.903,130.983L-5.888,131.003L-5.873,131.022L-5.857,131.041L-5.847,131.062L-5.844,131.074L-5.839,131.08L-5.835,131.091L-5.836,131.1L-5.833,131.109L-5.828,131.124L-5.826,131.14L-5.83,131.161L-5.834,131.171L-5.837,131.176L-5.846,131.187L-5.85,131.196L-5.861,131.219L-5.865,131.23L-5.869,131.241L-5.869,131.266L-5.866,131.283L-5.862,131.29L-5.853,131.301L-5.849,131.313L-5.85,131.33L-5.855,131.376L-5.858,131.389L-5.858,131.402L-5.859,131.412L-5.864,131.422L-5.864,131.427L-5.858,131.424L-5.853,131.421L-5.838,131.425L-5.823,131.435L-5.813,131.444L-5.798,131.451L-5.787,131.453L-5.78,131.461L-5.772,131.485L-5.768,131.503L-5.76,131.53L-5.751,131.555L-5.74,131.588L-5.735,131.605L-5.728,131.616L-5.721,131.638L-5.721,131.646L-5.71,131.686L-5.702,131.712L-5.692,131.741L-5.691,131.754L-5.696,131.779L-5.7,131.808L-5.7,131.833L-5.702,131.846L-5.709,131.894L-5.715,131.911L-5.72,131.931L-5.722,131.942L-5.72,131.953L-5.718,131.977L-5.716,131.989L-5.723,132L-5.725,132.009L-5.727,132.015L-5.735,132.024L-5.735,132.038L-5.74,132.063L-5.739,132.076L-5.744,132.084L-5.747,132.097L-5.745,132.113L-5.741,132.134L-5.74,132.141L-5.735,132.148L-5.731,132.155L-5.714,132.178L-5.706,132.187L-5.701,132.196L-5.699,132.202L-5.69,132.218L-5.676,132.221L-5.668,132.228L-5.656,132.249L-5.649,132.262L-5.646,132.271L-5.646,132.278L-5.651,132.289L-5.657,132.298L-5.662,132.308L-5.66,132.324L-5.657,132.342L-5.656,132.349L-5.655,132.353L-5.652,132.356L-5.651,132.358L-5.65,132.361L-5.652,132.364L-5.653,132.366L-5.653,132.374L-5.649,132.387L-5.645,132.393L-5.639,132.397L-5.634,132.399L-5.626,132.399L-5.626,132.396L-5.628,132.39L-5.631,132.384L-5.634,132.382L-5.635,132.379L-5.631,132.38L-5.628,132.38L-5.625,132.378L-5.623,132.381L-5.62,132.378L-5.616,132.38L-5.608,132.378L-5.606,132.38L-5.602,132.379L-5.599,132.38L-5.599,132.385L-5.6,132.388L-5.595,132.391L-5.592,132.387L-5.587,132.389L-5.584,132.395L-5.585,132.396L-5.584,132.399L-5.581,132.399L-5.576,132.397L-5.57,132.396L-5.567,132.393ZM-6.063,130.77L-6.06,130.759L-6.054,130.76L-6.054,130.764L-6.05,130.771L-6.047,130.773L-6.042,130.777L-6.038,130.784L-6.029,130.792L-6.026,130.793L-6.018,130.8L-6.016,130.804L-6.013,130.812L-6.012,130.822L-6.009,130.833L-6.011,130.837L-6.016,130.845L-6.02,130.846L-6.025,130.845L-6.034,130.844L-6.041,130.828L-6.049,130.821L-6.051,130.815L-6.059,130.807L-6.061,130.796L-6.064,130.793L-6.065,130.789L-6.064,130.784L-6.062,130.775L-6.063,130.77ZM-6.532,129.01L-6.538,129.007L-6.539,129.005L-6.543,129.006L-6.551,129.009L-6.552,129.006L-6.553,129.002L-6.556,128.999L-6.559,128.994L-6.56,128.991L-6.567,128.982L-6.568,128.977L-6.574,128.977L-6.575,128.975L-6.576,128.972L-6.577,128.967L-6.579,128.962L-6.586,128.951L-6.585,128.949L-6.583,128.948L-6.581,128.953L-6.577,128.954L-6.572,128.954L-6.565,128.952L-6.564,128.953L-6.568,128.955L-6.566,128.96L-6.562,128.966L-6.56,128.969L-6.552,128.969L-6.552,128.975L-6.545,128.979L-6.541,128.982L-6.537,128.981L-6.531,128.986L-6.527,128.989L-6.525,128.992L-6.525,128.997L-6.527,129L-6.526,129.003L-6.526,129.007L-6.529,129.01L-6.532,129.01ZM-6.501,128.99L-6.499,128.988L-6.496,128.988L-6.493,128.989L-6.489,128.99L-6.483,128.992L-6.482,128.997L-6.483,129.001L-6.485,129.005L-6.49,129.008L-6.493,129.009L-6.496,129.007L-6.499,129.004L-6.501,128.996L-6.501,128.99Z" style="fill:rgb(36,121,200);"/>
    </g>
    <g transform="matrix(406.334,8.85803e-30,8.85803e-30,-406.334,3199.61,53800.8)">
        <path d="M-5.788,129.327L-5.813,129.331L-5.835,129.347L-5.876,129.367L-5.876,129.369L-5.882,129.376L-5.884,129.381L-5.881,129.386L-5.878,129.388L-5.858,129.392L-5.849,129.4L-5.819,129.364L-5.806,129.35L-5.795,129.341L-5.788,129.327Z" style="fill:rgb(36,121,200);"/>
    </g>
    <g transform="matrix(1.39967,0,0,1.39967,-424.996,-331.075)">
        <circle cx="939.479" cy="1127.75" r="11.724" style="fill:rgb(255,118,0);"/>
    </g>
</svg>
