<?xml version="1.0" encoding="UTF-8" standalone="no"?>
<!-- Created with Inkscape (http://www.inkscape.org/) -->

<svg
   xmlns:dc="http://purl.org/dc/elements/1.1/"
   xmlns:cc="http://creativecommons.org/ns#"
   xmlns:rdf="http://www.w3.org/1999/02/22-rdf-syntax-ns#"
   xmlns:svg="http://www.w3.org/2000/svg"
   xmlns="http://www.w3.org/2000/svg"
   xmlns:sodipodi="http://sodipodi.sourceforge.net/DTD/sodipodi-0.dtd"
   xmlns:inkscape="http://www.inkscape.org/namespaces/inkscape"
   width="300"
   height="300"
   viewBox="0 0 79.374998 79.375002"
   version="1.1"
   id="svg4884"
   inkscape:version="0.92.3 (2405546, 2018-03-11)"
   sodipodi:docname="Superior.svg">
  <defs
     id="defs4878" />
  <sodipodi:namedview
     id="base"
     pagecolor="#ffffff"
     bordercolor="#666666"
     borderopacity="1.0"
     inkscape:pageopacity="0.0"
     inkscape:pageshadow="2"
     inkscape:zoom="0.7"
     inkscape:cx="330.88703"
     inkscape:cy="256.33971"
     inkscape:document-units="px"
     inkscape:current-layer="layer1"
     showgrid="false"
     units="px"
     inkscape:window-width="1920"
     inkscape:window-height="1001"
     inkscape:window-x="-9"
     inkscape:window-y="-9"
     inkscape:window-maximized="1" />
  <metadata
     id="metadata4881">
    <rdf:RDF>
      <cc:Work
         rdf:about="">
        <dc:format>image/svg+xml</dc:format>
        <dc:type
           rdf:resource="http://purl.org/dc/dcmitype/StillImage" />
        <dc:title></dc:title>
      </cc:Work>
    </rdf:RDF>
  </metadata>
  <g
     inkscape:label="Layer 1"
     inkscape:groupmode="layer"
     id="layer1"
     transform="translate(0,-217.62499)">
    <path
       style="stroke-width:1.00000001;font-variant-east_asian:normal;opacity:1;vector-effect:none;fill:#003590;fill-opacity:1;stroke-linecap:butt;stroke-linejoin:miter;stroke-miterlimit:4;stroke-dasharray:none;stroke-dashoffset:0;stroke-opacity:1"
       d="M 116.58398 67.509766 L 115.05078 69.833984 L 112.93555 70.501953 L 113.33008 75.630859 L 118.48438 78.347656 L 119.45312 83.458984 L 115.65234 90.095703 L 113.49609 89.136719 L 110.87891 93.337891 L 108.95508 92.619141 L 107.26953 96.443359 L 106.84375 100.09766 L 104.0918 97.326172 L 104.99609 94.011719 L 107.39844 91.240234 L 109.88867 87.009766 L 111.15234 86.1875 L 111.94336 81.439453 L 109.74805 77.835938 L 106.20898 77.111328 L 104.97852 77.785156 L 103.48047 81.783203 L 104.27734 89.363281 L 102.10352 90.115234 L 102.21484 95.697266 L 101.08398 98.521484 L 99.603516 105.03906 L 94.175781 107.17188 L 95.75 102.64844 L 95.820312 98.792969 L 97.814453 94.300781 L 96.021484 93.669922 L 91.052734 97.191406 L 84.457031 100.54297 L 82.802734 103.58789 L 82.375 106.50195 L 83.166016 109.57227 L 82.470703 112.65625 L 82.738281 115.67969 L 81.345703 116.16992 L 81.744141 118.87109 L 80.904297 121.00195 L 77.601562 122.05859 L 76.953125 124.10547 L 70.279297 127.04492 L 63.392578 130.44727 L 55.185547 136.69922 L 45.253906 147.02539 L 42.072266 151.40234 L 40.447266 154.66406 L 34.482422 162.22656 L 32.736328 165.20508 L 29.244141 167.95508 L 27.035156 171.17773 L 25.238281 172.55469 L 22.630859 176.15234 L 20.884766 177.20117 L 12.373047 184.97656 L 11.740234 186.95117 L 8.9941406 190.44727 L 10.677734 191.06445 L 12.572266 187.53516 L 15.119141 189.84766 L 18.332031 190.57227 L 23.291016 189.33203 L 30.880859 185.1875 L 32.566406 185.12695 L 41.792969 179.66602 L 47.169922 178.01367 L 51.998047 173.14258 L 53.373047 173.38867 L 55.189453 171.51562 L 57.974609 172.7832 L 59.695312 174.67578 L 57.324219 180.56836 L 55.740234 182.32031 L 57.1875 185.22852 L 55.294922 187.33203 L 55.945312 191.6582 L 59.945312 188.93945 L 61.611328 187.125 L 61.371094 185.46289 L 68.087891 189.82617 L 70.736328 189.82812 L 73.236328 190.79102 L 76.386719 188.1543 L 77.835938 187.86523 L 82.214844 185.2832 L 87.574219 182.77539 L 93.0625 175.55469 L 95.320312 174.06055 L 99.171875 172.94922 L 101.08594 173.38672 L 104.74805 171.68555 L 107.20898 171.55078 L 109.82031 170.24414 L 114.12305 166.88867 L 117.37305 161.93359 L 119.05078 162.16992 L 123.44336 160.1875 L 125.15234 154.92969 L 129.00195 151.74609 L 132.54102 147.36328 L 133.17773 150.3125 L 134.85742 152.76758 L 138.08008 152.72461 L 139.47461 156.36719 L 142.04297 158.62305 L 141.70117 167.08594 L 143.71094 168.92188 L 145.11133 166.46484 L 149.11719 161.27344 L 151.375 159.16797 L 152.20508 161.60742 L 155.08789 160.50195 L 158.25 160.66797 L 161.76562 159.95508 L 165.1875 160.53906 L 168.16406 161.83203 L 168.43555 162.93359 L 172.29492 163.67773 L 174.75977 167.6543 L 181.21289 174.11328 L 182.75195 174.25977 L 183.23633 176.82617 L 186.20898 178.71289 L 189.375 178.4375 L 193.64453 177.24609 L 196.41211 175.21875 L 198.1543 174.87695 L 199.83789 177.54492 L 202.73438 178.89648 L 204.5918 178.47656 L 205.39453 176.30469 L 207.39062 176.13477 L 208.63672 177.65234 L 211.45312 178.61914 L 213.46289 174.34375 L 215.98828 170.82031 L 219.43555 169.1582 L 226.83203 162.03125 L 228.03125 162.79492 L 235.66797 159.55078 L 240.08789 159.42969 L 247.81641 158.10742 L 249.36719 158.67969 L 255.35156 171.30078 L 264.54492 179.03516 L 267.5293 178.83594 L 268.2168 176.7168 L 271.82812 175.14453 L 268.68164 175.43555 L 267.28125 178.07617 L 262.75781 175.38086 L 262.32812 173.04688 L 267.05664 165.94727 L 266.24219 163.66797 L 263.89648 163.03906 L 263.24414 166.51562 L 261.21484 164.63477 L 261.85938 161.30859 L 264.43164 158.24414 L 266.88867 157.98438 L 266.95312 158.64453 L 267.81445 160.98828 L 267.03906 162.98828 L 268.58789 164.83594 L 274.32422 164.42383 L 277.01367 165.16211 L 280.92578 162.13281 L 282.86914 162.07227 L 285.18164 165.38281 L 289.13867 163.06445 L 289.07812 161.5293 L 292.8125 158.92383 L 289.19922 160.50195 L 288.51367 162.62305 L 285.52734 162.82227 L 276.33594 155.08789 L 270.35156 142.4668 L 254.51953 136.61523 L 254.80469 136.21484 L 253.2168 133.28906 L 250.69336 132.74805 L 249.24023 130.25586 L 246.04297 127.7832 L 243.32422 127.20703 L 239.69336 125.50781 L 236.18945 122.55859 L 237.47461 118.70703 L 236.07227 116.85742 L 237.83594 115.30469 L 238.81641 112.44141 L 237.2207 109.15234 L 239.91211 104.8125 L 239.06445 103.35156 L 234.95508 103.35938 L 223.77148 105.67188 L 219.37109 108.49023 L 213.61914 109.57812 L 208.07227 109.83398 L 204.31641 108.61133 L 196.73828 102.73828 L 194.10938 99.992188 L 191.26367 94.738281 L 188.73438 91.1875 L 188.34375 89.042969 L 186.66211 87.117188 L 183.77148 79.396484 L 181.08594 77.582031 L 178.23438 72.203125 L 176.125 70.316406 L 174.17383 70.814453 L 172.99219 72.927734 L 170.04688 73.138672 L 169.55859 70.580078 L 166.84375 70.072266 L 162.13281 74.03125 L 158.50586 73.191406 L 157.05078 71.574219 L 154.09766 73.904297 L 149.56641 75.626953 L 146.50391 75.484375 L 142.93359 73.902344 L 141.71289 72.611328 L 137.21094 73.621094 L 136.15039 71.015625 L 133.9375 72.773438 L 132.72266 71.25 L 128.34766 70.160156 L 123.0293 70.306641 L 119.54883 67.775391 L 116.58398 67.509766 z M 132.34961 73.869141 L 136.24414 77.658203 L 132.94141 79.191406 L 130.83789 75.484375 L 132.34961 73.869141 z M 124.43164 73.884766 L 129.98047 74.195312 L 130.50977 77.246094 L 128.86133 79.873047 L 126.20312 79.044922 L 122.64453 80.904297 L 121.58008 83.566406 L 119.73633 81.236328 L 119.25391 76.710938 L 122.38477 74.412109 L 124.43164 73.884766 z M 158.5625 78.595703 L 158.42969 81.582031 L 155.9082 80.441406 L 158.5625 78.595703 z M 116.78711 106.7793 L 120.82227 108.45898 L 120.60352 108.55273 L 115.31445 113.07227 L 118.27344 113.74219 L 110.04102 118.42383 L 108.24023 117.19336 L 107.4668 114.24023 L 111.4668 110.40234 L 116.78711 106.7793 z M 105.92578 108.76562 L 102.85156 111.31055 L 101.78516 111.03906 L 102.67383 110.30469 L 105.92578 108.76562 z M 89.052734 110.67578 L 90.673828 112.39844 L 88.048828 114.06836 L 86.15625 112.625 L 89.052734 110.67578 z M 210.16992 116.84375 L 213.61914 117.40039 L 215.02344 119.32812 L 212.51367 120.75391 L 205.70312 118.13672 L 206.63867 117.23633 L 210.16992 116.84375 z M 160.49805 129.71094 L 163.99023 130.97852 L 164.62891 133.00195 L 161.03906 134.59961 L 159.6543 134.19141 L 156.15625 135.17383 L 157.07031 137.29883 L 153.07227 140.61523 L 149.95117 145.41602 L 148.29297 146.0332 L 144.62695 153.58789 L 144.28906 156.94141 L 142.81445 159.15625 L 140.52148 156.64062 L 140.53711 154.56641 L 138.72852 152.24023 L 135.07617 152.32617 L 133.66016 150.36328 L 133.58203 146.73438 L 137.10547 143.45703 L 139.58594 138.64844 L 145.90234 134.27734 L 147.31445 132.77148 L 155.88281 130.26172 L 160.49805 129.71094 z M 268.05664 149.62695 L 266.38867 152.87305 L 266.61328 155.17188 L 263.94336 153.62695 L 260.99609 154.54102 L 258.87109 154.09375 L 256.36328 155.93945 L 255.58398 154 L 254.77148 154.13477 L 256.03516 153.2168 L 260.2168 151.08008 L 268.05664 149.62695 z M 67.132812 169.83789 L 67.585938 171.33984 L 63.910156 173.52734 L 63.625 171.60352 L 67.132812 169.83789 z M 209.47461 171.07617 L 210.64062 172.35547 L 210.83203 175.29883 L 208.91797 174.85742 L 207.7207 172.58984 L 209.47461 171.07617 z M 64.619141 175.18164 L 66.541016 176.42969 L 63.091797 178.28125 L 63.210938 179.26562 L 60.808594 179.61523 L 64.619141 175.18164 z "
       transform="matrix(0.26458333,0,0,0.26458333,0,217.62499)"
       id="path2" />
  </g>
</svg>
